<?xml version="1.0" encoding="UTF-8" standalone="no"?>
<svg xmlns="http://www.w3.org/2000/svg" xmlns:xlink="http://www.w3.org/1999/xlink" viewBox="-2100 -1470 4410 2940" height="504" width="756" version="1"><defs><path id="i" d="m -31.5,0 h 33 a 30,30 0 0 0 30,-30 v -10 a 30,30 0 0 0 -30,-30 h -33 z m 13,-13 h 19 a 19,19 0 0 0 19,-19 v -6 a 19,19 0 0 0 -19,-19 h -19 z" fill-rule="evenodd"/><path id="j" transform="translate(-31.5)" d="M 0,0 H 63 V -13 H 12 V -31 H 52 V -43 H 12 V -57 H 60 V -70 H 0 z"/><path id="l" d="m -26.25,0 h 52.5 v -12 h -40.5 v -16 h 33 v -12 h -33 V -51 H 25 v -12 h -51.25 z"/><g id="m"><clipPath id="b"><path d="m -31.5,0 v -70 h 63 V 0 z M 0,-47 v 12 h 31.5 v -12 z"/></clipPath><use xlink:href="#a" height="2940" width="4200" y="0" x="0" clip-path="url(#b)"/><path d="M5 -35H31.5V-25H5z"/><path d="M21.5 -35H31.5V0H21.5z"/></g><path id="k" d="m -31.5,0 h 12 v -48 l 14,48 h 11 l 14,-48 V 0 h 12 V -70 H 14 L 0,-22 -14,-70 h -17.5 z"/><path id="a" d="M 0,0 A 31.5,35 0 0 0 0,-70 31.5,35 0 0 0 0,0 m 0,-13 a 18.5,22 0 0 0 0,-44 18.5,22 0 0 0 0,44" fill-rule="evenodd"/><path id="c" d="m -31.5,0 h 13 v -26 h 28 a 22,22 0 0 0 0,-44 h -40 z m 13,-39 h 27 a 9,9 0 0 0 0,-18 h -27 z" fill-rule="evenodd"/><g id="h"><use xlink:href="#c" height="2940" width="4200" y="0" x="0"/><path d="m 28,0 c 0,-10 0,-32 -15,-32 H -6 c 22,0 22,22 22,32"/></g><path id="n" d="m -15.75,-22 c 0,7 6.75,10.5 16.75,10.5 10,0 14.74,-3.25 14.75,-7.75 C 15.75,-33.5 -31,-24.5 -30.75,-49.5 -30.5,-71 -6,-70 3,-70 c 9,0 26,4 25.75,21.25 H 13.5 c 0,-7.5 -7,-10.25 -15,-10.25 -7.75,0 -13.25,1.25 -13.25,8.5 -0.25,11.75 46.25,4 46.25,28.75 C 31.5,-3.5 13.5,0 0,0 -11.5,0 -31.55,-4.5 -31.5,-22 z"/><g id="f" fill="#fff"><g id="e"><path id="d" transform="rotate(18 0 -1)" d="M 0,-1 V 0 H 0.5"/><use xlink:href="#d" height="2940" width="4200" y="0" x="0" transform="scale(-1 1)"/></g><use xlink:href="#e" height="2940" width="4200" y="0" x="0" transform="rotate(72)"/><use xlink:href="#e" height="2940" width="4200" y="0" x="0" transform="rotate(-72)"/><use xlink:href="#e" height="2940" width="4200" y="0" x="0" transform="rotate(144)"/><use xlink:href="#e" height="2940" width="4200" y="0" x="0" transform="rotate(-144)"/></g><use xlink:href="#f" height="2940" width="4200" y="0" x="0" id="o" transform="scale(31.5)"/><use xlink:href="#f" height="2940" width="4200" y="0" x="0" id="p" transform="scale(26.25)"/><use xlink:href="#f" height="2940" width="4200" y="0" x="0" id="r" transform="scale(21)"/><use xlink:href="#f" height="2940" width="4200" y="0" x="0" id="q" transform="scale(15)"/><use xlink:href="#f" height="2940" width="4200" y="0" x="0" id="s" transform="scale(10.5)"/></defs><path fill="#009b3a" d="M-2100 -1470H2310V1470H-2100z"/><path d="M -1638,0 105,1113 1848,0 105,-1113 z" fill="#fedf00"/><circle transform="translate(105)" r="735" cy="0" cx="0" fill="#002776"/><clipPath id="g"><circle r="735" cy="0" cx="0"/></clipPath><path clip-path="url(#g)" transform="translate(105)" d="m -2205,1470 a 1785,1785 0 0 1 3570,0 h -105 a 1680,1680 0 1 0 -3360,0 z" fill="#fff"/><g transform="translate(-315 1470)" fill="#009b3a"><use xlink:href="#a" height="2940" width="4200" y="-1697.5" x="0" transform="rotate(-7)"/><use xlink:href="#h" height="2940" width="4200" y="-1697.5" x="0" transform="rotate(-4)"/><use xlink:href="#i" height="2940" width="4200" y="-1697.5" x="0" transform="rotate(-1)"/><use xlink:href="#j" height="2940" width="4200" y="-1697.5" x="0" transform="rotate(2)"/><use xlink:href="#k" height="2940" width="4200" y="-1697.5" x="0" transform="rotate(5)"/><use xlink:href="#l" height="2940" width="4200" y="-1697.5" x="0" transform="rotate(9.75)"/><use xlink:href="#c" height="2940" width="4200" y="-1697.5" x="0" transform="rotate(14.5)"/><use xlink:href="#h" height="2940" width="4200" y="-1697.5" x="0" transform="rotate(17.5)"/><use xlink:href="#a" height="2940" width="4200" y="-1697.5" x="0" transform="rotate(20.5)"/><use xlink:href="#m" height="2940" width="4200" y="-1697.5" x="0" transform="rotate(23.5)"/><use xlink:href="#h" height="2940" width="4200" y="-1697.5" x="0" transform="rotate(26.5)"/><use xlink:href="#j" height="2940" width="4200" y="-1697.5" x="0" transform="rotate(29.5)"/><use xlink:href="#n" height="2940" width="4200" y="-1697.5" x="0" transform="rotate(32.5)"/><use xlink:href="#n" height="2940" width="4200" y="-1697.5" x="0" transform="rotate(35.5)"/><use xlink:href="#a" height="2940" width="4200" y="-1697.5" x="0" transform="rotate(38.5)"/></g><use xlink:href="#o" height="2940" width="4200" y="-132" x="-600" transform="translate(105)"/><use xlink:href="#o" height="2940" width="4200" y="177" x="-535" transform="translate(105)"/><use xlink:href="#p" height="2940" width="4200" y="243" x="-625" transform="translate(105)"/><use xlink:href="#q" height="2940" width="4200" y="132" x="-463" transform="translate(105)"/><use xlink:href="#p" height="2940" width="4200" y="250" x="-382" transform="translate(105)"/><use xlink:href="#r" height="2940" width="4200" y="323" x="-404" transform="translate(105)"/><use xlink:href="#o" height="2940" width="4200" y="-228" x="228" transform="translate(105)"/><use xlink:href="#o" height="2940" width="4200" y="258" x="515" transform="translate(105)"/><use xlink:href="#r" height="2940" width="4200" y="265" x="617" transform="translate(105)"/><use xlink:href="#p" height="2940" width="4200" y="323" x="545" transform="translate(105)"/><use xlink:href="#p" height="2940" width="4200" y="477" x="368" transform="translate(105)"/><use xlink:href="#r" height="2940" width="4200" y="551" x="367" transform="translate(105)"/><use xlink:href="#r" height="2940" width="4200" y="419" x="441" transform="translate(105)"/><use xlink:href="#p" height="2940" width="4200" y="382" x="500" transform="translate(105)"/><use xlink:href="#r" height="2940" width="4200" y="405" x="365" transform="translate(105)"/><use xlink:href="#p" height="2940" width="4200" y="30" x="-280" transform="translate(105)"/><use xlink:href="#r" height="2940" width="4200" y="-37" x="200" transform="translate(105)"/><use xlink:href="#o" height="2940" width="4200" y="330" x="0" transform="translate(105)"/><use xlink:href="#p" height="2940" width="4200" y="184" x="85" transform="translate(105)"/><use xlink:href="#p" height="2940" width="4200" y="118" x="0" transform="translate(105)"/><use xlink:href="#r" height="2940" width="4200" y="184" x="-74" transform="translate(105)"/><use xlink:href="#q" height="2940" width="4200" y="235" x="-37" transform="translate(105)"/><use xlink:href="#p" height="2940" width="4200" y="495" x="220" transform="translate(105)"/><use xlink:href="#r" height="2940" width="4200" y="430" x="283" transform="translate(105)"/><use xlink:href="#r" height="2940" width="4200" y="412" x="162" transform="translate(105)"/><use xlink:href="#o" height="2940" width="4200" y="390" x="-295" transform="translate(105)"/><use xlink:href="#s" height="2940" width="4200" y="575" x="0" transform="translate(105)"/></svg>