<?xml version='1.0' encoding='utf-8'?>
<svg xmlns="http://www.w3.org/2000/svg" version="1.1" id="Layer_1" x="0px" y="0px" viewBox="0 0 3430.3479 5000" enable-background="new 0 0 3430.3479 5000" preserveAspectRatio="none"> <g> <path d="M3234.9575,4876.7188c-21.1772-8.8477-30.2529-7.8638-43.8718,4.7578c-13.4717,12.4844-15.2229,25.4819-4.833,35.8711 c9.9231,9.9219,24.2493,8.7891,36.6934-2.9009c8.2959-7.7939,12.2837-8.9199,18.2786-5.1626 c11.5691,7.251,11.7195,22.0942,0.3325,32.7031c-12.2969,11.457-23.0479,11.71-65.4683,1.5405 c-31.9414-7.6572-32.8098-8.2441-32.8547-21.7021c-0.0166-9.0435-4.0515-17.6064-11.6526-24.7344 c-10.7971-10.1245-15.0483-10.8916-59.5876-10.9365c-26.6724-0.0195-51.9536-2.2505-56.9558-5.0264 c-5.0354-2.7944-46.1106-6.3545-93.3167-8.0874c-81.1809-2.9814-84.3223-2.7759-84.3223,5.5234 c0,7.0688,4.248,9.0898,23.6104,11.2314c17.5791,1.9448,42.9407,12.4956,99.2827,41.3032 c91.4512,46.7578,113.4924,55.9546,151.4351,63.1875l0.0012-0.001c38.2205,7.2856,37.946,7.2788,71.9548,1.8257 c49.6086-7.9541,80.8879-36.5903,80.9329-74.0693C3264.636,4899.958,3254.8743,4885.0405,3234.9575,4876.7188z M3219.5137,4897.7051c-4.7112,8.8027-22.3398,12.3374-22.3398,4.479c0-5.9165,18.6333-18.3765,23.2314-15.5347 C3222.4814,4887.9331,3222.0808,4892.9082,3219.5137,4897.7051z M3201.6711,4972.7026h0.001 c-30.593,12.2144-92.5996,9.4897-122.4043-5.3789c-7.6418-3.8125-16.2727-6.9312-19.1812-6.9312s-33.2986-14.1665-67.5347-31.4805 s-64.8171-31.48-67.9595-31.48s-6.9644-2.0239-8.4927-4.4976c-1.7852-2.8882,12.1951-4.3076,39.0847-3.9751 c23.0251,0.2866,37.8176,1.4951,32.8704,2.6851c-18.4094,4.4282-15.614,9.1431,7.2178,12.1714 c12.9382,1.7168,30.5142,6.0415,39.0583,9.6113c8.5432,3.5703,18.8286,6.4243,22.8547,6.3481 c6.175-0.1206,5.9653-1.1694-1.345-6.6997c-10.9124-8.2559-9.6167-9.252,16.4705-12.6665 c19.9463-2.6099,21.6765-2.0093,27.3135,9.4854c3.3103,6.7495,5.1702,16.0469,4.1338,20.6602 c-1.2429,5.5327,0.1746,7.709,4.1667,6.3931c3.3279-1.0967,6.7019-6.4194,7.4966-11.8276c0.7949-5.4077,3.3247-8.6714,5.6216-7.252 c7.3452,4.54,4.4753,19.7749-4.8188,25.5796c-14.9673,9.3467-10.1846,13.4424,12.3672,10.5879 c14.3469-1.8154,31.6987,0.0684,52.842,5.7378C3210.1548,4967.4741,3211.9292,4968.6074,3201.6711,4972.7026z"/> <path d="M2778.9358,4988.2754c0,19.2383,53.1394-0.0454,65.386-23.728c23.0898-44.6504-35.5295-100.7734-96.0515-91.9614 c-77.2559,11.248-102.1814,89.041-37.699,117.6606c15.0374,6.6748,19.5061,7.0239,27.23,2.1299 c4.6003-2.916,4.9111-6.0537,1.2693-12.8569c-10.0132-18.71,25.7974-32.5532,42.082-16.2681 c5.2,5.2007,5.9531,8.7588,2.5691,12.1426C2781.0901,4978.0269,2778.9358,4983.8232,2778.9358,4988.2754z M2757.864,4940.1553 c-26.8711,0-37.3916,7.8335-37.3916,27.8423v0.0005c0,12.7632-6.1409,13.2373-17.9888,1.3892 c-5.8914-5.8921-8.9944-14.9907-8.9944-26.3765c0-32.2905,28.4939-54.5728,69.7854-54.5728 c24.5205,0,41.8286,8.1279,57.8486,27.1665c14.6257,17.3804,15.1384,35.5669,1.3704,48.5015 c-12.7351,11.9634-21.0718,12.5493-21.0718,1.481C2801.4219,4950.0195,2784.5266,4940.1553,2757.864,4940.1553z"/> <path d="M2801.1758,4926.3672l0.0012,0.0005c7.1716,8.6406,13.7373,9.1157,13.7373,0.9932 c0-8.4048-12.9875-19.3037-32.9338-27.6382c-13.3806-5.5903-20.5073-6.0654-34.4985-2.2974 c-26.0422,7.0117-26.6482,13.564-0.9751,10.5234C2769.1992,4905.2612,2789.272,4912.0239,2801.1758,4926.3672z"/> <path d="M3406.9231,4941.8809c9.0493-7.5112,7.4453-23.1577-4.1382-40.3452c-13.1116-19.4575-27.207-26.4385-53.5378-26.5239 c-41.4673-0.1304-59.5769,16.3198-59.0146,53.605c0.5017,33.2778,17.2058,57.5923,44.2932,64.4731v-0.0005 c14.4094,3.6602,14.9487,3.5596,18.9121-3.5225c3.1809-5.6821,7.7822-6.0488,27.9351-2.2266 c13.2698,2.5142,25.1519,3.5508,26.4045,2.2983c1.2527-1.252,0.1965-11.3677-2.3464-22.4795 C3401.7903,4951.2515,3402.1077,4945.877,3406.9231,4941.8809z M3381.5596,4944.6523c4.9473,4.4771,8.9944,13.0464,8.9944,19.043 c0,9.9497-1.2781,10.6274-14.616,7.75c-8.0391-1.7344-16.2341-5.9424-18.2126-9.3516c-1.9785-3.4097-6.3625-6.1987-9.7444-6.1987 l0.0022,0.0005c-3.3816,0-7.8667,5.1577-9.9683,11.4619l-3.8208,11.4619l-11.9731-12.5864 c-6.5854-6.9224-13.3586-18.1904-15.0527-25.0405c-3.6682-14.8379,4.8342-37.8228,16.2495-43.9321 c12.6252-6.7563,13.9626-5.2173,6.0112,6.9175c-8.1235,12.3989-4.1501,14.5469,9.5315,5.1514 c12.3286-8.4658,34.2173-11.8857,43.676-6.8237c11.1321,5.958,10.3494,21.9097-1.0769,21.9097 c-4.9475,0-8.9944,2.7222-8.9944,6.0488S3376.6121,4940.1753,3381.5596,4944.6523z"/> <path d="M1903.3488,4920.1587c40.0619,20.1221,74.8634,38.1479,77.337,40.0581c4.4369,3.4248,67.9705,24.6914,85.4465,28.6006 h0.001c49.9609,11.1758,118.4355-8.2827,138.8638-39.4609c18.1118-27.6416,11.1597-63.0322-15.0439-76.583 c-36.5945-18.9243-75.7439,7.3809-53.3513,35.8481c10.7993,13.73,16.9412,14.1045,32.364,1.9727 c16.074-12.6431,27.5859-9.8677,27.5859,6.6514c0,8.8975-3.8823,15.8433-12.4177,22.2158 c-11.2825,8.4229-14.1602,8.75-31.4805,3.5767c-10.4841-3.1323-28.5684-7.8384-40.1858-10.459 c-19.8562-4.4785-21.2046-5.7158-22.4858-20.6333c-2.3123-26.9136-18.1667-34.751-70.2971-34.751 c-25.3987,0-50.7744-2.5708-60.9897-6.1782c-11.6371-4.1094-26.6932-5.2676-44.9718-3.4585 c-15.1133,1.4951-39.6205,0.9712-54.4614-1.1655c-33.4631-4.8179-74.2035-1.3862-74.2035,6.2505 c0,3.311,9.1602,6.6323,22.7253,8.2388C1823.6248,4882.7578,1852.5754,4894.6567,1903.3488,4920.1587z M2167.3188,4890.686 c-11.3054,12.0337-15.9497,13.6836-20.0132,7.1084c-3.7957-6.1421,10.2546-18.3516,21.1179-18.3516 C2177.7407,4879.4429,2177.7241,4879.6099,2167.3188,4890.686z M1899.9846,4881.2417c23.708,0,35.5372,1.4673,31.2366,3.8745 c-10.5973,5.9302-3.4838,12.3154,13.7211,12.3154c8.4838,0,25.9521,3.9995,38.8168,8.8877 c24.527,9.3198,30.8774,8.9438,22.3574-1.3228c-7.4562-8.9839-1.8237-12.062,22.0676-12.062 c19.101,0,21.5439,1.1753,24.1667,11.6255c1.5889,6.394,1.5964,15.7402,0,20.7695c-4.0908,12.8892,7.6484,8.3276,14.8398-5.7671 l5.5544-10.8877l0.0671,10.1626c0.0361,5.5898-3.9812,13.6284-8.9285,17.8638c-4.9475,4.2358-8.9944,8.8071-8.9944,10.1582 s14.6719,2.5532,32.6045,2.6699c58.863,0.3857,91.3369,12.5215,54.7195,20.4497h0.0154 c-29.9158,6.4771-76.0811,3.5024-107.5614-6.9302c-25.1089-8.3218-164.7762-73.7412-171.2465-80.2124 C1862.5448,4881.9595,1878.9974,4881.2417,1899.9846,4881.2417z"/> <path d="M2450.6414,4980.9072c11.1311-4.0054,56.665-25.354,101.1868-47.4414s91.9792-42.9775,105.4609-46.4224 s25.2737-8.5483,26.2046-11.3418c2.4868-7.4595-172.9297-4.3867-187.114,3.2778c-7.2937,3.9414-20.2747,4.7583-42.7231,2.6895 c-47.7498-4.3999-70.4727,7.311-70.4727,36.3213c0,12.6567-1.6887,15.4194-9.427,15.4194c-5.1846,0-20.3208,3.1665-33.6355,7.0371 c-32.3477,9.4038-50.5461,7.1553-61.5115-7.6001c-7.1343-9.6001-7.8184-13.5908-3.6594-21.3613 c6.4011-11.9604,11.2463-11.9814,27.9021-0.1216c16.5615,11.793,34.0474,8.5996,37.9451-6.9302 c4.3391-17.2861-1.7788-28.5239-18.541-34.0557c-33.0142-10.8955-64.9939,13.1919-64.9939,48.9536 c0,27.7124,27.094,55.2939,67.428,68.6401v0.0005C2342.53,4993.8745,2427.9163,4989.085,2450.6414,4980.9072z M2304.3689,4884.125 c3.9998-6.4722,20.3516,2.5396,20.3516,11.2163v0.0005c0,3.623-2.7878,6.5874-6.1958,6.5874 C2310.2166,4901.9292,2300.7346,4890.0044,2304.3689,4884.125z M2315.7271,4965.4976c0-6.9478,61.9253-19.5459,80.5825-16.394 c19.1416,3.2344,23.6948-1.1509,11.6099-11.1807c-3.71-3.0791-6.7458-8.0625-6.7458-11.0737 c0-6.9399,30.1243-17.0767,44.9719-15.1328c6.1836,0.8096,11.7029-0.5522,12.2651-3.0254 c0.5874-2.5854-9.449-4.4468-23.6104-4.3838c-13.5476,0.062-24.6323-0.3726-24.6323-0.9658c0-0.5938,4.2161-3.3359,9.3687-6.0938 c6.8755-3.6958,14.9563-3.7036,30.356-0.0449c17.5178,4.1611,26.4211,3.5503,53.8599-3.6948 c25.2493-6.6675,41.4023-8.0957,69.6514-6.1602l36.7778,2.5215l-19.4578,8.2637c-11.0212,4.6807-24.0559,7.1099-30.0627,5.6025 c-12.4023-3.1128-42.562,5.769-42.562,12.5342c0,2.8652,6.4714,3.5889,16.8645,1.8872 c14.7959-2.4233,13.2786-1.0464-12.3672,11.2222c-55.9766,26.7778-91.3689,40.041-118.6758,44.4736l0.001,0.0161 c-15.1152,2.4536-28.4949,4.2427-29.7312,3.9731c-12.8667-2.7905-18.6113-3.7476-37.1018-6.1797 C2325.3396,4970.1167,2315.7271,4967.3428,2315.7271,4965.4976z"/> <path d="M561.8256,4864.4575c-6.1836,0.4155-43.0208,0.9854-81.8595,1.2646c-49.6699,0.3584-75.128,2.3945-85.8307,6.8667 c-10.1681,4.2485-23.5202,5.5005-40.2474,3.7739c-47.0766-4.8589-77.0296,9.4087-77.448,36.8911 c-0.1713,11.2725-2.5527,12.8071-31.6658,20.4102c-42.7463,11.1631-54.5514,10.8115-67.371-2.0078 c-20.727-20.7266-3.1094-41.7153,20.4163-24.3223c10.7511,7.9497,15.6062,8.9902,25.6129,5.4927 c9.9682-3.4844,12.6099-7.4663,13.7166-20.6709c1.0771-12.8477-0.8257-17.8936-8.8703-23.5283 c-30.3154-21.2329-75.6978,7.5679-75.6978,48.0396c0,21.2729,20.8763,45.6807,51.6847,60.4253 c20.4086,9.7681,26.9436,10.5991,69.7393,8.8696c53.2558-2.1523,87.6314-12.5483,144.7059-43.7617 c52.1381-28.5132,97.0474-49.4868,129.159-60.3188C576.907,4872.0864,584.2215,4862.9541,561.8256,4864.4575z M207.6252,4880.2544 c5.5402,0.7905,10.7478,4.979,11.5723,9.3076l0,0c1.7194,9.021-8.1918,10.5298-16.2485,2.4736 C194.574,4883.6606,196.5536,4878.6753,207.6252,4880.2544z M312.4966,4892.9346c3.8582,0,5.7598,2.0239,4.2315,4.4976 c-1.5294,2.4731-4.6838,4.4971-7.0115,4.4971c-2.3276,0-4.2315-2.0239-4.2315-4.4971 C305.4851,4894.9585,308.6406,4892.9346,312.4966,4892.9346z M460.5632,4895.646c-26.4561,1.4673-47.1458,8.3696-47.1458,15.728 c0,3.3608,5.1164,4.2749,14.6158,2.6108c19.8443-3.4766-57.697,34.2944-94.9141,46.2339l0.0011,0.0005 c-20.2802,6.5054-39.873,9.0654-67.4577,8.8135c-39.7654-0.3638-50.1201-2.126-50.1201-8.5303 c0-6.4131,62.1239-19.2563,78.3878-16.2056c17.7055,3.3218,25.177-3.5977,11.6822-10.8198 c-5.0165-2.6846-9.1206-6.9365-9.1206-9.4492c0-8.1636,31.9755-18.5093,47.9473-15.5132 c15.5063,2.9092,19.0032-0.7949,9.6158-10.1831c-4.1974-4.1968-1.3252-5.3965,12.9261-5.3965 c10.078,0,26.5176-2.8911,36.5319-6.4248c16.0432-5.6606,99.8482-9.5674,99.8482-4.6553 C503.3611,4887.1343,480.3537,4894.5479,460.5632,4895.646z"/> <path d="M699.5266,4984.7417c26.0641-4.8706,46.6824-27.3506,46.6824-50.8975c0-15.9258-2.926-21.4702-21.3616-40.4756 c-20.6403-21.2778-42.7825-31.8262-66.9417-31.8887c-22.2268-0.0581-56.1412,15.2163-71.4795,32.1938 c-13.2544,14.6709-15.6073,20.5371-15.6073,38.9072c0,17.8066,2.1871,23.6694,12.3672,33.1548 c6.8018,6.3379,18.4389,13.6401,25.8588,16.2266v-0.002c27.3323,9.5283,35.8896,6.082,27.9844-11.2686 c-4.3467-9.54-3.8197-12.2549,3.4091-17.5396c11.0069-8.0474,25.2923-7.9614,36.3289,0.2202 c7.6362,5.6621,7.9788,7.6982,2.7382,16.2705C671.1557,4983.3003,678.322,4988.7046,699.5266,4984.7417z M650.8931,4928.9121 c-15.2812,0-35.1024,17.6611-35.1024,31.2759c0,12.3438-9.4346,11.4023-19.113-1.9067 c-12.9514-17.8125-10.1779-39.1045,7.4617-57.2666c29.9958-30.8862,88.5899-27.3735,116.111,6.9609 c12.2037,15.2241,10.3262,40.917-3.8011,52.0293c-13.9175,10.9478-17.6539,9.5361-21.1607-7.998 C692.4526,4937.8267,675.3158,4928.9121,650.8931,4928.9121z"/> <path d="M694.4728,4915.4023c9.4423,10.4321,15.7577,11.6206,15.7577,2.9644c0-15.1396-41.6945-36.4546-61.8736-31.6313 c-17.969,4.2949-28.6783,10.5718-25.8478,15.1509c1.423,2.3022,7.9821,2.083,15.4349-0.5146 c16.355-5.7012,45.1376,1.4424,56.5299,14.0303L694.4728,4915.4023z"/> <path d="M1141.1871,4956.125c20.9762-20.3564,27.4321-42.2588,18.6826-63.3813c-11.4285-27.5903-48.179-40.1846-70.8745-24.2876 c-11.9468,8.3682-13.1743,27.0024-2.5516,38.7412c10.1241,11.188,19.0944,10.3345,33.1776-3.1587 c14.729-14.1113,26.8372-10.9326,26.8372,7.0459c0,25.6401-23.5707,36.0488-57.1228,25.2261 c-11.8688-3.8276-27.6254-7.564-35.0167-8.3032c-11.8359-1.1831-13.7782-3.4551-16.2936-19.0537 c-5.0363-31.2329-31.4462-43.0303-77.3403-34.5469c-20.2373,3.7412-28.5246,3.3535-41.1587-1.9258 c-18.2533-7.6265-180.8941-12.46-185.1937-5.5034c-4.024,6.5117,1.1682,9.0493,26.4001,12.9004 c15.8543,2.4199,51.9943,17.731,109.1489,46.2407c94.4112,47.0942,93.1859,46.5723,128.1697,54.6348h-0.0011 C1058.2209,4994.6216,1110.8497,4985.5659,1141.1871,4956.125z M1114.978,4886.1895 c-10.8619,11.5625-17.9886,14.3804-17.9886,7.1133c0-11.252,6.5811-18.3564,17.0049-18.3564h11.546L1114.978,4886.1895z M890.12,4919.3677c-33.3918-16.04-65.7713-31.4478-71.955-34.2397c-9.3303-4.2119-4.3555-5.0381,29.2318-4.8584 c22.2608,0.1196,36.9327,1.1431,32.6046,2.2739c-12.8525,3.3594-8.9515,10.3921,5.7631,10.3921 c7.4979,0,25.9478,4.1484,40.9995,9.2188c27.1127,9.1338,41.2849,8.2764,24.0307-1.4526c-8.6298-4.8662-8.5464-5.166,2.2859-8.209 c6.1837-1.7363,18.6705-3.3589,27.7495-3.606c14.6488-0.3979,16.825,0.9976,19.3282,12.397 c1.5547,7.0649,2.2189,15.4126,1.4822,18.5508c-2.7098,11.54,8.2708,8.8325,13.0271-3.2124l4.9133-12.4438l0.4787,12.1123 c0.2921,7.4033-3.0073,14.5537-8.4871,18.3921c-12.174,8.5264-6.2506,12.9497,12.6033,9.4131 c15.7753-2.96,76.3281,5.8413,83.4713,12.1313c2.152,1.895-3.9197,5.6196-13.4916,8.2773l0.0011,0.0005 c-9.5719,2.6577-32.5815,4.6846-51.1324,4.5C1001.926,4968.6001,973.1862,4959.2705,890.12,4919.3677z"/> <path d="M1249.4895,4903.6914c13.7836,16.6089,40.8776,7.3091,40.8776-14.0308c0-18.5435-11.9467-28.2061-34.8751-28.2061 c-16.7371,0-22.4781,2.4878-35.2803,15.2905c-17.1477,17.1479-20.3119,38.5762-8.8988,60.2607 c10.9235,20.7539,39.6764,39.7988,70.061,46.4067v-0.0029c25.1111,5.4609,91.3116-0.2236,117.738-10.1099 c13.1578-4.9229,58.3262-25.9263,100.3752-46.6753c42.0492-20.749,89.0972-41.3711,104.553-45.8276 c27.3026-7.8721,35.95-17.8535,14.1678-16.3535c-33.6586,2.3193-111.9805,2.1245-125.4655-0.3101 c-10.1033-1.8242-25.1418,0.1455-41.991,5.5005c-20.3042,6.4526-31.5066,7.5112-49.4558,4.6738 c-40.8875-6.4634-70.4529,7.9468-70.4529,34.3374c0,14.1782-0.359,14.4067-37.1018,23.6694 c-20.4064,5.144-42.7902,8.2471-49.7435,6.8955c-15.3492-2.9834-27.4508-19.8198-23.406-32.5635 C1223.9985,4895.9131,1241.5448,4894.1187,1249.4895,4903.6914z M1269.7971,4882.4443c1.5822,4.1235,1.2922,9.0571-0.6434,10.9624 c-4.9221,4.8452-19.2601-4.042-19.2601-11.938C1249.8936,4872.4404,1266.2661,4873.2437,1269.7971,4882.4443z M1364.5718,4893.0527 c8.5892-3.8027,37.2609-6.375,33.3544-2.9922c-1.0309,0.8926-10.9805,2.8271-22.1115,4.2988 C1362.3011,4896.1465,1358.5659,4895.7119,1364.5718,4893.0527z M1265.3933,4956.2842c4.025-6.5122,60.3002-15.1338,79.1289-12.123 c19.0867,3.0522,22.9646-1.7334,11.0552-13.6426c-15.5864-15.5859-1.7216-24.0918,39.269-24.0918 c14.0713,0,17.353-1.4458,15.3197-6.7461c-1.9675-5.1279,0.8816-6.7617,11.8864-6.811c7.9601-0.0361,23.1732-3.0957,33.8068-6.7988 c20.155-7.0205,95.3456-8.7051,95.3456-2.1367c0,5.1382-21.657,10.6279-45.1277,11.4395 c-21.7328,0.752-40.3188,8.2349-40.3188,16.2334c0,2.7627,4.8563,3.9341,11.243,2.7134 c6.1836-1.1821,11.2429-1.5659,11.2429-0.8535c0,1.9746-47.6738,23.5845-85.1346,38.5903l0,0 c-24.3436,9.751-43.27,13.9087-69.7063,15.311c-19.9596,1.0591-38.3129,1.1118-40.7865,0.1172 c-2.4736-0.9941-10.1461-3.0566-17.049-4.582C1268.6641,4961.3774,1264.0856,4958.3989,1265.3933,4956.2842z"/> <path d="M1731.0922,4971.6362c-2.4736,1.5283-4.4972,5.9585-4.4972,9.8447c0,5.7612,3.9142,6.6235,21.2079,4.6748 c17.1422-1.9326,24.1394-5.5903,36.5045-19.0835c13.7726-15.0283,15.0726-18.6934,13.0359-36.7622 c-5.6808-50.3955-79.1036-82.1553-131.951-57.0781c-18.3884,8.7261-40.8138,34.4878-44.4558,51.0688 c-5.168,23.5293,15.0638,53.2988,40.6372,59.7949l-0.0011,0.0005c4.8441,1.23,13.452,2.4707,19.1295,2.7583 c9.4049,0.4756,10.0615-0.8662,7.3925-15.0967c-2.5813-13.7627-1.5602-16.2432,8.5881-20.8672 C1716.3699,4941.9204,1748.1608,4961.0869,1731.0922,4971.6362z M1676.7285,4941.7783 c-4.7289,5.8389-8.5969,14.4399-8.5969,19.1128c0,10.9824-6.6942,10.7964-17.9888-0.498 c-15.2471-15.2471-12.0389-38.4893,8.0919-58.6196c29.9684-29.9678,78.3252-28.873,107.7106,2.439 c17.723,18.8848,19.09,36.9858,4.1096,54.4019c-11.1935,13.0122-20.974,11.6694-20.974-2.8804 C1749.0809,4932.4897,1693.0077,4921.6738,1676.7285,4941.7783z"/> <path d="M1762.5724,4918.2813c0-3.3735-7.6976-11.4683-17.106-17.9888c-18.295-12.6787-47.7277-15.9819-64.1387-7.1992 c-15.6434,8.3721-9.1941,11.5425,19.7323,9.7007c25.502-1.6235,29.7872-0.6182,41.599,9.7632 C1757.5988,4925.6885,1762.5724,4927.1187,1762.5724,4918.2813z"/> <path d="M37.8577,4867.9297c-24.9255,10.4141-44.2362,51.4736-27.273,57.9834c5.4787,2.1025,5.538,5.7573,0.4084,25.2036 c-3.7945,14.3882-4.3918,23.7383-1.6206,25.4502c4.271,2.6392,29.4798-0.7402,42.3412-5.6758 c3.9284-1.5068,6.4274,0.3438,6.4274,4.7607c0,16.5522,41.7592,3.9229,55.2848-16.7202 c12.1114-18.4839,13.5992-52.3496,3.06-69.6401C101.2036,4864.2183,68.2005,4855.252,37.8577,4867.9297z M97.845,4906.8647 c-3.24-5.188-8.6869-9.4326-12.1049-9.4326c-4.4829,0-4.9056,1.5767-1.5196,5.6572c2.5824,3.1108,7.7131,14.4175,11.4022,25.1255 c6.2682,18.1914,6.1441,20.0332-1.8951,28.0718c-11.9171,11.917-21.2321,10.75-22.9207-2.8711l-1.4229-11.4746l-15.4898,11.4746 l0,0c-30.0222,22.2388-41.9217,9.7583-20.6238-21.627c6.6975-9.8701,8.9307-16.3911,5.6215-16.436 c-3.0172-0.0381-8.4849-1.9658-12.1521-4.2847c-5.5688-3.5195-4.5016-6.4761,6.4625-17.9199 c10.4898-10.9497,16.803-13.6738,31.4012-13.561c20.0254,0.1567,29.6039,5.5825,38.1393,21.6035 C109.8719,4914.5732,105.6876,4919.4224,97.845,4906.8647z"/> <path d="M3359.1912,4557.8696c-24.7554-49.4824-47.5313-100.5815-50.6121-113.5537s-8.1392-23.5854-11.2397-23.5854 c-7.894,0-5.0845,168.7764,3.0645,184.0015c3.98,7.437,4.7256,20.4102,2.522,43.9209c-4.5564,48.6226,8.98,73.3887,40.1113,73.3887 c6.3459,0,11.5842,1.5176,11.6436,3.373c0.0593,1.855,4.1218,18.4736,9.0295,36.9297c10.55,39.6743,6.7117,61.2417-11.7227,65.8682 c-23.7498,5.9614-33.0791-12.0405-15.4009-29.7183c4.9473-4.9468,8.9944-11.6436,8.9944-14.8809 c0-11.1768-11.9841-22.2212-24.1099-22.2212c-18.7256,0-29.8728,12.8975-29.7566,34.4263 c0.113,20.793,9.1777,34.8945,28.9287,45.0054c7.3074,3.7412,17.4255,6.0161,22.4849,5.0557 c5.0593-0.96,11.6567-1.8955,14.6631-2.0801c9.7222-0.5942,37.5364-28.2212,46.9084-46.5918 c12.7209-24.9355,15.4878-73.4116,6.5999-115.6406C3406.0886,4656.8101,3392.2283,4623.9067,3359.1912,4557.8696z M3320.9453,4793.8911c-9.6499,10.6626-15.8369,11.708-15.8369,2.6758c0-10.1963,13.876-21.9727,19.3921-16.4565 c3.2422,3.2417,2.1487,7.4766-3.5564,13.7803L3320.9453,4793.8911z M3324.1973,4690.562c-3.5562,0-6.1099-13.9854-4.6519-25.479 c1.3196-10.4028,2.0247-9.2319,3.8274,6.3657h-0.001C3324.5881,4681.9609,3324.9583,4690.562,3324.1973,4690.562z M3391.8286,4781.019c-6.3176,6.333-6.6875,5.5601-14.9375-31.1855c-2.9524-13.1592-4.1492-31.5674-2.656-40.9067 c3.4663-21.6763-0.5447-25.4854-13.7605-13.0693c-14.2458,13.3828-19.5359,6.9639-22.6606-27.4951 c-1.8894-20.8286-4.0349-27.1538-8.6155-25.396c-4.2808,1.6426-6.1001-1.5938-6.1001-10.8521 c0-7.2568-3.115-22.3672-6.9216-33.5791c-4.6904-13.814-6.502-33.0718-5.6213-59.7446c1.189-36,1.8281-38.4312,7.4846-28.4839 c3.4014,5.9814,6.6448,21.2427,7.208,33.9126c0.5632,12.6709,3.6111,27.873,6.7744,33.7832 c5.3667,10.0273,6.1365,10.2168,11.5361,2.8325c5.2041-7.1177,6.7632-5.7305,15.5183,13.8057 c34.5786,77.1563,37.4124,87.2754,37.8264,135.0337l0.0022-0.0005C3397.1702,4760.1807,3395.4705,4777.3687,3391.8286,4781.019z"/> <polygon points="3320.6433,4840.8237 3320.6433,4840.8237 3320.6423,4840.8232 "/> <path d="M118.9058,4410.5366c-2.4429-0.5771-5.8312,8.6655-7.5297,20.5376c-3.1335,21.9067-10.2647,37.6665-62.4709,138.0635 c-39.548,76.0552-45.2836,93.3657-48.0702,145.0566c-1.8841,34.9839-0.7861,48.0015,5.4238,64.2627 c9.741,25.5015,27.0753,46.4165,44.9125,54.186l-0.0022,0.0005c18.2588,7.9531,27.3432,7.7495,45.837-1.0264 c27.6375-13.1152,37.9516-51.0332,18.7463-68.9248c-11.9182-11.105-24.8498-11.7266-35.8995-1.7266 c-10.9257,9.8877-10.4316,24.9927,1.0551,32.1655c14.5115,9.0625,9.8716,25.2695-7.7229,26.9775 c-25.9774,2.522-34.8707-22.5977-21.9787-62.0889c3.632-11.1304,7.7295-25.8027,9.102-32.605 c2.0663-10.2388,4.8529-12.3672,16.1969-12.3672c22.5386,0,29.9893-6.917,35.9006-33.3301 c4.1777-18.6543,4.2392-29.2021,0.2657-44.9819c-4.3083-17.1138-3.9746-23.4766,1.9675-37.4834 c4.9473-11.6606,7.0938-30.2231,6.9456-60.0996c-0.1175-23.7754,1.2484-49.0718,3.0347-56.2148 C128.8587,4463.9883,124.6294,4411.8867,118.9058,4410.5366z M95.4658,4771.5112c8.3422,0,16.6394,9.4185,16.6394,18.8882v0.0015 c0,10.3521-5.5995,10.3037-15.0429-0.1304C88.1479,4780.4199,87.3904,4771.5112,95.4658,4771.5112z M107.6793,4530.9121 c-1.7523,24.7344-3.497,38.2749-3.879,30.0903c-0.942-20.2681-9.6586-13.7856-9.7849,7.2764 c-0.0538,9.1299-4.1019,25.4209-8.9944,36.2031c-11.7414,25.8794-11.8468,38.2603-0.2064,24.3086 c7.0774-8.4814,8.8121-8.9517,11.0936-3.0049c1.4877,3.8765,2.7042,15.1143,2.7042,24.9722 c0,15.8774-1.0277,17.5981-8.9944,15.0693c-6.3824-2.0259-8.9944-0.8081-8.9944,4.1943c0,4.4966-4.0196,7.0488-11.1013,7.0488 c-8.0216,0-10.3844,1.8721-8.5135,6.7456c1.4251,3.7104,7.5517,6.7461,13.6167,6.7461c6.2056,0,9.8123,1.9658,8.2478,4.4971 c-4.6311,7.4937-19.8508,5.0518-28.0261-4.4971c-11.6931-13.6543-14.7915-10.9326-11.8644,10.417 c1.6425,11.9883-0.3426,31.7671-5.1911,51.7178h-0.0022c-4.3171,17.7686-8.654,32.3062-9.6334,32.3062 c-5.5007,0-8.2412-21.0747-8.1775-62.9604c0.0615-42.665,1.4295-50.4746,14.1679-80.9492 c16.1464-38.627,74.074-158.4072,75.6627-156.4531C110.3912,4485.355,109.4316,4506.1777,107.6793,4530.9121z"/> <path d="M3212.9106,4799.5498c2.9612-2.1753,4.4973-219.8726,4.4973-637.4067c0-1121.0144,6.0332-3537.4556,9.3457-3742.7808 l3.2104-199.0004l-671.8613-0.1664c-369.5232-0.0917-788.2257-1.0408-930.4491-2.1097 c-142.2234-1.0694-429.593-3.1654-638.6-4.6597c-209.007-1.4932-402.2728-3.4338-429.481-4.3116 c-27.2082-0.8784-116.2526-2.9677-197.876-4.6443l-148.4071-3.0479l-1.009,1422.7097 c-1.0255,1446.2068-3.3213,2146.9805-8.7934,2684.1692c-1.6755,164.4844-3.1917,340.2881-3.3674,390.6758l-0.3195,91.6133 l287.8197-1.6694c347.0133-2.0127,1105.5254-0.7915,1625.7317,2.6177c684.6853,4.4868,1077.0437,8.0356,1078.9497,9.7588h-0.0022 C3195.4358,4804.1338,3208.137,4803.0566,3212.9106,4799.5498z M3083.2456,4789.5c-67.6082,0-123.7668-0.7373-124.7969-1.6392 c-4.3093-3.77-1026.6204-8.9692-1856.3595-9.4414l-892.088-0.5078l0.6741-204.4492 c0.3711-112.4473,1.5646-237.8408,2.6515-278.6528c3.6331-136.375,6.6986-960.0801,9.3995-2525.168 c1.4723-853.3405,3.9998-1552.8633,5.616-1554.4949s89.9601-1.2813,196.3181,0.7784 c468.7798,9.0789,1232.6071,14.3282,2208.1169,15.173l584.6338,0.5067l-0.8452,80.9493 c-0.4646,44.5217-1.9326,687.0568-3.261,1427.8557c-1.3286,740.7983-3.4365,1449.1047-4.6838,1574.0139 s-2.3113,507.9006-2.3606,851.0918l0.0022,0.0005l-0.0945,623.9839H3083.2456z"/> <path d="M3200.8025,245.405c-3.2334-1.0195-510.6563-3.1281-1127.606-4.6866s-1122.8828-3.4876-1124.2959-4.288 c-2.5681-1.4553-551.1564-9.2162-656.412-9.287l-55.7174-0.0357l-1.4021,1115.3014 c-1.7183,1366.157-5.6226,2685.6599-8.6178,2911.9258c-1.2286,92.7544-3.3828,244.8335-4.7881,337.9536 c-2.074,137.4697-1.4394,170.0156,3.3806,173.0684c3.2653,2.0679,133.4322,2.7813,289.2592,1.5845s408.7935-2.1763,562.1478-2.1763 c367.076,0,1524.0433,6.9932,1526.2755,9.2256l-0.001-0.001c0.9595,0.959,134.1853,1.2998,296.0564,0.7563l294.3118-0.9873 l1.5833-667.832c0.8718-367.3076,2.6296-1236.5005,3.9087-1931.5398c1.2793-695.0399,3.5564-1412.9785,5.0605-1595.4185 C3206.1814,307.9571,3205.6062,246.9196,3200.8025,245.405z M3194.854,406.0453c-1.8752,84.6198-3.9209,617.2889-4.5457,1183.709 s-2.7075,1513.119-4.6277,2103.7749v0.0002l-3.4927,1073.9207l-193.7566-1.3032c-106.5664-0.7163-353.6316-2.9272-549.0339-4.9131 c-195.4023-1.9854-772.9019-4.0269-1283.3322-4.5361l-928.0556-0.9263l2.7207-94.4409 c1.4965-51.9424,3.7692-240.1499,5.0506-418.2383c1.2813-178.0884,3.3224-449.2686,4.5356-602.6226 c1.2132-153.354,3.4223-982.0723,4.9111-1841.5964s3.0051-1563.032,3.374-1563.3503c0.3667-0.319,76.5575,1.0699,169.3119,3.0869 c92.7544,2.0158,300.187,4.8101,460.9612,6.2089c160.7744,1.3988,399.5753,3.5969,530.6677,4.8858 c131.0935,1.2884,587.1843,2.3749,1013.5361,2.4155l775.1855,0.0725L3194.854,406.0453z"/> <path d="M3399.8491,4320.939c12.9929,8.1147,17.6846,6.5039,17.6846-6.0708c0-15.2114-15.4053-44.7227-27.9229-53.4902 c-25.2473-17.6836-69.9731,0.9497-86.6533,36.1016c-19.4719,41.0352-12.5923,83.3252,18.406,113.1328v-0.0005 c17.1665,16.5073,22.542,19.1133,39.4285,19.1133c29.7158,0,56.7417-26.312,56.7417-55.2422 c0-14.8071-2.9534-16.5142-18.4509-10.6641c-15.9597,6.0239-21.8469,0.0298-21.9546-22.3628 C3377.0393,4323.2505,3387.8782,4313.4629,3399.8491,4320.939z M3363.9297,4367.4414c2.6736,4.9932,12.2356,12.1616,21.252,15.9282 l16.3923,6.8491l-12.5078,10.7588l0,0c-15.269,13.1343-31.9185,13.6665-51.6277,1.6499 c-29.1152-17.7515-37.0205-66.6221-16.4526-101.7183c6.2605-10.6841,15.2341-21.4863,19.9409-24.0054 c13.5916-7.2729,33.8772-5.3428,44.9719,4.2803c11.7468,10.188,9.5015,22.6201-4.0854,22.6201 C3364.1956,4303.8042,3352.3772,4345.855,3363.9297,4367.4414z"/> <path d="M3348.6123,4290.3125c-11.6545,0-34.5127,34.4888-34.5127,52.0737c0,3.6733,2.9314,13.6968,6.5164,22.2744h0.001 c3.5837,8.5776,8.8594,15.5957,11.7239,15.5957c3.3926,0,3.8987-2.7441,1.4526-7.8701 c-2.0664-4.3286-3.5925-17.5679-3.3906-29.4209c0.2856-16.877,2.9458-24.2446,12.2686-33.9746 C3355.929,4295.1519,3357.4685,4290.3125,3348.6123,4290.3125z"/> <path d="M54.2719,4420.7314c38.1964,0,71.3247-40.5923,71.3247-87.3955c0-60.7642-50.3759-104.0361-94.5309-81.2021 c-19.5017,10.085-34.3811,42.9468-26.1245,57.7002c3.43,6.1304,5.9794,6.5732,13.7858,2.396 c8.0589-4.3125,10.8675-3.5308,17.7186,4.9282c7.4133,9.1538,7.6483,24.6196,0.5687,37.2393 c-2.7668,4.9321-18.3576,4.1206-21.5988-1.124c-6.2649-10.1367-11.243-3.3096-11.243,15.4199 c0,16.4365,2.646,22.7231,15.1473,35.9771v0.0005C32.2318,4418.3628,37.3877,4420.7314,54.2719,4420.7314z M28.6547,4375.7593 c3.5727,0,11.748-4.5532,18.1688-10.1187c9.3743-8.126,11.7524-14.3525,12.0664-31.6172 c0.426-23.271-9.1964-39.2134-23.6695-39.2134c-18.4169,0-14.8332-18.7974,5.1647-27.0811 c43.7465-18.1196,87.9311,47.7749,64.7667,96.5894c-3.8241,8.0591-12.4254,19.8564-19.113,26.2178h-0.0022 c-16.5559,15.7461-31.982,18.8555-45.8886,9.2495C22.0692,4387.2993,16.5487,4375.7593,28.6547,4375.7593z"/> <path d="M85.425,4375.437c14.8069-15.8438,20.5975-39.0376,14.8069-59.23c-6.9138-24.1055-12.8602-18.5713-12.8602,11.9688 c0,23.0103-1.9181,30.9971-9.45,39.3506c-5.1977,5.7646-10.8828,13.0107-12.633,16.1025h0.0022 C59.0831,4394.5913,72.713,4389.0459,85.425,4375.437z"/> <path d="M3323.9141,3842.4736c-42.4412,19.1379-43.719,81.7205-1.5974,78.1914c13.1885-1.105,17.1882-3.7522,20.6555-13.6724 c3.5366-10.1145,2.5505-14.1643-5.5391-22.7754c-18.7058-19.9116-6.1475-36.4526,18.9834-25.0024 c15.2539,6.9502,19.0625,22.8376,11.6438,48.5718c-3.25,11.2764-6.8149,28.0916-7.9207,37.3672 c-1.8633,15.6262-3.0874,16.8643-16.6658,16.8643c-30.7039,0-49.6765,38.9517-38.7454,79.5454 c3.9175,14.5488,3.4839,22.1436-2.1663,37.9063c-5.0747,14.158-7.5889,42.3657-8.9219,100.104 c-1.021,44.2153-0.697,82.2676,0.7192,84.5596v0.0005c5.9189,9.5767,13.1853-0.8281,15.906-22.7739 c2.1079-17.0034,14.7595-46.9888,45.8589-108.6816c47.0469-93.3298,61.4114-135.5608,61.4114-180.5493 C3417.5359,3874.9446,3371.4946,3821.0181,3323.9141,3842.4736z M3326.9092,3900.4546c-1.9795,8.927-17.3069,1.5176-17.3069-8.3665 c0-7.375,3.9473-8.1582,12.8098-2.5417C3325.7476,3891.6599,3327.7712,3896.5688,3326.9092,3900.4546z M3398.7292,3941.3052 c2.3572,53.8965-3.7947,75.3777-46.7395,163.2207c-18.3665,37.5679-33.3931,70.2056-33.3931,72.5288s-3.4146,7.0015-7.5879,10.3965 c-6.6799,5.4326-7.2178,5.1855-4.4971-2.0664c1.6985-4.5308,3.218-22.7441,3.375-40.4746 c0.2427-27.4585,1.021-30.5698,5.2549-20.9937c4.6377,10.4897,5.2437,9.5859,9.0557-13.4917 c2.2476-13.6035,7.1807-33.458,10.9619-44.1208c7.2717-20.502,4.303-31.6992-4.3884-16.5537 c-4.8232,8.4043-5.324,8.1245-8.1248-4.5344c-1.6414-7.4204-3.2246-19.7314-3.5168-27.3579 c-0.551-14.3428,0.2109-14.8293,26.0762-16.6772c19.7983-1.4138,21.4758-6.7844,4.4282-14.1831 c-12.5859-5.4624-13.4949-6.6711-5.134-6.8149c5.5896-0.0969,13.6277,3.8716,17.8635,8.8184 c12.3245,14.3945,15.5437,10.6216,12.4639-14.616c-1.9006-15.5698-0.5029-32.6482,4.104-50.1499 C3390.8591,3878.9207,3396.2017,3883.5281,3398.7292,3941.3052z"/> <path d="M79.1777,3831.5999c-20.1693,0-24.0011,1.7766-41.4496,19.2258c-26.8601,26.8618-35.7711,58.4836-31.6933,112.4917 c4.0207,53.2607,20.2,94.2566,78.9532,200.0488c9.1305,16.4419,22.6188,50.3633,27.9471,70.2842h-0.0022 c3.06,11.4409,7.4474,20.1738,9.7508,19.4063c4.1118-1.3711,4.2238-39.8794,0.3865-133.6328 c-1.0628-25.9731-2.4781-66.4502-3.1456-89.948c-0.9333-32.8801-3.1577-45.6143-9.652-55.2729 c-10.4469-15.5364-22.8757-22.5078-33.8936-19.011c-7.0345,2.2324-8.9208-0.4714-11.5954-16.6152 c-1.7567-10.6047-5.0571-22.8281-7.3343-27.1633c-7.4265-14.1406-5.6325-47.8608,3.0589-57.4641 c9.4577-10.4497,25.7666-11.5562,33.4731-2.2703c4.3907,5.2891,3.6133,9.1919-3.946,19.8071 c-11.21,15.7437-12.0082,28.832-2.3463,38.4937c9.4215,9.4211,16.3616,8.9092,30.5525-2.2542 c9.5269-7.4927,11.8501-13.1211,11.8501-28.6978c0-15.8577-2.6054-21.9253-14.3447-33.4026 C103.6015,3833.7505,97.9943,3831.5999,79.1777,3831.5999z M61.5909,3980.0066c3.0896-4.9468,7.1301-8.9944,8.979-8.9944 c6.704,0,15.2186,27.2759,13.9593,44.7161c-0.7093,9.8242,0.0889,19.2405,1.7743,20.9255 c5.5754,5.5754,12.5572-21.4902,9.8244-38.0889c-2.0521-12.4688-1.525-14.7209,2.2409-9.5637 c3.1094,4.2598,3.946,18.3486,2.2683,38.2261c-1.9302,22.8818-0.7257,36.8589,4.4104,51.1716 c4.5894,12.7896,6.9182,33.6758,6.6393,59.5879l0.0011-0.001c-0.235,21.9434-1.1781,39.8965-2.0949,39.8965 c-5.6753,0-12.8943-23.9922-13.7616-45.7412c-0.56-14.0269-3.4651-30.0757-6.4548-35.6636 c-5.0231-9.3845-5.8663-9.5725-11.0651-2.4639c-5.0956,6.9668-6.4614,6.2822-14.4391-7.239 c-4.8463-8.2141-15.7094-34.0791-24.1372-57.4785c-13.4828-37.4287-15.3032-47.6804-15.1187-85.2671 c0.1142-23.4978,2.4045-46.5962,5.0879-51.3298c7.8723-13.8823,21.0564,37.4158,18.1051,70.4429 C45.3588,3990.5718,50.82,3997.2549,61.5909,3980.0066z M111.2059,3893.6609c-6.6612,6.6619-11.165,6.8462-15.0155,0.6162 c-3.0501-4.9348,9.8705-22.2026,16.6119-22.2026C118.5116,3872.0745,117.3709,3887.4956,111.2059,3893.6609z"/> <path d="M3324.3071,3806.9436l-0.001-0.0002c18.6453,8.1052,28.6968,8.2517,31.6865,0.4619 c1.771-4.615,6.8821-5.3828,19.9409-2.9946c9.6575,1.7659,19.9321,4.678,22.834,6.4709 c10.2185,6.3159,13.0569-1.6831,8.8352-24.9058c-3.3652-18.5164-2.958-24.0625,1.9719-26.8213 c10.4436-5.8445,4.2742-33.0264-10.7688-47.438c-12.3967-11.8774-15.9026-12.7837-49.4514-12.7837 c-34.7236,0-36.522,0.5178-46.9019,13.4917C3280.1665,3740.2798,3292.3691,3793.0596,3324.3071,3806.9436z M3326.8325,3717.3469 c4.126-1.4739,10.2854-3.9434,13.6858-5.4875c3.4014-1.5444,1.8831,1.4919-3.3728,6.7485 c-12.9294,12.9314-12.5596,21.52,0.562,13.0667c5.5654-3.5852,16.6306-8.7488,24.5886-11.4751 c12.0818-4.1387,16.1023-3.635,24.3601,3.0525c10.9707,8.8831,8.7979,25.7458-2.7461,21.3157 c-11.9446-4.584-12.1719,6.0532-0.427,20.0117c6.3613,7.5593,11.5657,16.6248,11.5657,20.145 c0,9.8271-22.6682,7.7976-34.2307-3.0649c-11.144-10.4695-19.7354-8.1907-19.7354,5.2339l-0.0022-0.0002 c0,11.5178-5.2712,11.0234-17.1357-1.606C3305.5049,3765.6592,3307.2615,3724.3376,3326.8325,3717.3469z"/> <path d="M21.0328,3800.8694c4.3281-2.2346,15.3207-5.4072,24.4293-7.05c12.8877-2.3247,17.4881-1.3293,20.7424,4.4863 c3.7945,6.7825,6.008,6.8677,23.9154,0.9243c26.6724-8.8528,39.9707-28.644,39.9707-59.4871 c0-39.6062-16.8216-56.2007-57.1821-56.4072c-24.8333-0.127-29.6884,1.3831-43.5313,13.5369 c-18.5904,16.3228-25.514,39.1418-14.3545,47.302c7.3672,5.387,7.3013,7.0339-1.8314,44.7019 c-0.6017,2.4736-0.8498,7.0981-0.5578,10.2771l-0.0022-0.0002C13.0002,3803.1794,15.5496,3803.7004,21.0328,3800.8694z M46.3009,3706.0479c19.2031-11.8708,38.8508-11.9438,51.4629-0.1936c12.2783,11.4377,12.6417,17.7031,0.8487,14.6189 c-5.0286-1.3149-8.9944-0.1377-8.9944,2.6699c0,2.7617,1.9456,5.0215,4.3237,5.0215c5.6171,0,14.5126,33.031,11.2122,41.6328 l0.0011,0.002c-1.3966,3.6399-7.488,8.8723-13.5355,11.6277c-9.9364,4.5273-10.9959,4.0088-10.9959-5.387 c0-15.9529-4.5411-17.1563-18.9582-5.0249c-7.2684,6.1145-17.3585,11.1177-22.4244,11.1177c-7.9557,0-8.8209-1.9536-6.3483-14.3208 c1.5745-7.8765,5.8762-17.6482,9.5565-21.7156c9.0185-9.9646,8.4234-13.4324-2.3013-13.4324 C25.5431,3732.6641,29.263,3716.5779,46.3009,3706.0479z"/> <path d="M3399.5449,3568.1572c-7.4199,1.4333-19.5632,3.7786-26.9832,5.2119c-10.6982,2.0664-13.4915,1.0315-13.4915-4.9978 c0-12.0115-30.8687-4.3135-47.2205,11.7754c-12.3948,12.1968-13.4915,15.7876-13.4915,44.197 c0,32.5991,6.7864,46.3313,26.9829,54.5974c14.2986,5.8521,41.6726,4.8118,58.5095-2.2236 c25.166-10.5151,42.5542-46.5767,26.7285-55.4331c-5.7852-3.2373-6.1814-7.2463-2.3584-23.8337 C3415.2861,3566.792,3414.8174,3565.2073,3399.5449,3568.1572z M3386.0535,3633.7239c11.9258,0,11.4097,9.7173-1.1243,21.1682 h-0.0012c-11.7678,10.752-32.9724,14.6863-49.4866,9.1816c-15.0034-5.0012-20.0627-16.8584-7.1938-16.8584 c8.6606,0,8.8738-0.7671,2.8208-10.1187c-3.6025-5.5652-7.7515-17.6846-9.2207-26.9321 c-2.2068-13.8979-0.988-17.9917,7.0334-23.6101c13.4531-9.4226,16.6978-8.5588,16.6978,4.446 c0,13.5874,6.0332,14.2253,21.2583,2.2485c24.5403-19.303,38.8267-2.5847,19.2163,22.4861 C3374.8643,3630.0391,3374.8643,3633.7239,3386.0535,3633.7239z"/> <path d="M71.5053,3557.4768c-2.9798,4.8196-8.2544,4.8545-29.089,0.1921c-13.9966-3.1326-26.3726-4.772-27.5013-3.6431 s0.1493,11.8804,2.8415,23.8923c4.2842,19.124,3.9131,22.5571-2.9908,27.6055c-7.0444,5.1506-7.2486,7.5601-1.9214,22.6042 c7.6637,21.6458,12.9997,28.0706,29.5523,35.5879l0.0022,0.0002c8.0545,3.6577,23.9967,5.5247,39.5513,4.6311 c36.1674-2.0776,49.0474-14.9556,51.7055-51.6992c1.7809-24.6189,0.9124-27.6091-12.4101-42.783 C105.4582,3555.8835,78.0666,3546.8591,71.5053,3557.4768z M103.4577,3643.0645c-7.23,7.2302-15.7061,13.1458-18.8363,13.1458 c-3.2324,0-1.4394-3.9607,4.1513-9.1694c10.1099-9.4182,12.8877-17.8137,5.896-17.8137c-2.1706,0-6.2901,2.824-9.1547,6.2754 c-8.9021,10.7268-36.0181,13.425-45.814,4.5593c-11.9566-10.8208-10.7291-19.8291,2.7009-19.8291 c13.5838,0,14.2755-4.855,2.2486-15.74c-5.1274-4.6396-8.9944-13.8516-8.9944-21.4221c0-12.085,1.0606-13.0156,11.7853-10.324 c6.4823,1.627,14.7212,5.8938,18.3093,9.4819c9.0163,9.0161,15.29,8.1582,18.0689-2.4707 c3.4893-13.3406,13.7529-10.9204,23.8386,5.6216c13.1248,21.5266,11.6459,41.8384-4.2007,57.6848L103.4577,3643.0645z"/> <path d="M3363.0801,3243.4792c-19.3206-38.0037-39.6545-84.1702-45.187-102.5916c-5.5337-18.4216-11.9524-32.863-14.2646-32.0923 c-6.5581,2.1858-5.313,170.459,1.3528,182.9138c3.207,5.9919,5.0527,23.6187,4.4346,42.3486 c-1.5361,46.5059-0.8696,50.5928,10.3733,63.6631c6.8677,7.9846,15.1726,12.0959,25.4878,12.6182 c13.4246,0.6797,15.4998,2.4285,16.9324,14.2661c0.8982,7.4204,3.5947,19.3586,5.9927,26.53 c12.8208,38.3384,0.0242,74.561-24.1943,68.4827c-16.1443-4.052-17.5452-14.2817-4.1382-30.2148 c11.1101-13.2036,11.4636-14.9355,5.2922-25.9807c-4.2009-7.5183-11.2156-12.3669-19.2351-13.2957 c-31.5955-3.6577-41.5493,39.5027-15.8586,68.7627v0.0002c12.3518,14.0681,16.4504,15.8967,35.6328,15.8967 c26.7678,0,44.2681-13.1899,61.936-46.6819c11.1233-21.0894,12.0962-26.9937,11.5417-70.2449 C3418.4351,3359.8425,3411.8857,3339.4854,3363.0801,3243.4792z M3326.4175,3481.0283 c-6.3176,10.1157-16.8152,11.7329-16.8152,2.5908c0-8.2385,11.9041-17.8027,17.7-14.2209 C3330.3569,3471.2864,3330.0593,3475.1963,3326.4175,3481.0283z M3401.7935,3421.0093c0,28.2744-1.9619,47.834-5.1143,50.9849 c-2.8127,2.8118-6.1296,3.4182-7.3704,1.3477c-6.1243-10.2175-12.9282-59.4478-10.582-76.5681 c2.9797-21.7397-1.2109-24.343-15.7622-9.792l-9.5969,9.5972l-6.1431-14.6106c-3.3784-8.0356-6.1431-23.8896-6.1431-35.231 c0-25.2634-7.2947-20.6101-13.3005,8.4841c-3.3135,16.0549-3.6582,12.9421-1.7798-16.0627 c1.7578-27.1323,0.5544-40.1509-4.8923-52.9529c-5.1099-12.01-6.9116-28.1248-6.1572-55.0906 c0.5852-20.9631,2.4121-38.115,4.0579-38.115c5.0496,0,14.2581,26.4172,11.6118,33.3125 c-2.8743,7.49,4.7542,38.7537,11.0664,45.3508c2.7952,2.9211,5.6685,2.1907,8.3323-2.1187 c2.2354-3.6177,4.9451-5.6245,6.0222-4.4595c1.0759,1.165,11.8115,26.4031,23.855,56.0847 c21.2407,52.3464,21.8975,55.3428,21.8975,99.8389L3401.7935,3421.0093z"/> <path d="M55.8903,3521.5012l-0.0176,0.0002c4.9473,2.0459,17.3805,3.8481,27.632,4.0054 c36.5286,0.5588,63.571-43.7268,43.3238-70.9497c-10.9004-14.6553-26.0982-17.5374-37.598-7.1301 c-11.2803,10.208-10.9322,23.6096,0.9398,36.2471c11.9742,12.7461,8.2269,24.1292-7.9436,24.1292 c-26.8942,0-35.412-24.5396-21.8568-62.9607c3.7111-10.5159,6.7458-23.9243,6.7458-29.7971 c0-8.7542,2.3211-10.6775,12.8855-10.6775c17.0654,0,35.3132-14.9204,40.2902-32.9436c2.3782-8.5474,2.3705-26.9626,0-44.6563 c-3.1335-23.3892-2.6142-32.8962,2.3298-42.5889c4.618-9.0557,6.8237-35.9167,8.0425-97.9248 c1.4416-73.3911,0.7345-85.4465-5.011-85.4465c-4.5872,0-7.6867,6.9602-9.8585,22.1458 c-1.7424,12.1802-8.9603,33.4292-16.0399,47.2205c-86.7212,168.9275-91.5522,181.4717-92.4437,240.0164 c-0.5226,34.3364,1.1111,45.2236,9.5785,63.8276C28.165,3498.792,42.1484,3515.8174,55.8903,3521.5012z M97.8692,3461.0422 c6.3538-3.9268,17.5737,1.2749,20.7819,9.6343c4.8507,12.6416-4.5466,15.0986-15.0386,3.9314 C97.8154,3468.4387,95.3461,3462.6018,97.8692,3461.0422z M27.4206,3381.8818c5.8345-33.6812,17.3541-63.8208,50.7064-132.667 c15.5776-32.1548,29.5314-62.0049,31.0093-66.3335c1.4778-4.3284,4.9902-7.8701,7.8064-7.8701 c2.8217,0,3.8944,3.1943,2.3902,7.1138c-1.5009,3.9124-2.7295,19.0269-2.7295,33.5876c0,20.6382-1.3658,25.95-6.1946,24.0969 c-4.4972-1.7253-7.0796,3.5234-9.4226,19.1487c-1.7754,11.8391-7.0828,29.0815-11.7941,38.3167 c-4.7113,9.2349-8.5662,18.895-8.5662,21.467c0,7.2104,9.6224,5.5359,15.6644-2.7266c4.5455-6.2161,5.8685-3.5557,8.2554,16.5999 c1.5635,13.2014,1.8424,25.0032,0.6192,26.2256c-1.2231,1.2229-10.7862,2.6384-21.2518,3.146 c-22.5243,1.0923-26.2178,11.6162-5.5369,15.7712c11.2221,2.2544,12.129,3.3035,5.3931,6.2346 c-5.5885,2.4316-11.2539,0.5593-18.2786-6.0393c-15.0089-14.1016-17.8877-11.8889-14.7081,11.3123 c1.5745,11.4819,1.0409,28.1775-1.1858,37.1018s-5.3009,21.7915-6.8336,28.5935c-3.7747,16.7615-10.7006,15.6042-13.4564-2.2485 C23.7117,3416.4641,23.4065,3405.0552,27.4206,3381.8818z"/> <path d="M3410.7869,3013.1125c6.3032,10.1995,11.2429,3.2556,11.2429-15.8062c0-16.7571-2.6284-23.1719-15.0505-36.7271 c-13.0613-14.2524-17.7351-16.4236-35.355-16.4236c-51.7112,0-86.4719,64.7166-66.7913,124.3496 c3.0972,9.3848,14.1536,24.0591,25.9531,34.4451l-0.0022-0.0002c16.446,14.4766,24.0396,18.0947,37.978,18.0947 c24.4644,0,48.3577-22.0281,51.8098-47.7644c2.7185-20.2646-3.4958-28.6458-14.4797-19.5298 c-13.541,11.238-28.1021-12.687-20.2659-33.2986C3390.3606,3008.5266,3405.2476,3004.1492,3410.7869,3013.1125z M3394.2781,3071.5762c11.8918,0,12.6692,9.469,1.5996,19.4868h-0.001c-22.575,20.4304-55.9084,8.6282-72.5137-25.6743 c-10.5864-21.8699-11.7537-41.0569-3.6267-59.6296c16.3154-37.2856,37.9912-51.9858,61.9922-42.0439 c11.8799,4.9202,22.3147,16.3159,22.3147,24.3674c0,1.3994-4.0471,2.5444-8.9944,2.5444 c-16.8623,0-26.9832,15.7627-26.9832,42.0261C3368.0657,3058.9851,3376.5452,3071.5762,3394.2781,3071.5762z"/> <path d="M3344.8584,2984.5332c-20.4668,18.5229-27.2388,47.6211-16.5459,71.0911c8.3333,18.2903,12.3079,13.3455,9.7705-12.1555 c-2.0872-20.9688-0.8135-25.874,11.3923-43.8477C3363.6851,2978.6946,3361.0015,2969.9238,3344.8584,2984.5332z"/> <path d="M26.1887,3001.8699c17.9646,0,25.5162,9.4165,21.2343,26.4797c-3.5859,14.2881-14.2799,19.6489-25.3735,12.7207 c-9.6817-6.0469-13.3796-2.8794-13.3796,11.4629c0,17.3591,13.799,41.8318,28.8716,51.2019 c47.9692,29.822,110.3215-42.6211,92.7742-107.7881c-6.0036-22.2932-30.2517-51.2344-49.6645-59.2754 c-27.5057-11.3931-62.4643,7.6511-70.1323,38.2061C5.5759,2994.5679,9.8161,3001.8699,26.1887,3001.8699z M37.2055,2959.7241 c12.8877-10.6965,31.6516-10.575,47.9165,0.3108c38.2359,25.5891,42.5256,87.7673,8.2335,119.342h0.0011 c-16.4933,15.1858-35.1474,17.3228-49.9038,5.7161c-13.4718-10.5972-16.3023-22.5112-5.347-22.5112 c13.6804,0,29.0275-20.9707,29.0275-39.6638c0-20.2078-13.9439-41.2854-27.3103-41.2854 C29.667,2981.6326,27.9652,2967.3921,37.2055,2959.7241z"/> <path d="M95.726,3056.719c16.0805-19.8677,18.7902-52.3081,5.4447-65.1819c-7.5517-7.2852-7.7866-6.7297-4.8496,11.4661 c2.4078,14.9211,0.9354,23.5659-6.7063,39.3503c-5.3854,11.1255-11.6338,20.2283-13.8879,20.2283s-4.0964,3.2043-4.0964,7.1204 C71.6305,3080.2278,80.6193,3075.384,95.726,3056.719z"/> <path d="M3355.512,2528.5237c-19.7983-1.9028-23.5938-0.6833-38.4358,12.3486c-14.0208,12.3101-16.4692,17.2502-16.4692,33.2305 c0,33.4617,21.3813,50.2476,42.6694,33.502c13.6145-10.709,14.4863-23.5789,2.3025-34.0105 c-4.9475-4.2358-8.9944-12.311-8.9944-17.9448c0-8.3279,2.4626-10.2437,13.1709-10.2437c25.6841,0,37.2061,24.561,25.9355,55.2856 c-3.8164,10.4048-8.2136,25.2534-9.7705,32.9973c-2.4626,12.2458-5.157,14.4512-20.6897,16.9351 c-13.6135,2.1765-20.0474,6.3135-27.0667,17.4006c-7.9819,12.6094-8.8943,19.4897-6.8523,51.6929 c1.5503,24.4456,0.3745,42.8987-3.4387,53.9663c-3.7834,10.9812-6.0276,45.3057-6.468,98.8921h-0.001 c-0.5742,69.9224,0.3162,82.0737,6.01,82.0737c4.0132,0,6.6843-4.2124,6.6843-10.5391c0-17.9402,15.7917-56.4265,51.8704-126.4131 c52.7815-102.3882,57.5159-116.7327,57.9473-175.6021c0.313-42.5554-0.9937-51.9832-9.3435-67.4578 C3398.5491,2544.9419,3380.6099,2530.9348,3355.512,2528.5237z M3336.5854,2587.9878v0.0002c0,8.9763-12.9875,8.9348-16.4363-0.053 c-1.4656-3.8169-1.4888-8.1143-0.0537-9.5498C3324.6333,2573.8474,3336.5854,2580.8074,3336.5854,2587.9878z M3407.0317,2657.8352 c-2.5374,38.0879-14.4126,72.7361-44.8401,130.8167c-11.1287,21.2434-24.8091,49.5754-30.4009,62.9607h-0.0012 c-5.5918,13.385-11.4724,25.8718-13.0688,27.749c-1.5962,1.877-2.782-13.8069-2.6382-34.8528 c0.1448-21.0464,1.782-38.2659,3.6375-38.2661c1.8555,0,3.3728,3.1548,3.3728,7.0107c0,3.8564,1.7349,5.9395,3.855,4.6292 s5.0132-13.6086,6.4294-27.3298c1.4165-13.7209,6.8315-31.834,12.0325-40.2505c6.782-10.9731,7.9766-16.2183,4.2217-18.5388 c-2.9712-1.8357-7.2466,0.3564-9.8828,5.0659c-4.4729,7.9937-4.7737,7.9753-8.0862-0.4927 c-1.8918-4.8372-3.5806-16.2925-3.7561-25.4556c-0.2942-15.5054,0.7542-16.8616,15.1318-19.5588 c8.4971-1.5942,17.7988-1.4463,20.6699,0.3286c3.386,2.0933,4.6663,0.3442,3.6418-4.9783 c-0.8696-4.5132-6.6282-9.3994-12.7998-10.8584c-9.3787-2.2178-9.9341-3.1467-3.3872-5.6631 c5.3076-2.0396,11.4692,0.9124,19.113,9.1555c6.2046,6.6912,11.5505,10.1626,11.8743,7.7146 c0.3271-2.4482,1.1233-17.6057,1.7722-33.6831c1.4316-35.5051,7.2979-63.3376,13.3596-63.3857 C3404.7712,2589.8931,3409.4067,2622.1716,3407.0317,2657.8352z"/> <path d="M118.5973,2533.0383c-12.6374-12.0295-18.9187-14.6157-35.501-14.6157c-24.7444,0-44.4898,15.4998-61.0534,47.928 c-9.6883,18.9651-11.1024,27.5879-10.9641,66.7502c0.1845,51.356,10.0901,87.9114,37.1676,137.1448 c29.5753,53.7761,59.2276,116.8994,68.7292,146.3101c5.1779,16.0269,11.1968,28.0388,13.3741,26.6929 c5.5446-3.4268,1.7896-167.999-4.1788-183.1575c-2.69-6.8323-4.4258-30.5583-3.8571-52.7244 c0.9739-37.95,0.359-40.9771-10.5183-51.8691c-6.3527-6.3621-17.442-12.02-24.6423-12.5735 c-12.095-0.9297-13.6848-3.2261-20.8873-30.1492c-11.1946-41.8442-10.6061-65.1228,1.8687-73.8604 c24.4743-17.1421,41.5869,0.2813,23.866,24.3003c-12.97,17.5798-9.7629,31.7249,8.6847,38.3096 c10.9257,3.8997,13.8451,2.7046,25.6403-10.4966C143.1638,2572.1836,140.7571,2554.1333,118.5973,2533.0383z M106.2102,2685.9426 c1.1309,4.3284,1.1309,11.4116,0,15.7402c-1.1309,4.3284-2.0564,0.7869-2.0564-7.8701S105.0794,2681.614,106.2102,2685.9426z M67.1333,2666.8298c10.5117-10.5122,20.0671-11.9045,16.4176-2.3926c-1.3933,3.6309-0.5973,7.7979,1.7677,9.2598 s4.3007,13.8855,4.3007,27.6082c0,20.3303,1.2484,24.4709,6.7458,22.3616c4.7859-1.8367,6.7458,0.4036,6.7458,7.7122 c0,5.6655,3.116,19.4448,6.9236,30.6213v0.0005c4.7969,14.0769,6.524,33.3225,5.6215,62.6372 c-1.222,39.7034-1.6777,41.4834-7.3793,28.8247c-3.3432-7.4202-6.76-24.0171-7.5945-36.8818 c-0.8344-12.8645-3.9317-27.9011-6.8819-33.4148c-4.9067-9.1682-5.8367-9.3809-10.8763-2.4883 c-4.7552,6.5034-7.9886,2.1458-23.5948-31.7942c-9.9474-21.6318-20.7226-47.4253-23.944-57.3191 c-9.954-30.5632-6.5042-119.3936,4.3764-112.6694c6.513,4.0244,15.1341,60.2998,12.1235,79.1287 C48.6856,2678.0322,53.2794,2680.6848,67.1333,2666.8298z M115.8711,2581.9299v0.0002 c-8.2104,5.2041-17.2575,4.9175-17.2575-0.5471c0-2.4734,4.5532-9.0503,10.1187-14.6157l10.1187-10.1187l1.5174,10.7346 C121.2027,2573.2869,119.1792,2579.8333,115.8711,2581.9299z"/> <path d="M3388.9102,2237.8247c-25.0759-43.1472-59.1396-114.9231-68.3931-144.1069 c-5.4832-17.2944-12.1587-32.1743-14.8345-33.0659c-7.3835-2.4614-3.8604,168.9053,3.7671,183.1565 c4.0999,7.6621,5,20.7473,3.0303,44.0535c-4.1348,48.9111,9.123,74.9539,37.7432,74.1404 c10.9595-0.3113,13.7781,1.7627,15.874,11.687c1.4009,6.6367,5.6851,24.4612,9.519,39.6111 c8.9878,35.5149,2.7527,52.6208-19.9802,54.8162c-19.1987,1.8545-23.5454-8.8633-10.6621-26.2888 c11.8765-16.0649,11.8862-18.2214,0.1526-33.1392c-7.0466-8.9587-11.9019-11.2622-19.113-9.0691 c-18.7585,5.7056-25.4065,15.6711-25.4065,38.085c0,18.7788,1.8972,22.9883,15.8972,35.281h0.0022 c12.8921,11.3186,19.8376,13.957,36.748,13.957c18.8311,0,22.7244-1.9543,40.1707-20.1628 c26.2024-27.3464,35.2957-58.5396,31.4922-108.0256C3421.9353,2319.9602,3406.4817,2268.0593,3388.9102,2237.8247z M3332.2937,2432.5908c-5.9773,11.1682-19.5117,12.7175-17.4004,1.9917c1.6699-8.4822,15.3757-18.416,19.5918-14.2 C3336.0408,2421.9385,3335.0549,2427.4326,3332.2937,2432.5908z M3330.5403,2317.2593c-1.2319,3.0447-2.1631-0.5352-2.073-7.9558 c0.0911-7.4197,1.0991-9.9111,2.2397-5.5356C3331.8467,2308.1431,3331.772,2314.2146,3330.5403,2317.2593z M3407.1702,2387.3066 c-1.3877,18.356-4.5356,35.3862-6.9951,37.845c-6.5425,6.542-15.9158-29.0752-16.8774-64.1304 c-1.0957-39.9263-0.8728-39.2153-8.7407-27.9834c-3.8506,5.4968-9.5972,9.9946-12.7703,9.9946 c-8.6353,0-16.2068-20.2847-16.2068-43.416c0-16.3804-1.3569-19.9858-6.7458-17.9185c-5.168,1.9834-6.7456-0.9312-6.7456-12.4607 c0-8.2773-3.0359-22.3152-6.7458-31.1948c-7.3486-17.5869-9.6135-92.886-2.7942-92.886c5.7949,0,15.426,25.5952,11.8247,31.4219 c-1.6941,2.7405-0.6367,15.1643,2.3486,27.6091c4.8057,20.032,6.5623,22.3408,15.3218,20.1423 c8.8198-2.2136,11.9292,2.0859,28.6299,39.5825C3404.3132,2316.9888,3410.3586,2345.1416,3407.1702,2387.3066z"/> <path d="M87.4749,2352.0269c9.327,0,17.7417-3.9219,24.9706-11.6382c9.965-10.6379,10.9114-15.3735,11.0014-55.0906 c0.0549-23.8984,2.4923-51.5469,5.4162-61.4409c2.9238-9.8936,5.459-39.2373,5.6302-65.2092 c0.1724-25.9707,0.6555-52.2798,1.0694-58.4634c1.9807-29.4688-1.1594-54.6536-6.5932-52.8694 c-3.0918,1.0151-6.2374,7.7607-6.9895,14.9902c-2.1882,21.0322-14.0669,48.9902-51.419,121.0266 c-48.3996,93.3406-58.6215,124.0232-59.1902,177.6892c-0.4084,38.4248,0.8432,45.3638,12.4309,68.9629 c7.9645,16.2212,18.2676,29.521,26.9831,34.8357c8.7243,5.3206,22.3739,8.6052,35.8062,8.6145 c18.0085,0.0137,23.9473-2.2234,34.8532-13.1292c10.6391-10.6392,13.1457-17.009,13.1457-33.4072 c0-23.7815-8.3938-34.3965-27.2005-34.3965c-9.0361,0-15.3789,3.5298-20.5645,11.4438c-7.2563,11.075-7.0817,11.8782,5.392,24.8982 c10.3097,10.7615,11.9248,14.9968,8.0655,21.1606c-7.9755,12.7412-26.9436,12.2458-35.5756-0.929 c-8.1072-12.3748-7.3628-30.7017,2.9842-73.4382C73.0732,2353.4048,74.2282,2352.0269,87.4749,2352.0269z M102.9603,2408.8401 c5.7982-5.7974,18.1381,4.8792,18.1381,15.6924c0,11.3357-6.928,10.6665-15.4437-1.4917 C101.2673,2416.7781,100.2715,2411.5288,102.9603,2408.8401z M80.6237,2334.0381c-2.4737,0-4.4972-2.1431-4.4972-4.7629 c0-2.6191,2.0235-3.5112,4.4972-1.9829c2.4737,1.5291,4.4972,3.6716,4.4972,4.7629 C85.1209,2333.1455,83.0974,2334.0381,80.6237,2334.0381z M67.1333,2316.4846c0,2.0791-3.3356,2.4995-7.4133,0.9351 c-6.4625-2.4792-7.0883-0.0034-4.8771,19.2534c1.5481,13.4851-0.2833,33.9326-4.6992,52.4556h0.0022 c-3.979,16.6958-8.7243,30.356-10.5447,30.356s-5.7379-11.636-8.7045-25.8589c-4.1722-19.9915-4.192-33.7683-0.0856-60.7224 c6.0826-39.9316,8.8494-47.3977,47.1161-127.0349c15.4503-32.1545,31.3189-65.5464,35.2638-74.2036l7.1718-15.74l-1.2901,32.3354 c-0.9003,22.5557-3.509,34.5544-8.6266,39.6721c-4.0339,4.0344-7.3804,13.7683-7.4342,21.6306 c-0.0549,7.8613-4.1019,23.1162-8.9944,33.8979c-11.95,26.333-11.7689,38.1707,0.3601,23.6069 c4.9265-5.9158,9.6586-9.9634,10.5172-8.9944c4.3512,4.9128,6.625,43.1206,2.9118,48.9111 c-2.7273,4.2537-10.8817,6.5015-22.4771,6.198C75.3218,2312.9202,67.1333,2314.4058,67.1333,2316.4846z"/> <path d="M3408.9434,2005.5269c-16.1201,8.6271-28.8188-15.0813-20.1616-37.6414c3.1335-8.1654,22.1797-9.6108,26.8591-2.0389 c2.1453,3.4717,4.4258,2.7701,7.22-2.2222c6.5647-11.7294-0.4612-36.0576-14.8628-51.4673 c-23.0767-24.6929-45.9292-24.6017-74.2859,0.2964c-33.158,29.1132-41.7043,72.3865-22.4595,113.7142 c9.4236,20.2373,22.959,33.8254,43.3203,43.4895h-0.001c9.2007,4.3672,35.0671-0.1492,47.4961-8.2932 c9.843-6.4495,24.4587-35.5509,24.4587-48.7C3426.5269,2003.2645,3418.9314,2000.1815,3408.9434,2005.5269z M3406.7717,2030.8461 c-1.501,3.9125-2.7295,7.908-2.7295,8.879c0,0.9706-5.9707,4.8529-13.2676,8.6265h-0.0022 c-7.2981,3.7737-16.106,6.8611-19.5732,6.8611c-11.6479,0-36.7954-20.2773-44.728-36.0669 c-16.5613-32.9625-4.3611-84.0131,23.8914-99.9728c18.1414-10.2477,27.363-9.9276,41.8284,1.4509 c13.9021,10.9355,15.5139,22.1593,3.1819,22.1593c-4.7673,0-13.0613,5.5654-18.4312,12.3672 c-7.8042,9.8859-9.3579,16.6234-7.7461,33.5796c2.4727,26.0081,9.3809,35.0024,26.8831,35.0024 C3406.4707,2023.7324,3408.8853,2025.3387,3406.7717,2030.8461z"/> <path d="M3331.906,1957.5598c-10.3767,18.4625-10.1538,42.4768,0.5149,55.3309v0.0006c8.6914,10.4755,13.2512,7.174,8.2512-5.9762 c-6.3342-16.6624-1.2209-40.7479,12.4858-58.8059c6.2253-8.201,10.2998-15.9301,9.0535-17.1763 C3357.6221,1926.3436,3341.478,1940.528,3331.906,1957.5598z"/> <path d="M42.2429,2055.6711h0.0044c17.2882,7.4622,47.0678,1.5125,61.6222-12.3118c14.2678-13.552,27.6045-36.6494,32.1676-55.712 c3.4036-14.22-6.6689-58.6819-16.7953-74.1376c-17.2388-26.3096-60.2289-37.8473-82.6094-22.1708 c-12.2377,8.5706-21.9874,26.641-24.1175,44.6984c-1.5349,12.9974-0.9925,13.4454,14.7849,12.2333 c14.8267-1.139,16.8513,0.1022,21.388,13.1161c4.0273,11.5564,3.6627,16.4302-1.8665,24.8685 c-8.1336,12.4133-14.8728,13.2955-22.4464,2.938c-5.0835-6.9521-5.9289-6.8044-10.5578,1.8457 c-3.8516,7.197-3.4497,13.8879,1.7172,28.5295C23.3911,2041.8381,29.5814,2050.2065,42.2429,2055.6711z M44.0545,2012.6783 c16.6602-5.2877,24.8092-19.6576,24.4534-43.1262c-0.3887-25.7018-5.6654-34.0154-24.1724-38.08 c-15.5052-3.4059-16.4406-7.9141-4.1854-20.1693c13.3993-13.3988,35.2331-11.6261,54.7293,4.4445 c32.7792,27.0205,33.1481,84.0785,0.7268,112.5449h0.0011c-17.9426,15.7544-40.905,18.0304-52.5103,5.2053 C33.3671,2022.7454,33.6789,2015.9711,44.0545,2012.6783z"/> <path d="M105.2111,1998.3184c8.2104-16.876,8.856-37.3159,1.6755-53.0747c-8.284-18.1825-12.5726-13.3724-9.7003,10.8795 c2.9688,25.0693-3.7506,46.4381-17.6681,56.1863c-4.8749,3.4135-7.5099,8.396-5.8564,11.0706 C78.0348,2030.4563,96.8448,2015.5154,105.2111,1998.3184z"/> <path d="M3303.2903,1907.5062c5.2703,8.5266,14.1943-5.6984,16.5198-26.332c1.6084-14.2706,16.759-50.006,47.3291-111.6315 c52.1096-105.0481,62.3884-139.7069,57.7397-194.6964c-4.7651-56.3613-35.2134-95.2731-74.5515-95.2731 c-15.7688,0-21.8293,2.6921-34.4282,15.2905c-12.802,12.8026-15.29,18.5427-15.29,35.2809c0,13.9702,2.5889,22.3322,8.5969,27.7692 c12.3672,11.1925,32.2949,7.6263,40.6174-7.2672c6.3032-11.2804,6.0781-12.8668-3.2314-22.7759 c-17.7603-18.9049-9.9561-34.6577,14.1692-28.6025c6.2209,1.5613,13.0227,8.3713,16.3242,16.3429 c4.8672,11.7491,4.3181,17.756-3.9121,42.8276c-5.2656,16.0382-9.0732,31.4989-8.4641,34.3563 c0.6094,2.8574-5.4556,6.6255-13.4792,8.3734c-32.4324,7.0664-43.5984,28.5022-39.4504,75.7385 c2.0137,22.9323,1.2144,38.7355-2.4155,47.7628C3303.7458,1738.6444,3298.3989,1899.5922,3303.2903,1907.5062z M3319.498,1541.6346 c-6.3933-6.3933-7.1575-17.0895-1.2207-17.0895c5.4072,0,18.3093,12.9014,18.3093,18.3104h0.001 C3336.5876,1548.7921,3325.8916,1548.028,3319.498,1541.6346z M3315.7642,1824.7321c1.491-5.5654,3.0159-24.2843,3.3848-41.5989 c0.3711-17.3141,1.5515-26.9271,2.623-21.3617c3.0325,15.7479,10.3174,11.8984,10.3174-5.4524 c0-8.5645,4.2446-26.9177,9.4336-40.7853c9.7661-26.1021,9.0217-34.3108-2.2607-24.9475 c-5.5095,4.5724-7.0366,2.085-9.7234-15.8302c-2.6843-17.902-1.8479-22.245,5.3032-27.5321 c4.6694-3.4525,13.2004-5.3975,18.9592-4.3226c7.5627,1.412,11.5415-0.7,14.3303-7.6077c2.1245-5.2592,3.99-7.0323,4.147-3.9404 c0.157,3.0918,3.3376,5.6215,7.0696,5.6215c5.5371,0,6.2781-4.3419,4.0273-23.6102c-1.8896-16.1738-0.3438-31.8959,4.9077-49.9187 c10.0662-34.543,16.5779-27.991,19.324,19.4408c2.7019,46.6671-5.1714,75.4871-40.5713,148.5289 c-14.9849,30.9181-31.9875,66.8396-37.7847,79.8251h0.001C3318.4915,1835.3442,3310.8794,1842.9585,3315.7642,1824.7321z"/> <path d="M90.9741,1467.4915c-16.4275-2.2035-21.2123-0.6829-36.8624,11.7118c-10.8345,8.5811-22.7626,24.3442-30.0046,39.6539 c-11.2979,23.8798-11.882,28.2716-9.719,72.8888c1.8775,38.7207,4.9451,54.52,16.6295,85.6616 c7.8811,21.0015,16.3242,40.59,18.7639,43.5292c7.9052,9.5247,56.2829,106.6346,62.3501,125.157 c3.24,9.8936,8.7462,24.8322,12.2355,33.1963c10.3328,24.7675,13.7682,10.48,10.1483-42.1907 c-1.8687-27.2083-2.0312-58.5754-0.3601-69.7064c2.8766-19.1597,1.6162-30.755-7.3288-67.4259 c-2.107-8.6396-2.5242-25.8412-0.9256-38.226c5.0824-39.3921-12.0225-69.7383-39.3119-69.7383 c-11.2693,0-14.943-1.9412-14.8991-7.87c0.0307-4.3281-3.2894-22.1791-7.3782-39.6677 c-6.4757-27.688-6.6206-33.5005-1.1221-44.9718c5.1889-10.8263,9.0976-13.1742,21.9326-13.1742 c19.5906,0,22.5265,9.9694,8.5157,28.9187c-8.5266,11.5339-9.2678,15.3186-4.8826,24.9442 c6.7183,14.7433,28.103,15.525,41.1653,1.5043C152.5611,1517.3843,129.0519,1472.5991,90.9741,1467.4915z M70.0253,1616.7374 c3.7089-3.71,8.2181-6.7458,10.0177-6.7458c6.8117,0,14.8728,32.5585,11.9369,48.2097 c-2.7328,14.5686-2.1805,15.7533,6.3165,13.531c8.1566-2.1333,9.3194-0.3953,9.3776,14.0082 c0.0362,9.0443,3.0128,24.902,6.6151,35.2396c4.1085,11.7898,6.0727,31.4534,5.2723,52.7507l0.0022,0.0006 c-0.7016,18.6749-2.3946,35.0717-3.7605,36.438c-4.1513,4.1509-13.9088-24.1168-10.9696-31.7766 c3.2214-8.3966-5.448-45.9705-11.4647-49.6892c-2.2771-1.4076-6.8325-0.326-10.122,2.4045 c-4.7574,3.9481-9.4094-3.0183-22.7428-34.054c-26.0125-60.5499-30.3714-79.3424-28.6388-123.488 c1.4185-36.1477,4.686-49.6227,10.604-43.7053c6.8182,6.8176,15.9488,57.45,13.4367,74.5093 C52.8951,1624.8171,57.7195,1629.0431,70.0253,1616.7374z M123.4568,1524.2064h-0.0022 c-3.598,11.3357-21.7536,13.1423-19.55,1.9449c1.6788-8.5282,15.3844-18.4065,19.6378-14.1536 C125.1256,1513.5793,125.0861,1519.073,123.4568,1524.2064z"/> <path d="M3324.5137,1443.8198c15.7566,9.6069,32.4023,11.4126,36.9775,4.0096c1.6184-2.618,8.821-3.6298,16.0059-2.2485 c7.1851,1.3812,19.2283,3.7056,26.7634,5.1636l13.7002,2.6516l-3.0325-22.8593c-2.0696-15.5985-1.2593-24.9958,2.5496-29.5852 c13.4036-16.1519-4.9221-49.917-32.832-60.4913c-50.1123-18.9873-95.3938,13.4026-86.3247,61.7468 C3302.6414,1425.2349,3308.0027,1433.7516,3324.5137,1443.8198z M3330.4348,1360.7954c9.853-3.7814,10.0649-3.6013,7.4626,6.3483 c-2.7405,10.4788,1.7886,11.557,11.8347,2.8185c3.9055-3.3971,14.5303-7.5067,23.6125-9.1327 c13.8264-2.4749,17.6375-1.3506,23.4224,6.9093c8.0371,11.4746,5.8345,17.3937-6.4724,17.3937 c-11.2966,0-11.1672,9.8903,0.2659,20.2373c20.561,18.6069,4.2324,37.3773-18.1316,20.8429 c-16.1277-11.9237-20.6567-12.0396-23.6465-0.6056h-0.001c-2.8975,11.0793-8.5859,11.4341-17.9241,1.1161 C3312.5273,1406.4661,3312.2781,1367.7629,3330.4348,1360.7954z"/> <path d="M90.2165,1438.9285c34.5721-9.915,51.6166-35.3621,47.5937-71.0547c-2.8151-24.9788-18.0952-41.022-43.4962-45.6667 c-37.6925-6.8923-66.1358,7.7772-75.7363,39.061c-4.1524,13.536-3.845,17.2679,1.7721,21.3743 c5.6917,4.1622,5.9992,8.5662,1.8819,26.938c-2.7053,12.0791-3.3224,23.5192-1.368,25.4224 c1.9543,1.9033,13.3752,1.1908,25.3779-1.5826c18.8429-4.3534,22.3827-4.0476,25.9005,2.241h-0.0044 C75.3701,1441.434,79.1184,1442.1115,90.2165,1438.9285z M69.6805,1407.1012c-11.5526,10.5491-27.8922,15.7863-31.4232,10.0714 c-2.7998-4.53,2.5428-19.5433,12.0093-33.743c3.509-5.2635,3.9372-9.1053,1.1353-10.1918 c-19.1855-7.4374-18.5026-17.8552,1.9587-29.9425c17.1653-10.1395,37.3411-9.6543,50.3847,1.2126l10.6171,8.8445l-10.6358,0.1499 c-10.2669,0.1443-10.3833,0.5352-3.3729,11.2347c3.9943,6.0963,7.2629,14.7981,7.2629,19.3375s2.0356,10.2883,4.5224,12.7751 c3.0303,3.0314,1.4164,7.8552-4.8979,14.6323c-11.03,11.8396-19.2777,10.6423-21.299-3.0918 C84.1833,1396.4325,81.5899,1396.2266,69.6805,1407.1012z"/> <path d="M3402.2427,1209.5748c-15.5952,5.9294-34.1682,6.0206-34.1682,0.1675c0-2.4738-7.3967-4.4972-16.4363-4.4972 c-13.3542,0-19.6794,3.4086-33.7288,18.1776c-15.3362,16.1222-17.2927,20.7258-17.2927,40.6986 c0,34.9789,13.1338,53.2629,42.7234,59.4751l0.001-0.0005c11.7427,2.4659,42.7651-1.5229,53.0825-6.8248 c18.196-9.3501,33.2512-49.7688,20.1626-54.1321c-4.2688-1.4224-4.2458-7.0619,0.1033-25.9038 C3423.0574,1209.1461,3419.7461,1202.9197,3402.2427,1209.5748z M3390.2158,1297.0377 c-15.8818,13.3636-42.114,15.6863-56.1348,4.9703c-8.5398-6.5267-8.5068-6.7343,1.5371-9.5576 c9.3667-2.6328,9.7124-3.7318,3.9417-12.5391c-3.4795-5.3096-7.7449-18.0574-9.4807-28.3297 c-2.6956-15.9575-1.8401-19.3793,5.8816-23.5114c12.3015-6.5839,12.7581-6.401,15.9719,6.4065 c3.3882,13.4965,9.8352,14.3068,19.9189,2.5033c4.1074-4.8068,11.5142-9.36,16.4614-10.1187 c13.2039-2.0247,14.5566,16.9995,2.1475,30.2083c-10.8003,11.4961-8.7144,20.1304,4.8628,20.1304 C3407.7915,1277.2001,3406.1326,1283.6439,3390.2158,1297.0377z"/> <path d="M102.1841,1194.2601c-13.2379-5.5314-17.0445-5.6066-24.3601-0.4825c-6.7996,4.7623-13.7693,5.0654-32.2895,1.4032 c-12.9887-2.5686-24.7125-3.5754-26.0498-2.2382c-1.3395,1.3379,0.1054,10.9048,3.2082,21.2595 c4.3676,14.5813,4.4357,20.7506,0.3096,27.3597c-9.7102,15.5469-6.3242,32.9329,9.2864,47.6952 c8.0392,7.6017,17.6506,15.0304,21.3616,16.5071h0.0022c14.4643,5.7588,57.9825,0.2465,67.9101-8.6018 C155.374,1267.0287,145.0424,1212.1671,102.1841,1194.2601z M115.4275,1272.9032h0.0033 c-12.0093,17.7247-25.3669,24.7911-16.8776,8.9291c6.9698-13.0238,3.3323-15.918-9.6564-7.6818 c-5.7796,3.6649-16.8886,7.9913-24.6862,9.6152c-11.5153,2.3962-15.4942,1.0737-21.175-7.0378 c-8.1182-11.5898-5.9575-17.5166,6.3857-17.5166c11.1925,0,11.098-6.8281-0.2657-19.0251 c-4.9473-5.3097-8.9944-14.5511-8.9944-20.5366c0-9.5482,1.4712-10.5128,12.0115-7.8673 c6.6052,1.658,17.2311,7.1405,23.6091,12.1829l11.5976,9.1689l1.4493-11.9633c1.7907-14.7854,12.2937-13.8627,23.4916,2.0631 C125.6625,1242.2118,126.5563,1256.4796,115.4275,1272.9032z"/> <path d="M3367.9121,883.6965c-19.1824-37.1017-39.3328-82.1296-44.7786-100.0623c-5.6074-18.4641-12.4124-32.6046-15.6909-32.6046 c-5.6907,0-5.7695,16.6646-0.3821,80.9301c0.9321,11.12-0.1658,31.7707-2.4395,45.8903 c-3.4739,21.573-2.6362,29.9992,5.2449,52.7733c5.158,14.9057,8.2937,28.8568,6.9675,31.0027 c-1.3264,2.1459-2.7834,16.2924-3.2378,31.4369c-0.6753,22.5172,1.1396,30.4235,9.9617,43.3765 c9.0139,13.2357,13.4814,15.8434,27.1794,15.8708c15.5535,0.0291,16.5022,0.8932,18.5476,16.8951 c1.1858,9.2754,4.8069,28.2869,8.0469,42.2478c5.2813,22.7549,5.0791,26.6241-1.9597,37.3663 c-6.2385,9.5226-10.7874,11.6975-22.1533,10.5936c-18.0864-1.7562-20.5469-12.1866-7.1499-30.3071 c8.5266-11.5345,9.2678-15.3186,4.8826-24.9442c-3.9558-8.6815-8.542-11.3462-19.5281-11.3462 c-19.3787,0-30.8062,11.2616-30.8062,30.3593c0,18.6766,10.4021,37.4905,26.4111,47.7672h-0.001 c13.9504,8.9548,40.3296,7.2739,56.9734-3.632c30.96-20.2845,48.168-73.11,41.8503-128.4607 C3420.7485,994.1432,3409.6516,964.4273,3367.9121,883.6965z M3331.4021,1117.7839c-0.8542,4.4082-4.2766,8.9219-7.6045,10.0297 c-3.8701,1.2891-5.4907-0.8734-4.4971-6.0002c0.8542-4.4082,4.2764-8.9219,7.6042-10.0303 C3330.7751,1110.4946,3332.3958,1112.6565,3331.4021,1117.7839z M3400.9285,1115.7208c-4.168,4.1722-6.0344,2.4578-8.3215-7.6395 c-1.6216-7.1597-4.9451-20.9685-7.3848-30.6864c-2.4395-9.7179-3.1248-26.4133-1.5217-37.1018 c2.2881-15.2581,1.5239-19.4325-3.5574-19.4325c-3.5583,0-8.9888,3.0358-12.0686,6.7457c-3.0796,3.71-7.2969,6.7458-9.3721,6.7458 c-5.2756,0-13.0654-31.0153-11.8643-47.2347c0.6323-8.5299-0.9949-13.0881-4.4314-12.4166 c-3.0994,0.6049-6.6238-6.1507-8.2104-15.7402c-1.5293-9.2403-4.9956-22.6056-7.7031-29.6994 c-5.4502-14.2832-7.4683-88.0195-2.4924-91.0932c5.8115-3.5897,11.814,14.069,11.6833,34.3838 c-0.1394,22.1609,7.0928,44.8735,14.2898,44.8735c2.5352,0,4.6091-2.0235,4.6091-4.4971c0-14.4567,10.2615,1.5656,29.5215,46.0961 c21.8008,50.4056,21.8821,50.78,22.0391,100.9556C3406.2468,1093.2185,3404.4736,1112.1711,3400.9285,1115.7208z"/> <path d="M134.0695,734.9623c-7.0258-4.3413-9.4709,0.3986-13.4597,26.0938c-2.2629,14.5746-14.2898,44.4844-31.231,77.6686 c-15.1527,29.6813-35.4581,69.5372-45.1245,88.569c-22.7494,44.7961-31.3683,78.2753-31.6384,122.8639 c-0.303,50.5532,15.4437,89.3755,43.09,106.2345c34.9289,21.3,83.3911-1.6404,83.3911-39.475 c0-20.3203-3.856-28.0361-17.5484-35.1173c-8.8978-4.6003-14.2294-4.9446-20.817-1.3417 c-18.1062,9.9023-20.3274,23.5208-6.4449,39.5266c16.6525,19.2003,2.3123,34.4541-20.7742,22.0989 c-14.225-7.6121-17.3102-26.1794-9.0866-54.6514c3.7879-13.1166,7.9272-29.0768,9.1964-35.4663 c1.8687-9.4077,4.8826-11.6179,15.8433-11.6179c29.0813,0,45.4615-33.1173,37.0633-74.9359 c-4.9199-24.5007-3.3817-40.9413,4.8123-51.408C137.4501,906.2,140.0039,738.6299,134.0695,734.9623z M108.965,1097.3127 c7.5209,0,16.6394,9.1184,16.6394,16.6393c0,7.3354-9.9419,7.5967-17.0895,0.4502 C101.3683,1107.2546,101.6296,1097.3127,108.965,1097.3127z M115.4099,874.4792c-3.9581-1.5195-7.4704,7.1262-11.4746,28.2485 c-3.1731,16.7409-7.69,32.3603-10.0352,34.7099c-5.5424,5.543-5.5358,20.4624,0,20.4624c2.3507,0,6.0914-3.2477,8.3125-7.2168 c2.9447-5.2635,4.8211-0.6994,6.9324,16.8644c3.3279,27.6858-3.6682,37.1852-25.1396,34.1395 c-15.133-2.147-17.14,8.7034-2.6043,14.08c6.4394,2.3826,7.9777,4.7157,4.5169,6.8545c-2.9952,1.8517-9.9035-1.7842-16.1058-8.4761 c-13.3071-14.3578-17.7077-9.024-13.8978,16.8469c1.7282,11.7382,0.1274,29.3289-4.1546,45.6394h0.0088 c-3.8318,14.5966-7.9535,27.5255-9.1591,28.731c-5.1977,5.1967-11.4384-24.6758-11.4384-54.7468 c0-42.9697,7.6856-67.7169,46.9525-151.1793c18.037-38.3386,34.952-74.7657,37.5882-80.9493 c3.9735-9.3205,4.8463-5.3064,5.0978,23.4686C121.0413,868.2407,119.7292,876.1371,115.4099,874.4792z"/> <path d="M3409.2595,693.8727c-16.2134,0.9283-16.4724,0.6742-17.7998-17.4354c-1.7327-23.6459,8.2764-34.1406,21.311-22.3448 c8.1138,7.3425,8.7913,7.292,13.2214-0.9865c6.4922-12.1301-1.1846-37.4932-15.7588-52.0679 c-24.8289-24.8289-62.887-17.6813-87.615,16.4549c-17.7119,24.4518-21.8555,42.149-16.615,70.9783 c6.9026,37.973,17.6877,54.0249,46.3398,68.9647h-0.0012c16.0037,8.3444,20.1365,8.6013,36.7988,2.2881 c18.406-6.9742,32.3125-21.5994,37.1313-39.0523C3432.3428,698.6878,3428.5835,692.7661,3409.2595,693.8727z M3398.5535,735.0347 l0.0034-0.0005c-20.5977,14.427-53.5095,4.2112-66.8716-20.7567c-4.2808-7.998-3.7505-8.7204,4.4785-6.1084 c8.7617,2.7805,9.1624,1.7111,6.5371-17.4442c-3.1138-22.7154,3.5881-44.6458,17.9131-58.6204 c6.771-6.6063,7.4836-9.2375,2.915-10.7609c-6.0059-2.0016-28.3018,19.4808-32.5037,31.3161 c-1.2065,3.3976-3.623,4.8557-5.3711,3.2406c-5.8081-5.3684,15.3186-39.4931,28.7507-46.4398 c17.8252-9.2178,28.1943-8.609,42.2952,2.4824c13.8252,10.8752,15.5327,22.1599,3.353,22.1599 c-17.3464,0-28.2314,14.4347-28.2314,37.4388c0,26.2288,10.1626,43.5104,25.5876,43.5104 C3411.4292,715.0521,3412.033,725.5924,3398.5535,735.0347z"/> <path d="M50.5675,576.2302c-20.6084,7.8437-32.8659,24.2953-36.107,48.466l-2.5538,19.0466l15.9883-2.9996 c13.2566-2.4869,16.8227-1.4406,20.8719,6.1276c7.1388,13.34,5.9882,25.3142-3.2389,33.6641 c-7.354,6.6541-9.0646,6.6942-18.0239,0.4183c-8.9504-6.2693-10.1626-6.2473-12.6483,0.2295 c-6.9214,18.0403,12.1125,57.5938,31.4803,65.415l0.0022-0.0005c26.1553,10.5623,51.9438-1.1693,75.8592-34.5073 c25.7765-35.9336,20.873-84.1926-11.882-116.9476C87.8065,572.6333,72.6362,567.8309,50.5675,576.2302z M101.914,712.1985h-0.0022 c-17.4848,19.785-36.2168,24.3481-53.885,13.1238c-14.1525-8.9905-16.6822-23.7617-4.069-23.7617 c23.3006,0,37.0699-51.6035,18.9022-70.8307c-5.257-5.5654-13.4103-10.1187-18.1139-10.1187 c-12.903,0-14.9869-7.589-4.8661-17.7104c13.7704-13.771,29.4491-15.9493,45.8162-6.3654 C125.7515,619.9921,133.6457,676.2925,101.914,712.1985z"/> <path d="M98.9605,639.2324c6.9083,12.9075,1.0244,40.4697-11.8326,55.433c-6.0453,7.0351-10.9915,14.5001-10.9915,16.5889 c0,12.9426,28.0986-13.4992,35.6865-33.5828c5.9366-15.7149-2.1146-52.563-11.4856-52.563 C92.8581,625.1085,92.633,627.4098,98.9605,639.2324z"/> <path d="M3374.5073,175.2864c-35.6919-11.7793-69.3923,10.279-69.3923,45.4203c0,33.4335,34.0527,48.3941,49.0508,21.5499 c6.1704-11.0453,5.8181-12.7773-5.292-25.9807c-17.4277-20.7111-7.4617-36.6763,17.0718-27.3493 c17.4871,6.6486,22.1028,24.5281,13.9231,53.9212c-3.7856,13.6035-8.0271,30.3-9.4248,37.1017 c-2.0322,9.8881-5.0273,12.3672-14.9463,12.3672c-30.4053,0-43.8201,26.5747-39.2009,77.6588 c2.0771,22.9646,1.0923,37.8083-3.3489,50.511c-4.3379,12.4068-6.5239,42.7573-7.0466,97.8137h0.0012 c-0.5962,62.7827,0.4875,79.825,5.0735,79.825c3.5046,0,8.0371-10.6797,11.3594-26.7635 c4.4961-21.7646,57.6169-135.3119,72.6885-155.3724c10.7466-14.3051,32.5222-87.3404,34.7258-116.4716 C3434.3762,238.3392,3411.8135,187.5982,3374.5073,175.2864z M3341.0916,233.0828c0,6.849-10.189,6.7716-17.0896-0.1284 c-6.165-6.1661-7.3057-21.5867-1.5964-21.5867C3327.8074,211.3676,3341.0916,226.8058,3341.0916,233.0828z M3401.979,232.4657 c5.8564-1.1913,9.9036,20.4992,10.5349,56.4602c0.6753,38.4885-8.6387,66.3647-51.7034,154.7482 c-18.2654,37.4883-33.2107,70.3739-33.2107,73.0792h0.0022c0,2.7064-2.2607,4.9199-5.022,4.9199 c-3.0127,0-3.9373-4.0476-2.3101-10.1187c1.491-5.5655,2.8987-22.2608,3.1279-37.1018 c0.2285-14.8409,1.4373-24.4534,2.6846-21.3616c4.438,10.9981,10.5129,5.3816,10.5129-9.719c0-8.4366,4.3433-26.691,9.6531-40.5647 c9.1436-23.894,8.24-40.7854-1.2725-23.7881c-6.9612,12.4386-12.8779,4.5795-12.8779-17.1038 c0-21.6515,9.248-30.8896,28.2842-28.2523c6.4517,0.8932,9.9419-0.992,9.9419-5.369c0-4.0262-5.0166-7.3222-12.4441-8.1764 c-6.8435-0.7867-11.2781-3.3163-9.853-5.6215c4.3972-7.1158,17.6638-4.641,25.7502,4.8035 c12.6284,14.7492,16.064,10.493,13.6133-16.8644C3385.03,276.0849,3393.7773,234.1335,3401.979,232.4657z"/> <path d="M84.1635,158.8139c-46.5606,6.0941-75.3948,61.5415-69.108,132.898c3.9614,44.9713,14.6115,74.2634,56.6276,155.7578 c19.1273,37.1018,40.355,83.1024,47.1699,102.2231l0.0011,0.0005c6.8149,19.1213,14.0811,33.7217,16.1453,32.4459 c5.6182-3.4728,1.7282-168.3864-4.3259-183.4084c-2.8305-7.0224-4.6212-29.6072-3.9811-50.214 c1.4043-45.2266-7.2366-62.0356-33.0427-64.2765c-15.0451-1.3065-15.4657-1.9164-23.227-33.7289 c-9.6707-39.6441-9.8222-52.2117-0.7752-65.1268c7.824-11.1683,25.2011-13.2182,32.9471-3.8845 c3.8714,4.6652,2.9381,8.8209-3.9471,17.5737c-12.4342,15.8082-11.6119,32.8719,2.0147,41.8004 c10.212,6.6914,12.0478,6.6277,24.7093-0.8515C163.6811,217.3931,130.8558,152.7033,84.1635,158.8139z M67.8557,310.8359 c12.9755-20.7764,26.2705-3.8263,26.2705,33.4912c0,10.9696,1.9313,19.9447,4.293,19.9447c5.9201,0,10.7533-28.4928,6.8951-40.647 c-2.2837-7.197-1.648-9.0163,2.298-6.5772c3.935,2.4325,4.6059,12.4315,2.4056,35.9088 c-2.3298,24.8591-1.3812,36.5297,4.0207,49.458c4.7234,11.3044,7.0708,30.9214,7.0708,59.0958 c0,23.1957-1.6842,42.1743-3.7429,42.1743c-5.269,0-14.1712-30.9412-11.1606-38.7871 c3.9296-10.2405-7.9184-46.6594-15.1791-46.6594c-3.5354,0-5.1757,2.0235-3.6474,4.4972c1.5283,2.4731,0.6774,4.4972-1.8918,4.4972 c-11.6371,0-48.662-93.3407-52.07-131.2758c-2.8569-31.7976,2.2684-73.346,9.0471-73.346c7.7273,0,19.8333,59.7348,15.3054,75.5249 C52.726,315.7207,59.4872,324.2342,67.8557,310.8359z M124.7963,212.4919c-0.9234,6.5026-5.0527,10.6319-11.5559,11.5559 c-12.2465,1.7392-13.0315-4.1535-1.8951-14.2316c11.199-10.1351,15.1571-9.3474,13.4498,2.6757H124.7963z"/> <path d="M3226.4858,33.9572c-20.4209-9.6603-30.6614-11.4713-64.8635-11.4713c-52.228,0-86.5564,10.9838-168.0974,53.7867 c-63.1121,33.1289-111.6072,54.1457-124.9385,54.1457c-8.7639,0-19.0527,10.6264-14.6006,15.0792l0,0 c1.6545,1.6546,6.7075,1.8347,11.2275,0.3996c4.5203-1.435,42.0833-2.6669,83.4736-2.7383 c54.4998-0.0944,78.5227-1.8199,87.1021-6.2567c8.6267-4.4604,22.1116-5.4024,49.592-3.4629 c36.343,2.5642,38.2854,2.2091,52.2874-9.573c11.1584-9.3891,14.5425-15.8066,14.5425-27.5765 c0-13.149,1.5261-15.3405,10.6775-15.3405c5.8728,0,19.281-3.0358,29.7971-6.7458c27.7693-9.7981,46.8525-8.5651,61.4233,3.9685 c11.1958,9.6306,11.9138,11.9056,7.0928,22.4859c-6.5195,14.309-13.9583,14.8206-30.1606,2.0762 c-17.321-13.6255-35.5239-7.3711-37.4968,12.8838c-2.9128,29.9212,28.7903,42.2083,58.0637,22.5024 C3294.0488,109.5508,3282.1702,60.3002,3226.4858,33.9572z M3192.6855,59.1617c-21.3694,6.3231-35.8853,7.8811-53.9663,5.7928 l-24.7344-2.8568l10.1187,10.84c5.5654,5.9618,10.1187,13.1611,10.1187,15.9982c0,6.804-34.3459,15.884-47.5488,12.5704 c-10.3425-2.5955-19.0942,3.6199-11.6096,8.2456c6.042,3.7341,28.3708,4.2644,43.4182,1.0321 c13.3499-2.8689,13.3323-2.8256-1.6897,4.114c-11.927,5.5095-19.5632,6.0788-35.6174,2.6548 c-16.3066-3.4783-25.9609-2.6702-47.7793,3.9976h0.0012c-26.5405,8.1111-101.5469,10.9262-101.5469,3.8115 c0-5.1477,37.8945-18.4241,39.4307-13.8149c1.9038,5.7126,42.5837-4.5609,44.8379-11.3237 c0.9211-2.7652-1.9785-5.9036-6.4438-6.9747c-9.1448-2.1942,52.4653-32.7671,92.637-45.9699 c28.2654-9.2897,85.7847-10.5084,106.114-2.2486l13.4917,5.4815L3192.6855,59.1617z M3218.5432,129.9144 c-9.3425-5.2712-10.5129-17.4848-1.6743-17.4848c3.408,0,8.7856,3.1215,11.9521,6.9363h-0.001 C3236.343,128.431,3229.0967,135.8696,3218.5432,129.9144z"/> <path d="M3332.1606,140.8016L3332.1606,140.8016c11.2102,5.8164,21.667,7.4902,36.6956,5.874 c26.4124-2.8404,36.5847-9.1755,48.3491-30.1068c11.0815-19.7191,11.9556-31.1224,2.3838-31.1224 c-5.5745,0-6.3474-3.3389-3.9055-16.8644c1.6743-9.2754,4.989-20.6233,7.3662-25.2176 c6.9443-13.4202-1.6064-16.5954-26.7976-9.9507c-21.9326,5.7862-23.5247,5.6407-26.0708-2.3825 c-3.4419-10.8422-11.5613-10.7873-33.147,0.2245c-20.5315,10.4749-31.948,31.7498-31.8535,59.3675 C3305.2688,116.4184,3313.0454,130.8833,3332.1606,140.8016z M3334.4565,108.0224c9.8772,8.1973,12.9624,2.4638,5.2834-9.8189 c-11.4988-18.3917-13.3677-35.4241-4.9133-44.7665c9.9231-10.9652,19.7585-10.8334,19.7585,0.2635 c0,11.7041,9.1611,16.7546,15.2976,8.4328c6.8887-9.3419,24.481-18.1221,29.7664-14.8557 c7.208,4.4555,5.033,18.1677-4.8826,30.7732c-10.2832,13.0732-8.3333,20.8873,5.2131,20.8873c7.4792,0,8.1282,1.4185,4.0986,8.9477 c-2.634,4.9215-10.6995,12.0044-17.9241,15.7401l0.0012-0.0005c-24.0911,12.4584-58.5535,4.0701-58.5535-14.2502 C3327.6021,103.5763,3328.812,103.3375,3334.4565,108.0224z"/> <path d="M1246.2902,136.2572L1246.2902,136.2572c25.4042,12.3047,57.5784-0.897,57.5784-23.6256 c0-23.3862-24.505-30.8089-43.3293-13.1248c-19.6356,18.4477-36.0751-4.899-18.1337-25.7556 c11.7228-13.6277,28.1503-14.9397,58.2472-4.6536c11.8358,4.0448,26.7437,7.3546,33.1294,7.3546 c9.5927,0,11.1792,1.6464,9.1316,9.4769c-3.8516,14.7295,4.1338,29.84,20.1472,38.1201 c11.7755,6.0903,21.7372,7.006,51.3938,4.7267c26.6207-2.0466,40.9686-1.1056,51.9196,3.4047 c13.8066,5.6863,102.4833,10.083,160.1671,7.9414c27.7495-1.0299,25.7589-12.4178-2.6471-15.1472 c-15.9125-1.5294-44.6545-13.6387-106.9431-45.0591c-101.3931-51.145-137.5309-63.1478-189.6536-62.9875 c-31.8756,0.0977-41.0072,1.9774-62.9606,12.9547c-29.5073,14.7553-45.9149,35.8062-45.9149,58.9075 C1218.4221,108.4984,1230.1217,128.4272,1246.2902,136.2572z M1267.5507,115.0712c13.4137-14.3161,19.4095-14.8354,17.5178-1.5174 c-1.064,7.4924-4.9386,10.5123-14.9288,11.636l-13.4916,1.5168L1267.5507,115.0712z M1319.6075,33.6169 c38.5511-4.9089,81.5686,7.505,163.7542,47.2561c41.0281,19.8443,77.0077,36.0757,79.9535,36.0669 c2.9458-0.0071,6.5206,1.8709,7.9436,4.1733h-0.0011c2.9304,4.742-3.9307,10.4294-7.8525,6.5075 c-1.4042-1.4043-19.394-2.601-39.9772-2.6614c-20.5844-0.0593-33.3787-1.076-28.4314-2.2585 c18.7024-4.4708,15.7479-9.4215-7.4506-12.4836c-13.2161-1.7446-32.631-6.9061-43.1427-11.4702 c-19.1724-8.3235-26.5527-3.9921-11.7008,6.8676c6.2056,4.5378,3.1731,5.9179-18.6244,8.4794 c-14.3195,1.6832-26.9139,2.1822-27.9878,1.1084c-1.0737-1.0732-2.7097-10.7374-3.6353-21.4753s-1.7831-20.2779-1.9093-21.1991 c-0.785-5.8136-13.7178,11.1244-13.7178,17.9657c0,4.6443-2.0236,8.4443-4.4972,8.4443c-7.9172,0-4.8112-17.8087,4.4972-25.7781 c13.6947-11.7266,10.8389-15.7989-8.7572-12.4886c-18.2335,3.0808-81.1864-9.1865-81.1864-15.8203 C1276.8844,40.7601,1289.4426,37.458,1319.6075,33.6169z"/> <path d="M1698.5601,139.4319c63.5348,19.13,131.6963-37.4438,106.0846-88.0503c-8.2896-16.3808-17.5364-23.2106-45.4352-33.5598 c-8.0392-2.982-14.6158-8.2115-14.6158-11.6217S1742.5316,0,1740.0107,0c-5.1,0-1.166,22.1022,5.1637,29.0066 c6.726,7.3376,4.2963,19.9425-4.7827,24.8015c-22.599,12.095-47.9418-0.8163-36.757-18.7266 c14.1843-22.7132-25.0354-21.5033-51.3301,1.5832c-13.4454,11.8062-15.6434,16.5394-15.6434,33.6893 C1636.6613,100.5948,1661.4484,128.2576,1698.5601,139.4319z M1666.0851,45.9139l12.9348-11.1266l3.1412,11.7458 c5.4205,20.2714,16.7338,27.6704,42.306,27.6704c27.2224,0,38.114-7.2256,38.114-25.2851c0-16.4675,9.6906-16.9446,22.1599-1.0919 c18.8517,23.9648,8.2729,53.286-25.5283,70.7659c-7.7954,4.0306-23.9177,7.3288-35.8281,7.3288 C1668.7618,125.9211,1632.2837,74.9875,1666.0851,45.9139z"/> <path d="M1706.1194,116.6149c7.5571,2.1948,16.4352,3.161,19.729,2.1498s8.4717-1.838,11.5076-1.838 c3.0358,0,9.2996-2.7646,13.9197-6.143c7.4243-5.4293,5.2756-6.0826-18.4949-5.6215c-23.441,0.4545-28.8639-1.1325-42.2236-12.3579 c-9.6071-8.071-15.9927-10.8889-17.106-7.5489C1670.8007,93.2079,1690.4452,112.0651,1706.1194,116.6149z"/> <path d="M1800.9884,139.7036h0.0011c3.6013,5.8268,168.5917,1.6387,184.2045-4.6761c8.8198-3.5672,24.5621-4.4862,45.4615-2.6548 c45.9402,4.0273,73.7183-9.8376,73.7183-36.8075c0.0044-11.6239,1.9653-12.8449,32.6045-20.301 c40.0313-9.7432,52.3994-9.8606,65.5847-0.6258c11.9807,8.3927,11.884,27.386-0.1802,34.9383 c-6.01,3.7632-10.0461,2.5654-18.6726-5.5386c-22.1982-20.8533-50.176,0.1636-36.1992,27.1928 c5.8213,11.2572,8.9966,12.6791,28.3203,12.6791c27.1841,0,43.427-11.7173,49.9807-36.0543 c8.6265-32.0358-12.1653-60.7444-56.8857-78.547c-14.5608-5.7972-28.8286-6.9763-65.209-5.3909 c-25.614,1.1155-53.5503,3.5628-62.0801,5.437c-8.5311,1.8753-48.2372,20.1945-88.2365,40.7113 c-39.9991,20.5168-91.1711,43.7438-113.7152,51.616C1817.1414,129.5542,1799.728,137.6637,1800.9884,139.7036z M2183.519,129.6898 c-4.092,6.6201-7.4988,6.4169-17.3145-1.0348c-8.1665-6.199-10.8796-20.7226-3.8713-20.7226 C2170.4502,107.9324,2186.6702,124.5904,2183.519,129.6898z M2072.8879,112.3912c-6.0881,3.9685-44.5677,6.771-40.1002,2.9205 c1.031-0.8882,11.9928-2.8986,24.3602-4.4664C2072.4971,108.898,2077.4927,109.3888,2072.8879,112.3912z M1926.9744,110.2227 c24.4611-1.1122,44.3745-9.0745,40.0793-16.0245c-1.458-2.3584-8.0918-3.0567-14.7421-1.5514 c-7.1915,1.6272-2.9799-1.9368,10.3943-8.794c76.0052-38.9721,136.9454-53.5078,183.2601-43.7125 c14.2229,3.0078,25.8589,7.0329,25.8589,8.9444s-16.6953,6.9747-37.1018,11.2517c-27.6694,5.7988-40.2056,6.5932-49.3098,3.1231 c-15.2878-5.8262-19.6882,0.1927-7.9229,10.8395c9.8652,8.9274,11.6855,22.3794,3.6968,27.3169 c-3.4387,2.1256-3.9602,1.2171-1.5447-2.6916c2.7744-4.4879,1.0562-5.207-7.175-3.0045 c-5.9521,1.592-19.5918,2.9205-30.3099,2.9568c-13.5739,0.0428-18.9187,1.7677-17.61,5.683 c1.2155,3.6397-6.9763,7.746-23.2357,11.6487h-0.0011c-26.5637,6.3752-121.8029,12.4359-121.8029,7.7509 C1879.5079,118.5171,1904.6663,111.2361,1926.9744,110.2227z"/> <path d="M2316.7788,143.9099c24.0264,0,36.0588-7.9908,36.0588-23.9473c0-24.4381-23.3247-34.235-39.3503-16.5274 c-9.762,10.7862-22.7319,11.7068-26.5022,1.8808c-11.8271-30.8215,25.2866-48.2415,66.283-31.1125 c8.8792,3.71,21.2693,6.7458,27.532,6.7458c9.7168,0,11.3867,2.029,11.3867,13.8374c0,9.4451,4.3765,18.2144,13.7881,27.6259 l13.7891,13.7885l41.7703-2.9359c32.3081-2.2717,45.4517-1.3982,58.022,3.8538c20.9641,8.7594,180.2969,10.1154,177.4292,1.5102 c-0.9685-2.9041-13.7849-7.7493-28.4819-10.767c-16.6987-3.4289-56.2422-20.5179-105.4224-45.5581 c-101.3064-51.5804-129.73-61.161-181.0415-61.0205c-34.2437,0.0944-42.7483,1.7929-65.209,13.0227 c-31.8459,15.9224-46.0667,35.4911-46.0667,63.3943c0,16.0179,2.5737,22.4914,13.1458,33.0635 C2294.4424,141.2968,2300.9751,143.9099,2316.7788,143.9099z M2334.7258,107.9324c6.4758,0,3.564,12.0368-4.7275,19.5401h0.001 c-10.135,9.1711-18.7595,9.6092-18.7595,0.9519C2311.2397,122.1662,2327.553,107.9324,2334.7258,107.9324z M2350.2827,40.305 c51.2883-10.6473,99.4529,2.5126,212.7434,58.1285h0.001l65.1533,31.9848l-47.1646-0.4057 c-38.8958-0.3343-44.4568-1.183-31.7163-4.8414c18.9561-5.4431,11.2122-12.5676-13.7749-12.673 c-8.9734-0.0379-23.5815-3.1044-32.4607-6.8144c-8.8792-3.71-19.751-6.7008-24.1592-6.6459 c-6.7437,0.0845-6.3208,1.4021,2.6614,8.3098l10.6753,8.2099l-25.9268,3.0468c-24.3657,2.8634-30.8611,1.7556-31.791-5.4255 c-0.2131-1.6486-1.9478-6.5399-3.8538-10.868c-1.906-4.3287-2.2356-11.075-0.7324-14.9913 c1.7327-4.5164,0.6753-6.4438-2.8918-5.2696c-3.0942,1.0183-6.2715,6.2468-7.062,11.619 c-1.9829,13.4762-9.8059,12.3283-9.8059-1.4389c0-6.3346,3.9099-13.6464,8.9944-16.8222 c15.1287-9.4473,10.0913-13.8209-12.3672-10.7374c-21.2322,2.915-82.0735-8.856-82.0735-15.879 C2324.7314,47.0415,2336.229,43.2228,2350.2827,40.305z"/> <path d="M2723.6028,130.5116h-0.0012c17.9504,11.3835,25.5977,13.3982,50.8469,13.3982c25.0583,0,32.9407-2.0422,50.2695-13.0227 c27.2554-17.2838,35.2153-29.6028,35.0935-54.3115c-0.1448-29.5078-24.4326-54.0897-53.4424-54.0897 c-13.9438,0-21.8689,6.3275-13.989,11.1979c5.8928,3.6501,5.9026,18.9198,0,22.5683c-9.0701,5.605-32.1279,3.4311-39.2615-3.7023 c-6.7346-6.7326-6.7126-7.9469,0.2791-15.6732c9.417-10.4052,5.7993-14.3908-13.0623-14.3908 c-29.0615,0-55.8579,25.1539-55.813,52.4115C2684.5476,93.7898,2699.6995,115.3523,2723.6028,130.5116z M2713.7739,51.2707 c12.1904-12.1894,20.2-10.9893,20.2,3.027c0,5.0445,6.2332,12.7032,14.616,17.9591c26.7974,16.803,66.3333,2.9238,66.3333-23.2863 c0-10.3273,3.8901-10.6698,16.9885-1.4954c7.6331,5.347,9.9946,11.468,9.9946,25.9049c0,21.8831-14.2402,40.5603-38.7256,50.7909 h-0.001c-30.1409,12.594-66.0898,4.8628-86.7378-18.6541C2698.9714,85.6194,2698.0547,66.99,2713.7739,51.2707z"/> <path d="M2749.7141,116.1758h-0.0012c16.9028,9.3485,60.7119,2.8788,60.7119-8.9653c0-4.6388,0.7644-4.6558-16.8071,0.3832 c-17.7759,5.0983-45.1477-1.6233-55.5759-13.6475c-7.5483-8.704-17.5593-11.4329-17.5593-4.7865 C2720.4824,93.7041,2737.4688,109.4036,2749.7141,116.1758z"/> <path d="M752.8922,134.7991h0.0011c1.6931,2.7383,6.591,3.8648,10.884,2.5017c11.1485-3.5381,124.0349-4.3484,129.5663-0.9294 c2.5385,1.569,16.5142-0.2822,31.0565-4.114c14.5423-3.8318,38.5829-6.5251,53.4238-5.9854 c14.8409,0.5396,32.6397,0.6813,39.5546,0.3151c16.9237-0.8965,34.6489-19.2871,34.6489-35.9506 c0-12.6999,1.2341-13.4872,32.0326-20.4421c51.0753-11.5345,69.098-9.3836,76.1183,9.0806 c8.3861,22.0566-7.5637,34.145-25.9586,19.6752c-20.9521-16.4802-41.7175-9.45-41.7175,14.124 c0,26.5648,41.9064,35.9056,66.866,14.9035c17.7153-14.9063,23.1995-44.5678,11.8062-63.8543 c-10.0309-16.9808-44.1396-39.6512-69.6779-46.3124c-26.657-6.9527-84.2211-2.0696-119.1753,10.1099 c-14.8409,5.1713-58.3514,25.1583-96.6895,44.4163c-38.338,19.258-83.872,39.5425-101.1866,45.0772 C747.5694,129.2023,748.9594,128.436,752.8922,134.7991z M1124.1404,125.9211c-10.4348,0-20.8038-15.8159-13.3784-20.4053 c4.9441-3.055,22.2147,9.8546,22.2147,16.6053C1132.9767,124.2111,1128.9999,125.9211,1124.1404,125.9211z M1020.5471,107.894 c-6.0881,3.9685-44.5678,6.771-40.1003,2.9205c1.031-0.8882,11.9929-2.8986,24.3601-4.4664 C1020.1563,104.4009,1025.1519,104.8916,1020.5471,107.894z M869.9925,105.3072c12.4012,3.1127,43.6466-7.1937,46.3442-15.2861 c1.3801-4.1376-0.9299-5.1774-7.6165-3.4289c-10.1944,2.6664-13.4707-3.0913-3.9745-6.9862 c93.2024-38.2266,109.004-43.4331,139.382-45.9276c35.2462-2.8942,71.4257,1.7446,74.007,9.4884 c2.2914,6.8742-57.0865,17.1697-78.906,13.6804c-21.1871-3.3883-26.6164,1.6085-14.0779,12.9552 c4.8881,4.4242,8.8879,10.5128,8.8879,13.5305c0,6.2501-19.9135,11.1079-45.5341,11.1079c-11.098,0-17.4266,2.0762-17.4266,5.717 c0,3.3476-11.6481,8.3076-28.1074,11.9687l0,0c-29.5578,6.5745-115.8025,11.8754-115.8025,7.118 C827.1682,113.6247,860.2427,102.8599,869.9925,105.3072z"/> <path d="M194.4806,128.3333h-0.0011c17.6714,7.6856,20.6875,7.8152,38.3721,1.6508c10.1889-3.5524,15.2285-8.8994,18.0129-19.113 c7.3453-26.943-21.1728-40.551-42.6662-20.3587c-14.1459,13.2901-25.1155,8.2708-23.2918-10.6567 c1.9016-19.7312,24.1833-31.8997,45.5867-24.8948c7.8591,2.5719,24.9135,6.8709,37.8989,9.5532 c22.7011,4.6899,23.6102,5.4469,23.6102,19.651c0,16.8578,11.8304,31.0444,29.6094,35.5064 c6.5174,1.6359,26.0828,1.7809,43.4797,0.3228c21.5362-1.8061,36.174-0.7532,45.8678,3.2971 c20.1242,8.4081,182.9726,11.7008,185.6834,3.7539c1.188-3.4799-2.2398-5.6215-8.9955-5.6215 c-19.3952,0-57.9902-15.912-145.1022-59.8226C340.9542,10.391,302.1221-0.359,251.4497,8.6968 c-51.0523,9.1234-79.2629,31.4012-83.9423,66.2884C164.3882,98.2386,175.4115,120.0394,194.4806,128.3333z M232.284,96.1833 c1.7523,1.7523,1.0178,6.6305-1.6337,10.8406c-5.2668,8.3636-19.5961,13.0672-19.5961,6.4323 C211.0541,107.0013,228.7244,92.6237,232.284,96.1833z M241.4101,29.1323c9.2754-1.5157,22.251-3.7522,28.8342-4.9709 c14.4511-2.6746,62.1635,5.1938,86.9682,14.3425c30.1057,11.1035,163.7486,75.9449,163.955,79.5472h-0.0011 c0.1065,1.855-2.3364,3.0018-5.4282,2.5483s-21.8118-2.1064-41.5989-3.6726c-19.7872-1.5662-31.4243-3.2192-25.8588-3.6726 c15.1407-1.2341,12.2069-9.8189-3.3553-9.8189c-7.41,0-25.7578-4.2512-40.7711-9.4467 c-27.9734-9.6811-39.2812-8.6957-24.4732,2.1322c7.4572,5.4524,5.6336,6.4197-17.5704,9.3183 c-14.2404,1.7798-26.9908,2.1366-28.3336,0.7938c-1.3428-1.3433-2.657-10.6171-2.9184-20.6084 c-0.5533-21.086-8.9219-24.1899-15.6391-5.7993l-4.5169,12.3672l-0.3557-12.3288c-0.2229-7.7339,2.9985-14.4232,8.6397-17.9465 c15.0342-9.3896,10.1318-13.6398-11.9193-10.3333c-21.1925,3.1786-82.5216-8.9131-82.5216-16.2693 C224.5457,33.4297,232.1347,30.648,241.4101,29.1323z"/> <path d="M638.4216,129.9122h-0.0022c21.2837,8.4937,57.1634,5.7675,79.8404-6.0667 c25.1473-13.1232,37.0732-28.4154,40.1705-51.5101c4.2809-31.9222-20.7248-58.8438-54.6568-58.8438 c-10.1812,0-11.1584,1.6063-10.2625,16.8644l0.9904,16.8644h-19.7477c-14.5532,0-21.0586-2.2222-24.7345-8.4487 c-3.7659-6.3785-3.61-8.9488,0.6346-10.4931c3.0918-1.1248,5.6215-4.9122,5.6215-8.4158c0-4.4653-5.5391-6.3714-18.5179-6.3714 c-15.514,0-21.3495,2.8316-35.9775,17.4595c-19.1547,19.1558-21.59,31.4056-11.1902,56.2955 C597.0334,102.6699,618.7925,122.0783,638.4216,129.9122z M612.7176,41.2586c11.5438-10.8455,22.0391-13.0348,18.5201-3.8642 c-1.2484,3.2527,2.7668,11.3478,8.9208,17.9887c21.8085,23.5323,74.5801,12.3832,74.5801-15.7566 c0-11.2753,11.5372-10.2081,19.9826,1.8484c17.6572,25.2083-1.6645,64.0431-37.1523,74.6756h-0.0011 c-24,7.1904-35.871,6.5174-57.3863-3.2549C604.3568,96.6247,590.9651,61.6941,612.7176,41.2586z"/> <path d="M644.3417,104.7857h0.0011c17.0753,8.5102,32.7374,9.3303,51.7374,2.7064c21.4484-7.477,16.9611-12.959-8.172-9.9825 c-25.2845,2.9946-46.4507-3.7676-56.4421-18.0327c-3.5551-5.0758-7.8624-7.8294-9.5718-6.1199 C616.4012,78.85,629.7203,97.4975,644.3417,104.7857z"/> <path d="M111.924,14.4336l-43.7498,1.16c-24.0626,0.6379-43.4215,2.9557-43.0219,5.1505 c0.3997,2.1948,2.0729,11.2034,3.7154,20.0194c2.2069,11.8435,1.1375,17.5638-4.1019,21.9117 c-9.2469,7.6757-8.968,11.5515,2.5406,35.3275c6.2144,12.835,14.5917,22.1401,23.6102,26.2255h0.0022 c8.5244,3.8615,24.1482,5.7483,40.0377,4.8354c36.2179-2.0801,49.0474-14.9419,51.7165-51.8461 c1.8412-25.4449,1.2066-27.4124-14.4116-44.7001L111.924,14.4336z M116.8702,97.8137 c-10.4294,12.5001-13.6145,12.8394-10.5513,1.1243c2.7646-10.571-2.0367-11.2847-14.1723-2.1059 c-10.5293,7.9634-39.089,8.7034-46.5858,1.2066c-8.9241-8.9241-6.1309-17.0895,5.8455-17.0895 c13.5794,0,14.3172-5.919,2.2486-17.9887C41.9135,51.218,41.5336,31.4803,53.0488,31.4803c4.6136,0,13.7002,4.1788,20.1934,9.2864 c12.2201,9.6136,20.8862,8.4492,20.8862-2.8063c0-10.4014,12.051-7.4814,22.1598,5.369 c11.7107,14.8881,11.9863,40.8117,0.5797,54.4844H116.8702z"/> </g> </svg>