<?xml version="1.0" encoding="utf-8"?>
<svg version="1.1" id="Layer_1" xmlns:serif="http://www.serif.com/"
	 xmlns="http://www.w3.org/2000/svg" xmlns:xlink="http://www.w3.org/1999/xlink" x="0px" y="0px" viewBox="0 0 3985.747 5000"
	 enable-background="new 0 0 3985.747 5000" xml:space="preserve">
<g>
	<path d="M3743.2,4819.904c-2.694-1.264-3.397-2.744-3.137-6.605c0.456-6.741-3.456-11.293-6.597-21.941
		c-7.582-25.69-50.631-29.439-64.096-5.58c-5.256,9.312-6.871,10.043-22.119,10.003c-15.489-0.041-14.86-1.712-23.424-21.082
		l-5.113,1.837c-16.465,5.91-16.77,13.032-23.581-2.997c-3.757-8.839-4.029-10.479-2.222-13.373
		c5.202-8.33,4.412-20.663-1.352-21.091c-8.498-0.635-9.682,1.429-8.657,15.072c0.974,12.992-0.45,14.68-13.881,16.44
		c-15.481,2.03-33.159-14.055-18.514-16.844c11.051-2.104,16.96-14.617,9.485-20.087c-13.042-9.548-25.363,15.039-16.36,32.648
		c4.618,9.028,27.616,12.891,37.042,6.219c5.719-4.047,7.521-3.324,10.803,4.333c4.469,10.425,4.278,10.728-8.737,13.867
		c-33.239,8.016,18.933,11.709,0.034,27.063c-12.532,10.178-22.455,20.333-24.427,24.993c-1.132,2.677-2.758,5.299-3.615,5.828
		c-14.838,9.171-20.178,71.823-7.148,83.854c5.874,5.422,6.368,6.484,6.398,13.786c0.041,9.643,1.44,9.755,5.3,16.608
		c8.772,15.569,31.641,30.874,52.96,35.446c41.427,8.882,96.618-18.448,100.803-49.917c0.622-4.684,2.344-9.387,4.161-11.361
		c4.77-5.188,3.284-32.292-2.556-46.624c-22.158-54.373-101.514-57.894-122.893-5.452c-11.443,28.071,5.22,60.017,33.698,64.603
		c6.679,1.075,7.08,2.86,2.608,11.627c-4.295,8.417-6.386,8.707-13.263,1.828c-7.761-7.761-14.563-10.635-19.666-8.31
		c-12.386,5.644,0.268,22.343,16.217,21.401c7.516-0.444,7.606-0.338,8.676,10.021c1.037,10.048,1.517,9.887-14.194,4.759
		c-26.487-8.646-49.319-30.071-47.037-44.139c1.236-7.612-0.105-11.606-6.346-18.896c-14.027-16.388-7.776-61.541,11.941-86.26
		c9.177-11.507,25.204-23.722,28.458-21.69c7.189,4.488,7.365,9.304,0.575,15.784c-9.797,9.352-10.837,24.415-1.686,24.415
		c4.986,0,12.118-10.349,12.989-18.85c1.038-10.132,3.186-12.307,13.845-14.023c7.914-1.272,8.598-4.907,2.588-13.762
		c-5.089-7.499-4.151-9.307,5.49-10.586c9.558-1.268,12.366,0.633,17.654,11.945c4.413,9.438,4.405,9.436,16.701,8.813l10.243-0.52
		c-4.603-26.38-6.36-25.724,16.68-20.543c15.086,3.393,37.508,12.563,43.043,17.607c3.165,2.881-11.195,15.911-20.466,18.57
		c-14.411,4.133-26.197-13.065-14.295-20.863c4.781-3.133,9.165-0.814,12.203,6.458c2.556,6.118,5.892,6.229,6.608,0.219
		c0.996-8.359-13.162-15.81-22.607-11.897c-8.047,3.333-9.021,11.954-2.741,24.237c6.829,13.359,34.121,9.35,43.883-6.446
		c3.531-5.714,6.701-6.998,8.833-3.576c1.989,3.19,14.572,11.769,15.984,10.896
		C3762.129,4835.449,3752.724,4824.374,3743.2,4819.904z M3548.331,4741.788c5.592-5.06,11.963-1.734,7.059,3.684
		c-3.058,3.378-9.855,4.002-9.855,0.905C3545.535,4745.245,3546.793,4743.18,3548.331,4741.788z M3587.97,4756.71
		c-1.623-1.623-1.41-9.457,0.286-10.505c0.783-0.485,1.761-0.337,2.17,0.329C3591.581,4748.399,3589.261,4758.001,3587.97,4756.71z
		 M3628.896,4927.671c-4.895-5.815-4.889-5.836,1.912-6.841c12.148-1.798,15.678-3.886,15.678-0.741
		c0,1.241,2.053,5.283,4.561,8.986c5.825,8.596,5.91,8.249-2.733,11.075c-4.041,1.323-8.393,2.805-9.67,3.295
		c-2.326,0.893-5.924-4.648-5.924-9.124C3632.719,4933.164,3630.999,4930.172,3628.896,4927.671z M3648.015,4907.022
		c0-16.048,14.918-34.853,22.017-27.752c5.763,5.762-1.699,19.302-15.857,28.77
		C3649.126,4911.415,3648.015,4911.233,3648.015,4907.022z M3635.078,4955.795c1.501-10.011,2.124-5.509,15.679-11.675
		c6.1-2.773,14.083-2.785,14.083-0.02c0,5.37,20.054,7.929,23.508,2.999c5.348-7.636-4.818-14.707-18.59-12.931
		c-8.325,1.072-8.877,0.771-14.492-7.891c-5.644-8.709-5.396-9.826,3.46-15.563c14.231-9.222,21.845-25.514,16.054-34.351
		c-9.166-13.988-34.741,10.713-30.602,29.554c1.721,7.837-13.682,14.019-27.145,10.891c-19.737-4.584,14.108,12.739,12.351,24.597
		c-0.595,4.004-6.742,5.353-10.281,2.254c-1.343-1.176-3.819-2.562-5.502-3.08c-38.699-11.913-21.079-77.026,23.553-87.043
		c43.923-9.856,93.323,43.908,74.681,81.278c-4.771,9.563-1.978,36.053-53.877,55.737c-8.067,3.059-31.546,5.56-32.171,3.426
		C3618.778,4970.023,3632.832,4970.776,3635.078,4955.795z M3682.43,4942.745c0,3.39-7.131,3.416-11.463,0.043
		C3661.768,4935.623,3682.43,4938.248,3682.43,4942.745z M3599.528,4959.798c4.355-0.516,14.837,6.577,14.837,10.04
		C3614.365,4976.807,3584.379,4961.596,3599.528,4959.798z M3586.372,4803.811c-5.858-5.999-5.603-9.49,0.694-9.49
		c8.818,0,7.876-7.334,15.265,1.516c5.691,6.817,5.528,8.87-0.919,11.563C3593.844,4810.562,3592.698,4810.289,3586.372,4803.811z
		 M3598.168,4849.267c-7.466,8.873-11.715,3.221-4.909-6.53c5.857-8.391,8.869-9.291,8.869-2.647
		C3602.128,4842.669,3600.452,4846.554,3598.168,4849.267z M3615.512,4824.534c-9.668,4.688-17.937,0.901-17.968-8.23
		c-0.01-3.675,11.608-9.119,14.739-6.904C3618.469,4813.777,3620.271,4822.226,3615.512,4824.534z M3616.183,4801.335
		c-5.148,1.073-14.142-9.893-10.548-12.863c2.319-1.918,14.842-6.971,15.357-6.196
		C3633.294,4800.73,3631.803,4798.082,3616.183,4801.335z M3664.563,4812.056c-0.711,8.691-11.479,9.958-15.684,1.845
		c-6.629-12.794-10.752-14.923,5.607-14.968C3664.371,4798.907,3665.518,4800.399,3664.563,4812.056z M3721.489,4808.72
		c-10.182-5.158-37.685-12.87-45.896-12.87c-6.686,0-6.069-4.653,1.471-11.106c21.706-18.58,51.225-5.979,57.375,24.49
		C3735.686,4815.412,3734.619,4815.369,3721.489,4808.72z"/>
	<path d="M395.095,4812.982c-6.224-2.969-6.326-5.069-0.49-9.982c8.854-7.45,19.924-8.961,19.924-2.719
		c0,6.739,10.979,10.713,15.279,5.531c2.645-3.186,0.716-9.433-3.831-12.413c-5.739-3.761-4.645-7.239,4.584-14.584
		c17.766-14.141,16.27-45.677-2.166-45.677c-11.907,0-9.824,20.025,2.32,22.302c9.055,1.699,8.624,6.039-1.581,15.937
		c-3.036,2.944-7.597,8.28-10.136,11.854c-3.474,4.893-5.638,6.499-8.748,6.515c-5.474,0.02-19.011,7.896-22.362,13.012
		c-3.974,6.063-16.856,1.77-15.247-5.083c0.335-1.424,0.786-5.286,1.003-8.583c0.375-5.67,0.785-6.125,7.576-8.413
		c15.173-5.113,24.534-19.478,20.441-31.37c-7.285-21.167-34.927-8.585-35.195,16.021l-0.118,10.872
		c-32.448-5.342-20.649-13.224-20.649,19.533l-10.325-0.869c-10.306-0.866-17.177-5.156-17.2-10.742
		c-0.014-3.31-11.466-10.889-21.36-14.137c-25.98-8.529-53.244,10.609-53.529,37.573c-0.061,5.855-0.676,6.796-7.779,11.898
		c-4.243,3.049-8.045,6.409-8.452,7.469c-0.716,1.866-24.695,0.91-27.973-1.115c-0.678-0.419-7.371-2.114-14.875-3.766
		c-7.503-1.652-19.305-5.179-26.224-7.837l-12.584-4.833l0.826-8.674c1.775-18.656-16.775-31.133-35.597-23.944l-7.039,2.689
		l-6.407-7.181c-5.82-6.521-8.143-11.596-5.312-11.596c0.603,0,1.456-1.374,1.895-3.052c1.675-6.407,9.269-4.206,12.246,3.55
		c1.757,4.581,5.392,2.715,9.534-4.895c4.02-7.385,4.111-7.443,9.656-6.155c13.394,3.113,20.127-0.242,20.127-10.026
		c0-4.8-0.523-5.427-5.736-6.874c-7.782-2.162-7.851-2.151-14.358,2.358c-6.739,4.672-8.307,4.03-12.313-5.024
		c-3.362-7.599-5.526-7.24-8.979,1.488c-3.925,9.923-5.996,10.994-10.894,5.631c-2.374-2.599-4.315-5.37-4.315-6.16
		c0-3.279-4.174-1.073-9.347,4.939l-5.525,6.423c-12.091-16.696-14.199-19.201,2.789-30.386l-6.495-12.237
		c-3.571-6.729-6.876-14.99-7.342-18.354c-1.028-7.423-2.958-7.643-9.87-1.123c-6.169,5.818-6.261,5.731-9.41-9.032
		c-5.311-24.889-3.036-58.391,3.764-55.479c1.338,0.572,4.841,1.473,7.786,2.002l5.353,0.962l0.954,12.98
		c0.956,12.992,2.384,20.817,4.325,23.687c0.569,0.841,3.004,6.347,5.41,12.236c17.621,43.118,63.455,64.819,104.905,49.669
		c16.348-5.976,36.475-36.141,30.531-45.759c-2.06-3.334-6.166-0.627-6.181,4.072c-0.055,27.466-36.461,48.589-68.117,39.519
		c-24.591-7.045-57.538-37.071-57.322-52.238c0.014-0.922-1.124-3.981-2.53-6.796c-2.934-5.883-4.869-13.999-6.144-25.764
		l-0.892-8.235c17.152,9.509,19.204,12.292,37.295,31.37l-2.38,5.017c-4.335,9.134-2.069,16.027,5.266,16.027
		c6.052,0,8.186-4.295,6.874-13.836c-0.999-7.262-0.915-7.475,3.316-8.407c2.388-0.526,5.221-1.228,6.294-1.56
		c6.328-1.961,21.525,6.862,25.724,14.932c7.154,13.749-6.491,32.768-17.591,24.519c-8.177-6.077-4.657-17.177,5.447-17.177
		c5.539,0,6.471-1.56,2.773-4.63c-3.705-3.073-14.094,0.971-17.016,6.625c-9.43,18.234,17.649,30.636,29.101,13.329
		c14.688-22.195-10.207-49.909-36.44-40.567c-3.627,1.292-6.706,1.609-7.692,0.791c-0.904-0.75-5.756-5.363-10.783-10.251
		c-9.646-9.381-14.305-12.999-23.419-18.191c-6.115-3.484-7.857-8.742-4.794-14.463c2.07-3.867,7.914-3.106,13.068,1.701
		c5.077,4.737,9.843,3.905,9.843-1.719c0-4.063,3.669-13.689,5.217-13.689c0.303,0,2.523,1.028,4.933,2.285
		c9.537,4.974,18.654-0.075,13.725-7.599c-2.48-3.784-5.338-4.541-14.866-3.933c-12.671,0.809-15.315-15.098-4.038-24.291
		c47.469-38.696,122.293,1.079,86.83,46.156c-5.055,6.427-8.361,5.542-4.396-1.178c11.967-20.284-16.022-39.533-35.067-24.118
		c-27.977,22.644,8.475,67.696,43.05,53.207c51.977-21.784,40.599-100.289-17.38-119.927c-12.787-4.33-53.01-3.171-55.968,1.614
		c-0.444,0.717-1.87,1.305-3.171,1.305c-3.863,0-17.298,7.334-24.842,13.563c-10.11,8.346-10.352,8.416-15.806,4.532
		c-15.178-10.808-40.933,0.978-40.933,18.729c0,12.881,7.723,25.888,15.369,25.888c2.244,0,2.981,1.046,2.963,4.206
		c-0.041,7.449-1.785,8.569-11.914,7.651c-10.292-0.934-12.536,0.28-12.536,6.782c0,2.343-0.825,7.345-1.834,11.117
		c-2.173,8.125-1.724,8.851,4.392,7.097c2.557-0.734,6.303-1.017,8.324-0.632l3.672,0.704l0.087,24.747
		c0.064,17.844,0.809,27.666,2.674,35.205c4.115,16.636-6.893,18.909-19.427,4.012c-5.218-6.199-5.124-6.617,2.204-9.921
		c13.065-5.892,12.785-22.367-0.375-22.053c-7.684,0.184-18.221,28.978-10.603,28.978c0.939,0,1.708,0.939,1.708,2.088
		c0,7.75,14.721,16.706,25.114,15.282c5.225-0.716,7.09-0.427,7.529,1.164c2.564,9.328,6.543,19.62,8.894,23.002
		c4.281,6.164,3.464,9.636-4.063,17.271c-8.183,8.299-8.191,8.353-2.145,13.742c2.607,2.322,6.08,7.253,7.72,10.959
		c3.779,8.542,7.267,8.74,11.805,0.664c4.651-8.276,5.88-8.694,11.04-3.75c6.459,6.188,0.988,22.153-7.132,20.81
		c-15.872-2.624-27.944,5.587-24.135,16.415c3.496,9.942,15.117,9.179,23.615-1.551c5.39-6.805,7.131-6.394,14.129,3.34
		c5.328,7.413,6.163,7.426,10.242,0.167c5.682-10.108,17.821-10.365,18.5-0.39c0.089,1.314,0.315,3.42,0.503,4.682
		c0.187,1.262,0.459,4.542,0.603,7.288c0.473,9.04,12.26,13.643,22.015,8.596c4.653-2.406,5.061-2.328,15.603,2.943
		c18.317,9.159,61.967,17.824,70.725,14.04c1.546-0.668,4.125-1.048,5.733-0.843c1.732,0.22,5.016-1.914,8.059-5.236
		c5.837-6.372,8.093-6.355,10.149,0.075c5.19,16.218,32.979,25.485,44.284,14.768c14.16-13.428,2.707-36.243-14.335-28.557
		c-6.93,3.125-11.938,11.701-8.942,15.311c2.996,3.611,6.039,2.612,6.092-2.001c0.107-9.18,8.058-12.536,14.766-6.234
		c3.916,3.679,4.448,7.417,1.77,12.422c-7.057,13.186-25.209,10.277-36.142-5.792l-5.194-7.636l5.052-4.219
		c2.779-2.32,6.492-4.218,8.248-4.218c1.756,0,3.847-0.604,4.647-1.341c4.11-3.795,45.277-12.307,50.263-10.395
		c2.512,0.965,1.153,10.072-2.567,17.205l-2.453,4.703l14.516-0.379c16.773-0.437,17.654-0.925,20.302-11.254
		c2.154-8.402,3.021-8.816,12.784-6.104c6.669,1.852,7.209,4.367,2.57,11.978c-3.686,6.043-2.926,7.306,6.643,11.048
		c5.733,2.241,6.563,3.206,7.504,8.709c1.926,11.283,7.076,18.407,15.672,21.675c12.14,4.614,11.137-9.251-1.592-21.98
		c-8.795-8.796-10.167-14.499-4.6-19.12c4.212-3.497,22.608,12.602,34.514,30.204c32.301,47.755,20.496,113.484-24.421,135.964
		c-14.774,7.394-28.806,10.341-29.208,6.134c-1.8-18.859,1.546-27.569,9.41-24.48c17.57,6.901,41.996-7.308,42.011-24.43
		c0.011-24.396-34.002-20.343-47.595,5.672c-5.081,9.725-5.635,9.872-15.855,4.235c-8.977-4.951-8.942-4.786-3.539-15.958
		c3.8-7.86,4.856-8.875,11.054-10.611c46.873-13.124,23.133-75.346-28.765-75.391c-92-0.08-88.122,130.547,4.403,148.273
		c14.442,2.767,24.13,2.065,45.685-3.314C457.393,4973.806,465.459,4846.536,395.095,4812.982z M430.164,4749.109
		c-3.573-2.502-4.532-7.444-1.773-9.15c2.446-1.511,7.551,3.859,7.551,7.944C435.943,4752.112,434.792,4752.352,430.164,4749.109z
		 M425.236,4799.763c0,2.576-3.937,2.967-5.436,0.542C417.592,4796.733,425.236,4793.637,425.236,4799.763z M129.103,4738.455
		c7.295-4.778,14.974,0.362,8.836,5.917c-1.539,1.392-3.775,2.452-4.971,2.354C124.72,4746.052,123.029,4742.435,129.103,4738.455z
		 M113.738,4739.88c2.357,3.597,2.316,4.145-0.695,9.246c-3.703,6.277-3.933,6.339-9.015,2.373l-3.824-2.984
		C104.878,4740.277,108.526,4731.928,113.738,4739.88z M108.662,4662.862c2.423,4.528-1.419,9.144-4.511,5.418
		C100.377,4663.733,104.957,4655.939,108.662,4662.862z M109.773,4590.505c0.356,1.086-0.584,1.86-2.177,1.791
		c-4.006-0.173-6.628-1.426-6.628-3.167C100.969,4586.964,109.024,4588.224,109.773,4590.505z M19.07,4655.797
		c6.594-4.321,9.671,1.199,3.891,6.979c-4.246,4.246-7.648,3.922-7.648-0.729C15.313,4659.712,16.754,4657.315,19.07,4655.797z
		 M89.589,4591.89c-1.061,1.552-2.391,4.715-2.952,7.028c-0.563,2.314-1.525,4.191-2.14,4.172
		c-2.483-0.075-14.119-6.023-14.119-7.216c0-2.427,10.221-20.885,11.868-21.434C85.366,4573.4,91.79,4588.668,89.589,4591.89z
		 M160.421,4518.162c56.617,15.069,71.246,91.818,21.133,110.858c-28.228,10.726-56.624-27.657-33.766-45.639
		c10.657-8.38,27.284,0.425,26.308,13.933c-0.445,6.155-0.91,6.755-7.738,9.988c-7.761,3.675-8.604,5.044-4.964,8.065
		c11.258,9.343,34.408-11.995,34.408-31.712c0-46.435-62.324-64.968-102.585-30.507c-8.223,7.038-7.943,7.082-11.121-1.757
		C74.905,4531.397,127.043,4509.277,160.421,4518.162z M75.075,4575.439c-1.742,2.447-3.168,5.203-3.168,6.124
		c0,0.922-0.621,1.676-1.378,1.676c-0.757,0-1.987,2.576-2.732,5.726c-1.502,6.352-2.989,6.915-11.95,4.523
		c-7.684-2.051-7.201-1.568-6.068-6.083c0.693-2.757,2.859-4.569,7.662-6.402c9.577-3.658,17.154-17.919,11.407-21.471
		c-2.354-1.455-1.828-4.65,1.421-8.625C78.736,4540.544,83.307,4563.877,75.075,4575.439z M60.006,4566.415
		c1.847,0,0.175-4.588,3.489-4.588c3.374,0,2.869,7.073-0.765,10.707C52.403,4582.856,57.598,4566.415,60.006,4566.415z
		 M42.345,4572.721c-8.422-5.552-11.412-21.504-5.392-28.759c4.977-5.998,21.062-10.525,23.482-6.609
		c0.52,0.841,2.197,1.53,3.726,1.53c5.221,0,6.56,3.738,2.974,8.298c-2.88,3.662-3.954,4.026-9.236,3.133
		c-9.265-1.565-19.138,7.966-15.069,14.547c1.422,2.304,4.604,0.748,4.604-2.251c0-3.297,4.449-6.901,8.521-6.901
		c4.619,0,4.656-0.416-0.973,10.661C49.872,4576.425,48.789,4576.97,42.345,4572.721z M54.337,4597.478
		c7.892,1.281,8.809,2.588,7.575,10.814c-1.618,10.801-1.435,5.88-13.33,3.324C39.058,4609.572,44.624,4595.901,54.337,4597.478z
		 M26.068,4605.036c0.09-7.743,5.557-11.421,12.828-8.631c2.77,1.063,3.151,5.554,0.835,9.879
		C36.963,4611.458,26.005,4610.458,26.068,4605.036z M52.621,4687.984c3.926-2.574,7.028-2.018,7.074,1.268
		c0.015,1.002,2.343,6.481,5.176,12.175l5.15,10.354c-7.517,5.911-10.872,9.356-13.313,0.324
		C54.239,4702.981,44.58,4693.251,52.621,4687.984z M67.135,4752.836c-4.7,5.945-4.822,5.925-10.392-1.646
		c-5.722-7.781-5.721-7.769-0.661-14.402c4.231-5.547,5.253-5.415,9.058,1.192C71.012,4748.172,70.985,4747.967,67.135,4752.836z
		 M53.553,4789.515c0-4.886,13.622-9.848,16.087-5.86C71.407,4786.517,53.553,4802.252,53.553,4789.515z M81.189,4742.169
		c4-5.618,6.118-5.592,10.347,0.128l3.38,4.572c-9.462,14.294-7.347,13.654-12.781,7.981
		C77.195,4749.693,77.065,4747.959,81.189,4742.169z M94.739,4787.229c-3.897,4.956-4.023,4.948-10.481-0.572l-5.237-4.479
		c6.945-13.045,6.916-14.734,13.78-7.244C98.806,4781.488,98.881,4781.963,94.739,4787.229z M132.983,4812.038
		c-4.012,4.835-12.513,0.436-14.292-7.394c-1.244-5.476,0.685-5.369,9.232,0.511C133.486,4808.983,134.44,4810.282,132.983,4812.038
		z M139.895,4800.684c-1.112,3.5-5.048,3.537-9.197,0.085c-4.183-3.479-11.804-9.382-18.095-14.349
		c-4.117-3.252-2.773-4.505,5.878-5.48C129.933,4779.649,142.804,4791.516,139.895,4800.684z M300.756,4795.546
		c-8.735,0.955-17.51,2.374-19.502,3.154c-6.435,2.521-15.599,4.371-21.975,8.169c-9.459,5.637-12.518,2.346-8.668-9.319
		c8.275-25.068,41.616-32.286,60.291-13.052C319.172,4793.018,318.644,4793.594,300.756,4795.546z M340.343,4814.969l-9.758,0.46
		c-9.546,0.451-9.736,0.384-8.734-3.059c0.563-1.936,1.444-5.842,1.959-8.681l0.936-5.161
		C346.596,4800.781,345.379,4799.548,340.343,4814.969z M372.546,4764.376c1.796-14.369,12.858-23,21.299-16.62
		c7.646,5.78,1.297,20.839-11.005,26.102C372.827,4778.143,371.033,4776.489,372.546,4764.376z M357.935,4798.298
		c-5.169-1.877-5.37-2.244-5.812-10.609c-0.591-11.152,0.053-10.052,16.655-5.081l-0.451,8.518
		C367.823,4800.673,366.671,4801.468,357.935,4798.298z M380.092,4817.856c-4.057,9.699-14.779,5.666-11.483-4.319
		c1.771-5.369,2.227-5.701,6.626-4.822C381.405,4809.95,382.52,4812.048,380.092,4817.856z M393.383,4852.443
		c-3.104,0-6.386-2.813-6.386-5.471c0-0.991-0.956-2.596-2.126-3.565c-2.244-1.863-4.286-9.318-2.551-9.318
		C384.859,4834.088,400.593,4852.443,393.383,4852.443z M377.474,4944.123c13.188-18.875,35.526-21.007,35.526-3.39
		c0,6.339-9.402,16.299-16.778,17.775C373.226,4963.108,367.357,4958.605,377.474,4944.123z M351.413,4917.831
		c-5.561,7.088-24.069-8.355-24.069-20.083c0-17.334,20.502-14.748,23.834,3.006C352.849,4909.67,352.935,4915.89,351.413,4917.831z
		 M361.128,4981.691l-0.899,9.177c-53.265,1.83-84.997-37.971-87.141-66.708c-0.382-5.114-3.523-10.713,3.312-33.005
		c15.079-49.209,94.431-52.693,104.417-4.587c2.634,12.682-2.141,21.73-15.999,30.319c-7.556,4.684-8.234,3.979-7.998-8.321
		c0.217-11.414-1.288-15.23-9.598-24.314c-4.297-4.697-13.875-4.935-18.846-0.465c-12.665,11.386-4.402,33.56,14.645,39.301
		c6.635,1.999,6.768,2.707,2.23,11.95c-3.331,6.79-3.481,6.883-11.025,6.883c-14.08,0-23.708,5.668-23.708,13.957
		c0,6.921,15.8,7.662,23.332,1.092c9.244-8.057,6.822-8.861,15.995-4.818C368.636,4960.437,363.423,4958.247,361.128,4981.691z
		 M317.36,4954.856c-2.453-3.969,8.235-9.312,15.753-7.876C342.034,4948.686,320.859,4960.52,317.36,4954.856z"/>
	<path d="M2371.458,4752.182c-3.454,0.647-7.469,2.937-10.109,5.762l-4.379,4.688c-13.864-12.674-35.863-16.18-45.824-15.499
		c-6.683,0.458-9.139-0.962-9.139-5.292c-0.034-23.08-41.477-62.498-72.028-68.509c-87.135-17.142-150.345,78.026-85.204,128.281
		c50.635,39.065,124.428-22.844,82.244-69c-27.047-29.594-75.756-11.046-66.855,25.457c5.745,23.563,41.905,23.468,38.257-0.101
		c-1.334-8.618-14.185-14.808-14.185-6.833c0,7.2-7.672,8.487-14.066,2.362c-17.76-17.015,16.357-38.635,41.06-26.02
		c43.802,22.37,17.709,85.839-33.557,81.626c-37.765-3.104-64.801-46.685-49.496-79.792c1.554-3.365,4.186-9.021,5.846-12.568
		c18.737-40.015,108.242-56.716,145.047-2.193c4.354,6.45,28.004,36.94,13.037,36.94c-18.001,0-39.611,27.207-38.877,48.946
		c0.349,10.345,0.321,10.401-6.663,13.904c-17.192,8.626-72.215,62.152-119.222,39.961c-6.438-3.038-17.866-5.64-26.561-14.656
		l-3.149-3.264c23.122,0.924,25.656,0.547,30.091,4.729c4.619,4.352,7.565,4.735,7.565,0.983c0-4.048,5.727-13.936,10.403-17.961
		c5.331-4.587,3.452-6.366-4.096-3.874c-3.876,1.278-11.333,1.745-21.421,1.34c-44.266-1.779,21.074,17.174-10.505,13.287
		c-21.692-2.673-33.913-22.037-57.741-37.709c-9.197-6.049-11.478-8.182-9.177-8.581c8.859-1.541,15.828-5.318,17.572-9.529
		c1.005-2.427,2.969-4.845,4.364-5.375c20.037-7.602,26.321-31.852,11.314-43.657c-7.148-5.621-19.548-3.709-27.709,4.272
		c-6.972,6.817,4.596,26.611,13.381,22.897c4.598-1.942,7.847-5.379,7.847-8.301c0-3.102-4.289-2.36-6.118,1.057
		c-2.948,5.508-13.771,0.087-11.524-5.771c0.45-1.17,0.817-2.758,0.817-3.53c0-3.386,6.374-7.524,11.59-7.524
		c17.645,0,19.456,25.674,2.45,34.761c-5.198,2.777-7.785,1.595-9.809-4.479c-0.676-2.027-10.179-2.002-12.215,0.033
		c-2.684,2.685,1.142,9.447,6.488,11.464c5.578,2.106,5.688,3.295,0.612,6.622c-8.514,5.578-46.163-4.96-53.789-3.048
		c-4.734,1.189-3.905,5.742,1.153,6.334c14.304,1.676,27.498,18.165,14.536,18.165c-5.395,0-11.492,3.948-11.492,7.441
		c0,5.15,11.209,7.812,14.418,3.423c5.632-7.701,13.801-1.626,15.617,11.614c2.322,16.937-22.061,23.533-26.166,7.078
		c-1.389-5.572,4.18-11.403,8.624-9.024c1.742,0.932,3.51,3.004,3.929,4.603c0.968,3.701,4.993,3.815,4.993,0.141
		c0-7.934-9.91-11.513-17.972-6.491c-10.386,6.467-5.754,22.46,7.337,25.334c21.002,4.613,32.361-20.548,16.753-37.118
		c-9.009-9.566-3.65-8.539-10.019-17.928c-9.636-14.2,19.02-1.313,38.049,17.111c14.165,13.716,21.474,45.677,8.341,36.479
		c-12.49-8.749-30.379,6.576-18.545,15.886c4.401,3.46,11.166,3.174,19.037-0.805c5.236-2.648,7.493-0.41,7.493,7.432
		c0,5.75-0.151,5.918-4.971,5.542c-7.282-0.566-11.723,1.388-12.787,5.629c-1.996,7.957,4.625,10.371,14.557,5.303l5.854-2.986
		c11.22,8.249,13.036,8.967,11.962,13.469c-9.263,38.839,24.147,64.757,52.354,40.614c19.048-16.304,2.885-50.277-18.04-37.916
		c-6.998,4.134-10.673,17.373-5.386,19.401c3.007,1.153,4.176-1.084,3.007-5.74c-1.464-5.835,5.545-12.289,11.955-11.007
		c15.397,3.079,17.127,22.92,2.819,32.344c-20.71,13.64-47.74-4.147-43.58-28.676l1.375-8.104l6.88-0.49
		c11.089-0.788,15.721-7.102,8.622-11.751c-3.755-2.461-10.213-1.311-12.385,2.204c-2.896,4.689-8.033-1.613-13.442-5.155
		c-7.706-5.038-1.405-12.086-6.618-23.079c-4.98-10.494,5.817-8.187-2.062-30.597c-10.081-28.682,27.061,34.544,78.457,51.242
		c14.84,4.822,28.987,25.539,14.627,21.421c-7.667-2.2-8.33,0.341-1.692,6.482c4.538,4.198,6.59,7.825,8.807,15.571
		c3.139,10.956,4.651,12.42,6.097,5.89c2.219-10.021,4.104-13.931,9.808-20.342c8.418-9.46,6.773-12.853-4.044-8.333
		c-5.62,2.348-8.165,1.943-8.165-1.3c0-1.034-2.037-4.263-4.528-7.175c-7.724-9.037-6.58-9.257,22.708-4.373
		c24.692,4.118,28.164,5.79,26.827,12.913c-1.237,6.599,3.134,7.596,5.542,1.265c3.723-9.79,22.87,0.569,22.87,12.371
		c0,13.59-25.615,19.311-25.955,5.797c-0.076-3.055-4.636-2.207-4.636,0.861c0,11.14,20.892,16.409,29.788,7.513
		c12.46-12.461,3.07-33.136-15.404-33.915c-9.959-0.42-7.75-4.372-20.193-7.039c-7.377-1.582-9.714-4.512-3.599-4.512
		c16.966,0,46.789-14.257,63.746-30.475c8.275-7.914,9.018-8.281,16.12-7.957c16.999,0.775,32.006-6.285,37.581-17.682
		c5.106-10.435,6.002-10.294,18.872,2.961c25.918,26.692,31.624,60.767,14.421,86.118c-2.019,2.975-3.671,5.988-3.671,6.696
		c0,8.336-26.979,20.77-42.635,19.65c-43.118-3.085-53.584-61.77-13.04-73.121c27.24-7.628,49.249,21.504,29.927,39.611
		c-11.68,10.947-32.749-1.056-25.496-14.525c2.773-5.15,2.463-7.917-0.671-5.98c-4.278,2.645-6.423,10.067-4.573,15.828
		c8.033,25.036,45.594,13.373,42.11-13.075c-3.536-26.839-41.208-37.803-58.276-16.959c-24.238,29.597-13.175,64.255,23.319,73.049
		c66.554,16.038,93.394-94.467,31.72-130.611c-6.617-3.877-6.859-4.278-6.859-11.372c0-11.821-13.344-27.661-23.326-27.69
		c-1.473-0.004-2.766-0.524-2.873-1.155c0,0-0.807-6.676-1.993-13.61c-1.4-8.168-0.35-8.703,13.313-6.802
		c22.293,3.101,35.865,11.378,32.359,19.737c-4.385,10.455,0.916,20.176,11.001,20.176c8.662,0,11.342-14.417,4.248-22.848
		c-5.077-6.036-4.073-8.422,4.442-10.566C2382.507,4758.083,2382.649,4750.082,2371.458,4752.182z M2191.85,4752.733l1.546,4.067
		c2.183,5.745,2.008,6.604-2.208,10.821c-7.691,7.691-24.993,1.042-27.774-10.675l-1.065-4.484
		C2178.298,4767.575,2182.415,4762.832,2191.85,4752.733z M2117.318,4826.357c20.45-0.879,20.802-0.752,17.198,6.218
		c-2.582,4.993-4.95,5.852-6.316,2.291c-0.482-1.254-3.558-3.083-6.836-4.065C2115.649,4829.087,2113.318,4826.53,2117.318,4826.357
		z M2049.635,4768.841c0-3.167,5.19-1.918,5.829,1.406C2056.478,4775.487,2049.635,4771.777,2049.635,4768.841z M2009.155,4811.231
		c-1.585-2.563,0.555-4.676,4.737-4.676C2022.838,4806.556,2012.314,4816.345,2009.155,4811.231z M2049.883,4852.269
		c0.962-6.805,18.107-5.298,18.107,1.592C2067.99,4861.059,2048.705,4860.589,2049.883,4852.269z M2069.333,4881.652
		c-2.816,1.784-5.54,1.722-6.697-0.148c-1.398-2.262,0.54-4.588,3.824-4.588C2070.203,4876.916,2072.037,4879.941,2069.333,4881.652
		z M2106.08,4890.096c-2.281,2.745-7.499,2.736-7.499-0.016C2098.581,4885.292,2109.674,4885.763,2106.08,4890.096z
		 M2178.883,4904.208c8.027-0.638,7.804-1.049,3.542,6.533c-4.021,7.152-4.344,7.203-7.749,1.222
		C2170.897,4905.322,2171.169,4904.822,2178.883,4904.208z M2292.228,4756.874c7.801-2.348,8.332-1.901,9.907,8.327
		c1.257,8.175-0.456,12.279-5.148,12.327c-5.865,0.06-13.329,8.12-13.329,14.396c0,3.996,2.577,2.7,5.928-2.981
		c7.151-12.119,14.554-10.194,11.866,3.082l-1.855,9.177c-11.745,0.366-23.523,0.182-32.785,3.832
		c-4.258,1.678-8.061,3.051-8.449,3.051c-0.39,0-0.708-2.972-0.708-6.604C2257.655,4780.853,2271.377,4763.149,2292.228,4756.874z
		 M2123.498,4860.096c-9.159-6.011-9.48-7.249-1.017-3.925c35.025,13.752,64.313,7.152,105.423-23.758
		c15.877-11.938,22.043-13.922,28.28-16.596l2.423,6.057c2.31,5.771,7.85,11.712,15.734,16.873
		C2288.022,4847.701,2201.256,4911.124,2123.498,4860.096z M2282.792,4836.633c-6.193,1.906-25.998-18.854-22.848-23.951
		c1.422-2.301,15.788-6.079,27.125-7.132c12.897-1.2,13.078-0.34,3.754,17.802
		C2287.193,4830.416,2283.578,4836.392,2282.792,4836.633z M2306.581,4789.059c2.216-10.676,4.962-11.059,14.364-2.005
		c6.353,6.118,11.207,16.518,9.216,19.741c-1.15,1.861-3.633,1.426-10.559-1.852c-3.365-1.592-7.689-2.914-9.609-2.936
		C2305.255,4801.953,2304.5,4799.086,2306.581,4789.059z M2325.338,4812.294c5.468,4.869-2.377,18.141-13.384,22.642
		c-34.733,14.202-16.762-10.046-12.008-21.819C2303.469,4804.396,2316.007,4803.989,2325.338,4812.294z M2364.452,4781.595
		c-0.589,5.116-5.135,6.668-6.542,2.234c-1.088-3.426,0.425-10.924,2.204-10.924
		C2362.624,4772.905,2364.922,4777.507,2364.452,4781.595z"/>
	<path d="M1632.099,4892.363c-0.11,23.021,31.923,33.156,42.17,13.341c4.472-8.648-0.307-25.73-7.2-25.73
		c-3.925,0-3.62,2.183,0.941,6.744c7.697,7.696,3.247,21.741-7.762,24.503c-23.219,5.828-32.075-27.162-11.075-41.257
		c20.886-14.019,49.442,3.19,49.42,29.781c-0.038,47.016-62.495,55.902-82.7,11.767c-3.946-8.618-6.15-10.462-7.694-6.438
		c-3.166,8.252,19.995,33.767,34.865,38.409c35.836,11.186,70.802-22.352,58.692-56.292
		C1688.402,4849.761,1632.282,4853.929,1632.099,4892.363z"/>
	<path d="M1940.802,4784.578c-6.234-1.17-12.235-5.329-9.404-6.518c4.361-1.831,9.638-7.125,9.638-9.668
		c0-7.622-9.525-7.705-14.531-0.127c-3.686,5.578-7.501,5.924-10.742,0.977c-3.148-4.804-1.655-10.527,4.137-15.875
		c15.843-14.624,7.438-46.734-9.494-36.269c-2.195,1.357,1.063,5.314,4.431,5.38c3.874,0.075,7.695,3.66,9.538,8.947
		c1.897,5.442,0.61,8.165-8.775,18.552c-9.466,10.479-8.42,22.461,2.383,27.298c9.942,4.454,7.83,8.555,19.228,11.513l7.648,1.985
		c-18.807,11.211-35.269,24.919-44.148,33.187c-13.219,12.31-23.725,15.245-30.795,8.604c-6.813-6.4-6.227-14.529,1.121-15.577
		c7.703-1.1,0.502-10.432-8.05-10.432c-4.446,0-10.754,6.386-11.329,11.472c-0.684,6.037,0.197,5.983-5.381,3.099
		c-14.332-7.412-27.365,8.753-16.123,19.996c4.287,4.289,6.871,3.714,6.871-1.525c0-7.891,16.825-7.883,16.825-5.87
		c0,2.901,13.328,7.028,21.796,6.747c11.53-0.381,11.095,1.429-1.907,7.934c-70.431,35.235-119.021-27.439-161.041-42.658
		c-10.181-3.686-11.357-5.339-11.652-16.381c-0.133-5.019,0.552-6.163,5.606-9.352c10.493-6.623,16.083-18.428,11.814-24.942
		c-5.708-8.713-18.15,0.687-20.925,15.806c-1.837,10.008-3.071,11.135-12.235,11.181c-10.482,0.054-2.94-36.892,11.686-57.242
		c44.247-61.573,136.628-57.958,158.979,6.221c15.253,43.794-18.677,84.207-65.935,78.532
		c-43.192-5.187-55.419-59.953-18.249-81.734c27.875-16.335,67.262,14.833,46.379,36.702c-9.844,10.308-25.304,3.897-25.935-10.754
		c-0.665-15.461-16.405-2.426-16.385,13.57c0.014,11.308,11.469,20.562,23.144,18.696c5.551-0.889,5.733-0.77,6.198,4.047
		c1.175,12.157,19.409,9.777,23.34-3.045c0.86-2.807,0.466-3.442-2.14-3.442c-6.19,0-7.163-6.436-2.599-17.189
		c18.534-43.663-44.721-68.123-71.401-27.609c-22.174,33.67,2.931,75.389,45.368,75.389c81.651,0,92.003-107.967,12.998-135.559
		c-59.587-20.812-134.333,29.194-134.333,89.868c0,14.312-2.837,15.311-23.145,8.146c-9.254-3.266-9.817-2.82-4.329,3.429
		c4.885,5.565,12.178,19.969,12.178,24.054c0,2.507-3.373,3.969-8.92,3.868c-6.522-0.119-27.618-37.3-27.778-48.958
		c-0.006-0.47,3.01-2.983,6.704-5.586c12.05-8.494,12.708-23.388,1.033-23.388c-5.023,0-12.163,7.218-12.597,12.736
		c-0.144,1.828-0.416,4.356-0.603,5.618c-0.812,5.452,17.711,5.316-195.848,5.745c-107.348,0.216-195.805,0.78-196.572,1.253
		c-5.569,3.441,9.274,3.779,133.005,3.016c223.528-1.378,244.217-1.352,247.377,0.305c1.628,0.853,5.129,1.222,7.779,0.818
		c11.962-1.817-1.017,11.232,23.315,42.398c6.883,8.815,6.909,8.616-1.987,15.187c-18.311,13.527-35.532,42.985-28.965,49.552
		c1.773,1.772,5.112-2.273,5.112-6.196c0-9.252,14.878-31.283,26.624-39.423c11.383-7.888,15.614,2.636,5.623,13.986
		c-7.483,8.501-8.15,14.763-1.654,15.522c5.615,0.658,8.801-2.477,12.108-11.911c2.901-8.279,5.052-10.095,12.503-10.562
		c2.821-0.177,5.979,8.792,5.979,16.977c0,6.882,0.794,7.49,6.625,5.077c26.126-10.812,27.78,6.854,49.44,18.055l4.824,2.493
		c-8.332,15.626-8.486,14.097-5.503,22.146c2.307,6.22,2.346,7.551,0.367,12.287c-6.888,16.486,6.121,35.581,21.296,31.257
		c7.854-2.239,14.121-12.965,11.253-19.26c-2.201-4.829-8.022-4.907-6.517-0.087c4.096,13.111-9.91,20.831-18.04,9.942
		c-9.235-12.366-6.34-24.696,5.432-23.134c21.997,2.918,17.133-15.901-0.359-10.129c-7.519,2.482-9.164,1.245-9.164-6.893
		c0-9.081,5.392-15.84,10.468-13.124c20.357,10.893,50.284,9.793,71.582,9.745l-6.681,6.158
		c-13.132,12.109-13.129,23.927-22.68,27.079c-6.566,2.167-6.589,3.401-0.158,8.308c8.786,6.701,21.27,4.148,21.27-4.349
		c0-3.462,0.555-3.787,6.088-3.567c8.827,0.354,15.349-10.172,7.067-11.403c-3.934-0.583-7.586-6.266-9.548-8.904l3.26-5.734
		c3.472-6.109,7.509-8.561,34.461-20.934c16.955-7.784,35.236-21.315,49.75-36.827c20.821-22.249,2.503,2.045,6.311,14.754
		c1.832,6.117,0.837,26.755-1.47,30.489c-3.797,6.143-14.855,1.291-15.516-6.808c-1.478-18.137-19.95-5.824-9.087,5.74
		c5.765,6.137-1.609,20.212-8.624,16.458c-17.061-9.132-40.856,14.96-34.854,35.289c3.302,11.176,22.722,18.778,33.401,9.883
		c9.873-8.219,3.048-25.263-9.234-23.063c-6.244,1.118-11.089,4.509-11.089,7.76c0,2.761,3.75,2.615,6.118-0.237
		c5.22-6.29,17.151,1.173,12.828,8.027c-5.282,8.373-22.804,6.478-26.683-2.885c-7.689-18.566,22.422-42.011,33.144-25.807
		c5.26,7.949,7.151,7.806,5.913-0.448c-1.647-10.986,3.729-17.742,14.184-17.826c9.505-0.077,10.156,1.953,4.993,15.542
		c-3.647,9.598-3.518,9.748,9.538,11.011l10.325,0.999c0-16.173-0.544-20.023,3.842-28.269c5.072-9.54,1.832-13.671-6.046-7.712
		c-6.6,4.993-8.824,3.093-7.674-6.549c1.231-10.326,2.334-11.96,6.554-9.701c13.162,7.044,25.815-9.61,12.975-17.079
		c-5.207-3.028-7.359-2.477-16.735,4.292c-9.644,6.961-2.302-17.841,9.57-32.329c15.984-19.507,53.652-36.315,46.82-20.893
		c-1.77,3.994-3.62,9.155-4.113,11.467c-0.817,3.835-1.507,4.207-7.782,4.207c-7.916,0-12.304,5.179-8.388,9.897
		c2.177,2.622,13.075,3.228,14.569,0.81c3.489-5.646,11.374,6.265,11.438,17.277c0.044,7.85-5.617,13.702-12.601,13.027
		c-9.54-0.924-10.939-14.226-1.927-18.332c5.159-2.351,4.875-4.326-0.624-4.326c-12.479,0-14.872,21.156-2.95,26.095
		c13.352,5.529,23.309-2.601,22.945-18.734c-0.165-7.335-6.297-19.597-9.8-19.597c-8.241,0,5.115-27.577,14.933-30.832
		c4.206-1.395,7.648-3.459,7.648-4.588C1990.747,4773.143,1950.041,4786.31,1940.802,4784.578z M1931.076,4768.329
		c1.851-1.536,2.464-1.399,3.282,0.731c0.587,1.534,0.119,3.182-1.13,3.974C1928.575,4775.979,1926.726,4771.938,1931.076,4768.329z
		 M1863.012,4829.467c2.403,4.491,1.058,5.422-4.501,3.119c-3.02-1.25-17.42-4.475-23.557,1.291
		c-10.482,9.851-4.375-21.807,13.762-7.541c5.116,4.024,10.548,4.319,8.907,0.484c-4.063-9.501-1.86-15.678,5.594-15.678
		c4.628,0,5.99,2.545,2.149,4.02C1862.284,4816.344,1860.805,4825.341,1863.012,4829.467z M1820.303,4791.897
		c-4.521,5.448-13.382-0.109-11.967-7.507c0.97-5.079-0.746-5.985-7.033-3.712c-13.864,5.013-27.373-12.065-18.809-23.778
		c2.531-3.461,5.586-1.884,5.586,2.883c0,7.914,11.378,13.824,24.421,12.685c6.519-0.573,2.805,5.944,7.709,13.694
		C1821.948,4788.904,1821.963,4789.896,1820.303,4791.897z M1632.542,4735.07c3.21,1.057,2.875,6.967-0.668,11.759
		c-4.644,6.282-7.457,6.02-7.457-0.694C1624.417,4740.5,1629.211,4733.973,1632.542,4735.07z M1750.997,4898.71
		c-0.693,2.111-7.544,3.428-9.203,1.768C1737.859,4896.543,1752.09,4895.373,1750.997,4898.71z M1813.347,4906.91
		c5.661,5.663,1.916,9.643-4.02,4.271c-3.278-2.967-5.952-1.638-5.952,2.958c0,1.868-1.072,4.925-2.382,6.794
		c-4.008,5.724-15.2,3.707-9.183-2.443c5.525-5.66,17.683-32.041,17.683-19.455
		C1809.494,4901.293,1811.182,4904.747,1813.347,4906.91z M1708.572,4759.12c7.744-4.145,8.405,5.653,0.889,13.17
		c-2.86,2.86-5.958,5.2-6.883,5.2C1698.298,4777.49,1703.387,4761.895,1708.572,4759.12z M1700.895,4809.443
		c0,1.401,0.918,3.906,2.039,5.564c1.123,1.66,2.478,4.222,3.012,5.695c1.107,3.051-5.936,3.662-12.385,1.074
		c-5.792-2.324-9.87-14.163-5.462-15.854C1692.382,4804.278,1700.895,4806.622,1700.895,4809.443z M1697.072,4801.199
		c-15.381,1.121-13.685,2.787-16.379-14.072C1698.775,4784.65,1695.808,4781.854,1697.072,4801.199z M1643.563,4844.837
		c-1.029-1.669,6.227-10.355,7.548-9.037C1652.938,4837.623,1646.317,4849.29,1643.563,4844.837z M1662.861,4824.667
		c-7.764,2.325-7.308,2.477-9.234-3.045c-2.507-7.195-2.056-10.021,1.763-11.045c6.857-1.837,8.921-1.036,11.167,4.341
		C1669.646,4822.31,1669.509,4822.675,1662.861,4824.667z M1663.623,4796.021c-3.857-11.794-3.665-12.236,4.642-10.684
		c9.811,1.833,8.32,0.287,8.922,17.391l-5.534,0.462C1666.252,4803.643,1666.06,4803.472,1663.623,4796.021z M1669.848,4811.683
		c-0.62-8.736,10.181-7.163,13.28,1.932c1.355,3.974,2.242,7.444,1.973,7.713C1679.677,4826.75,1670.506,4820.95,1669.848,4811.683z
		 M1680.797,4845.385c-2.617,1.185-6.547-13.965-4.801-18.514c2.463-6.415,13.226-0.613,18.674,10.066l3.081,6.037
		C1694.03,4843.303,1683.876,4843.992,1680.797,4845.385z M1715.381,4851.208c2.538-2.537,14.324-1.362,19.11,1.905
		c6.36,4.342,12.971,7.239,17.029,9.142l-3.516,2.706C1741.304,4870.116,1709.77,4856.82,1715.381,4851.208z M1818.537,4877.492
		c-9.173,2.663-35.197,3.194-43.458,0.889c-3.872-1.082-46.386-8.401-18.997-12.781c6.007-0.961,9.248-3.563,5.71-4.583
		c-1.104-0.318-4.881-1.358-8.39-2.31c-3.51-0.952-9.999-4.448-14.421-7.77c-7.776-5.843-8.333-6.01-16.981-5.106
		c-10.897,1.139-17.745-1.944-23.442-10.554c-6.224-9.405-5.363-10.13,8.484-7.16c10.155,2.176,10.537,1.485,3.945-7.148
		c-15.707-20.571,4.613-13.286,48.966,17.557c32.047,22.284,75.461,30.819,99.631,19.586c1.892-0.878,3.807-1.23,4.257-0.78
		C1865.333,4858.825,1832.473,4873.447,1818.537,4877.492z M1879.272,4868.573c1.344-3.503,5.17-0.022,5.17,4.703
		C1884.442,4881.84,1877.502,4873.186,1879.272,4868.573z M1926.574,4848.479c2.894,2.115,2.896,2.215,0.055,5.354
		c-3.87,4.276-14.655,3.761-14.655-0.701C1911.974,4848.453,1922.118,4845.219,1926.574,4848.479z M1910.174,4882.844
		c4.771-1.814,6.505,0.405,4.755,6.084c-4.102,13.294-3.313,19.465-11.64,16.071
		C1898.906,4903.211,1904.573,4884.973,1910.174,4882.844z M1952.56,4817.345c-1.476-2.389,0.467-4.673,3.974-4.673
		C1963.271,4812.672,1955.607,4822.276,1952.56,4817.345z"/>
	<path d="M3953.848,4701.011c16.805,0,34.432-19.067,31.598-34.18c-0.959-5.112-8.223-13.237-11.836-13.237
		c-10.77,0-9.407,13.306,1.825,17.8c10.047,4.02,5.329,13.486-10.762,21.586c-13.698,6.896-16.083,6.32-12.397-2.987
		c6.561-16.56,4.752-59.132,9.341-58.035c3.687,0.881,5.71,0.857,7.068,2.216c3.412,3.413,7.035,0.979,5.815-3.906
		c-0.681-2.734-1.395-8.983-1.584-13.885c-0.408-10.528-0.906-11.262-6.036-8.923c-6.427,2.928-11.258,2.258-12.001-1.664
		c-3.945-20.817-5.676-23.947-11.966-39.671l4.935-5.09c17.829-18.396-6.459-48.582-26.441-32.864
		c-5.075,3.992-4.888,4.035-12.833-2.958c-8.078-7.111-24.675-14.272-39.259-16.938c-8.234-1.505-10.699-2.593-11.638-5.13
		l-1.19-3.22c-1.788,5.632-0.615,6.29-13.119,7.235c-18.762,1.419-35.454,7.622-48.663,18.084c-3.096,2.452-6.755,4.457-8.133,4.457
		c-3.728,0-4.676,4.297-1.68,7.608c1.448,1.598,2.178,3.637,1.626,4.532c-2.403,3.887,1.587,1.034,8.67-6.199
		c27.09-27.665,81.518-29.991,111.271-4.755l5.283,4.482c-3.988,4.66-11.098,12.261-12.963,19.185
		c-3.097,11.502-18.667,4.832-23.463-10.052c-1.403-4.354-6.383-2.55-5.718,2.072c1.591,11.061,0.563,17.017-3.888,22.515
		c-6.248,7.722-7.553,7.688-11.3-0.286c-10.251-21.807-42.182-28.008-49.572-9.627c-6.988,17.379,9.311,31.118,35.341,29.789
		l15.849-0.809c-9.339,37.259-38.113,45.241-56.094,30.241c-21.073-17.58-7.952-10.921-18.404-26.346
		c-4.913-7.248-5.54-20.345-1.412-29.462c7.362-16.258,7.356-16.238,4.436-15.747c-6.518,1.096,0.853-16.207-9.304-5.285
		c-11.933,12.835-6.629,55.447,6.899,55.447c1.383,0,1.935,1.011,1.467,2.677c-7.711,27.387,9.246,13.256,12.812,22.634
		c6.083,15.996,62.735,10.863,62.692-31.95c-0.008-6.701,0.7-8.197,7.471-15.794c4.115-4.616,7.882-10.406,8.375-12.865
		c1.743-8.71,5.829-2.32,16.45,3.001c7.432,3.726,2.591,15.063,8.324,23.813c2.562,3.913,2.571,4.54,0.154,11.284
		c-3.167,8.841-3.262,19.252-0.249,27.791c3.01,8.535,3.015,8.511-2.194,13.153c-8.082,7.201-11.615,21.104-6.937,27.291
		c4.136,5.468,2.766,8.401-5.783,12.381c-12.913,6.011-22.561,4.947-22.561-2.488c0-7.809-7.805-14.878-12.807-11.602
		c-7.009,4.593-5.213,12.668,4.102,18.443c4.285,2.655,4.289,2.677,1.53,6.891c-8.142,12.437-29.914,23.422-37.292,18.813
		c-4.575-2.855-6.251-2.156-5.729,2.391c1.592,13.832,39.07-1.236,47.458-19.08l3.154-6.708c5.447,0.681,21.14,4.483,31.651-8.182
		c1.539-1.854,3.662-2.187,9.232-1.447c14.483,1.921,24.828-15.305,14.393-23.965c-3.1-2.574-4.535-0.577-2.554,3.555
		c3.613,7.542,3.506,8.979-1.019,13.501c-8.391,8.391-14.921,4.561-9.979-5.854c1.49-3.14,2.958-10.172,3.263-15.625
		c0.661-11.814,0.335-11.427,12.175-14.468c14.823-3.805,14.315-4.142,14.28,9.442c-0.092,34.833-6.685,54.419-16.588,49.256
		c-6.914-3.602-10.914-3.143-10.914,1.256c0,4.648-8.565,12.277-6.158,14.684c2.135,2.135,7.198-2.868,9.279-9.17
		c0.938-2.842,2.296-5.168,3.016-5.168c3.018,0,10.059,3.375,11.787,5.649c1.461,1.921,2.335,2.062,4.036,0.652
		c2.845-2.362,14.718-0.514,15.862,2.467c1.465,3.818-3.73,12.646-7.443,12.646c-3.115,0-3.165,0.173-0.803,2.782
		c4.575,5.056,0.24,11.42-7.015,10.302c-6.859-1.057-7.616,1.257-1.147,3.512c4.202,1.465,6.447,4.818,3.224,4.818
		c-0.75,0-1.819,1.813-2.375,4.029c-1.109,4.421-18.999,4.633-22.299,0.265c-3.604-4.768-36.543,14.89-34.353,20.503
		c2.79,7.152,11.831,4.306,23.02-7.247c8.395-8.668,9.928-9.209,20.929-7.391c9.379,1.549-3.556,20.051-21.282,30.439
		c-3.639,2.132-7.648,5.874-8.909,8.313c-3.696,7.147-8.269,9.668-12.506,6.892c-8.273-5.42-24.985-1.194-24.985,6.319
		c0,4.392,3.574,4.841,6.414,0.809c4.573-6.499,17.236-5.861,15.567,0.783c-0.855,3.406-0.584,3.648,3.072,2.73
		c8.336-2.092,2.565,16.579-6.388,20.665c-5.225,2.386-15.199,1.942-19.485-0.866c-10.781-7.064,6.938-4.896,6.938-11.415
		c0-9.557-16.825,12.735-16.825-3.705c0-7.204-3.059-7.151-3.059-5.444c0,3.911-8.302-2.347-2.232,9.389
		c4.454,8.615,0.841,6.442-22.241,11.45c-18.885,4.098-52.426,3.377-39.536,11.546c8.212,5.204,53.323-7.987,62.756-11.039
		c5.193-1.681,6-1.511,10.37,2.165c16.458,13.85,40.029,1.429,37.825-19.933c-1.361-13.174,1.342-5.355,8.896-18.2
		c2.595-4.41,5.04-6.565,8.152-7.188c3.98-0.797,21.665-18.385,21.665-21.548c0-1.303,5.885-7.391,7.354-8.975l4.489,3.197
		c2.469,1.757,5.372,4.261,6.452,5.562c3.428,4.13,7.272,2.873,8.321-2.721c2.946-15.696,12.172-8.634,12.643,9.676
		c0.231,8.994,0.578,9.991,3.642,10.458c6.543,0.994,1.823-20.882-7.138-33.089c-2.53-3.445-2.414-3.671,6.067-11.885
		c10.476-10.147,10.488-9.246-0.15-10.231c-13.031-1.207-17.68-3.75-16.613-9.085
		C3946.567,4706.917,3950.766,4701.011,3953.848,4701.011z M3972.967,4665.133c-2.6-3.969-1.901-6.95,1.629-6.95
		c2.368,0,6.88,5.74,6.88,8.752C3981.476,4670.317,3975.538,4669.058,3972.967,4665.133z M3962.686,4612.585
		c5.546-0.536,7.201,2.625,6.283,12.001c-0.549,5.62-1.927,6.511-6.949,4.499
		C3954.704,4626.153,3955.223,4613.307,3962.686,4612.585z M3812.666,4573.996c-10.764-18.222,13.546-27.133,31.001-11.363
		C3876.939,4592.694,3822.124,4590.003,3812.666,4573.996z M3771.926,4555.792c0-1.634,0.61-3.347,1.355-3.807
		c1.863-1.151,5.26,3.205,4.04,5.179C3775.646,4559.874,3771.926,4558.927,3771.926,4555.792z M3852.279,4678.125
		c-2.678-2.959-2.323-7.705,0.579-7.705c1.869,0,6.253,6.139,6.253,8.754C3859.111,4682.104,3855.358,4681.527,3852.279,4678.125z
		 M3884.575,4759.94c-7.648,3.814-9.772,2.079-3.926-3.211c3.596-3.254,14.047-8.405,15.042-7.411
		C3896.801,4750.429,3889.333,4757.566,3884.575,4759.94z M3924.867,4532.767c16.452-8.804,31.381,10.934,18.791,24.845
		c-6.732,7.44-6.32-2.695-16.425-13.881C3921.021,4536.854,3920.627,4535.035,3924.867,4532.767z M3912.398,4541.396
		c3.946-3.573,6.949-1.969,12.495,6.676c2.611,4.067,5.74,8.22,6.956,9.229c3.324,2.759,2.668,7.097-1.231,8.144
		c-7.804,2.091-28.462,0.251-29.569-2.635C3900.183,4560.554,3908.437,4544.98,3912.398,4541.396z M3899.96,4665.449
		c-2.204,4.75-5.069,4.306-6.944-1.077c-2.837-8.141,4.046-23.097,9.642-20.949
		C3906.679,4644.966,3905.679,4653.13,3899.96,4665.449z M3931.645,4618.485c2.848,9.59,3.029,9.327-8.014,11.661
		c-20.352,4.301-17.992,4.668-19.948-3.102c-4.494-17.848-0.297-33.696,7.616-28.756c7.448,4.651,21.232-0.042,21.232-7.229
		c0-7.813-15.629-10.918-22.494-4.47c-5.002,4.697-7.989,1.369-9.186-10.237c-0.915-8.852-0.901-8.89,2.762-7.75
		c6.638,2.067,20.381,2.675,26.851,1.189c7.916-1.819,8.425-1.453,12.314,8.854c11.146,29.536,10.508,34.051-4.336,30.715
		C3929.739,4607.405,3928.749,4608.734,3931.645,4618.485z M3909.587,4592.514c0-4.605,15.766-6.597,17.452-2.202
		c0.525,1.369,0.17,3.434-0.788,4.588C3923.357,4598.386,3909.587,4596.415,3909.587,4592.514z M3945.515,4749.993
		c-3.249,7.206-4.438,7.38-11.342,1.655c-7.935-6.579-2.866-17.59,6.464-14.043
		C3947.378,4740.169,3948.575,4743.208,3945.515,4749.993z M3953.921,4734.281c-2.489,2.734-4.705,4.923-4.927,4.864
		c-8.844-2.354-11.546-6.903-8.081-13.604l2.265-4.381C3959.225,4726.291,3961.5,4725.95,3953.921,4734.281z M3939.78,4697.655
		c-8.694,0.558-9.447-0.609-7.217-11.189c3.673-17.417,6.18-40.38,5.427-49.695c-0.442-5.468-0.991-13.039-1.221-16.825
		l-0.416-6.883c19.99,1.419,17.59-0.861,17.59,16.097l-5.927-0.948c-3.673-0.587-6.323-0.303-6.973,0.747
		c-0.697,1.13,0.959,1.694,4.974,1.694c10.142,0,11.173,15.827,3.527,54.099l-2.484,12.437L3939.78,4697.655z"/>
	<path d="M281.465,4823.375c-2.02,0-2.021,3.06,0,3.06C283.485,4826.435,283.485,4823.375,281.465,4823.375z"/>
	<path d="M3956.269,4784.977c-3.327,15.147-31.391,14.871-31.391-0.307c0-9.788,12.931-17.541,18.355-11.005
		c1.046,1.262,2.876,2.294,4.064,2.294c4.306,0-0.906-5.947-6.585-7.515c-19.176-5.295-27.843,20.086-10.48,30.7
		c12.397,7.581,32.733-2.079,30.301-14.39C3959.452,4779.286,3957.496,4779.388,3956.269,4784.977z"/>
	<path d="M3845.341,4760.889c0-9.378,33.135-29.022,51.263-30.394c17.716-1.339,25.226-10.45-13.024-1.855
		c-7.795,1.751-22.943,8.92-22.943,10.858c0,0.705-0.861,1.303-1.912,1.329c-2.156,0.053-11.995,10.54-21.031,22.416
		c-4.59,6.033-6.594,10.603-8.361,19.072l-2.322,11.138c0.337,0.276,8.284,6.849,8.711,6.922c0.179,0.031,0.15-5.156-0.066-11.523
		c-0.365-10.869-0.081-12.038,4.647-19.06C3843.074,4765.68,3845.341,4761.672,3845.341,4760.889z"/>
	<path d="M553.345,4754.792c-1.506-4.8-15.89-8.725-21.94-5.841c-7.336,3.5-10.819,3.183-15.395-1.394
		c-7.204-7.204-17.272-8.888-23.641-3.952c-2.007,1.554-6.976,3.27-11.043,3.812c-4.068,0.543-9.456,2.453-11.973,4.246
		c-6.668,4.748-9.162,1.594-3.789-4.791c14.195-16.871-17.155-26.83-13.821-2.498c0.803,5.858,0.462,7.155-2.458,9.321
		c-3.302,2.451-3.226,2.495,2.931,1.693c17.979-2.341,2.117,12.846,10.161,23.247c5.572,7.206,19.089-6.109,10.305-14.891
		c-4.007-4.009-3.897-6.73,0.361-8.939c7.109-3.686,11.046-2.991,11.533,2.033c1.132,11.69,9.682,19.592,15.215,14.06
		c3.018-3.02,0.704-12.692-4.07-17.013c-8.75-7.919,9.699-9.176,14.56-3.711c5.841,6.573,11.034,8.722,17.163,7.104
		c9.985-2.637,15.188-3.07,16.252-1.351c1.451,2.35,7.582,2.244,9.317,0.47C551.8,4755.753,551.711,4755.223,553.345,4754.792z
		 M455.798,4737c4.729-5.699,11.303,0.078,7.717,6.779C459.187,4751.867,452.199,4741.334,455.798,4737z M464.11,4770.594
		c-1.416-5.64,1.842-8.718,4.875-4.607C474.557,4773.537,465.853,4777.541,464.11,4770.594z M497.135,4765.323
		c0,3.073-5.79,1.354-6.684-1.984c-1.43-5.338-1.143-7.266,1.084-7.266C493.465,4756.074,497.135,4762.136,497.135,4765.323z"/>
	<path d="M3528.647,4753.019c-6.285-0.006-7.634-2.502-5.151-9.538c7.308-20.713-23.388-19.714-11.634,2.219
		c3.878,7.233,1.253,10.797-7.42,10.073c-5.263-0.44-5.589-0.791-6.406-6.909c-2.671-20.021-23.159-14.124-11.375,3.241
		c4.816,7.099,4.784,8.267-0.282,10.194c-5.13,1.95-11.961-0.587-15.3-5.682c-3.396-5.182-12.916-7.428-18.733-4.419
		c-5.766,2.981-8.31,2.949-14.926-0.191c-4.217-1.999-5.598-2.127-6.54-0.601c-0.658,1.065-1.582,1.313-2.053,0.551
		c-0.955-1.549,6.488-0.465-543.285-0.435c-456.165,0.014-505.676,0.364-502.416,3.563c1.094,1.068,861.753,2.031,960.52,1.068
		l86.42-0.843c10.974,5.206,16.631,9.262,26.25,1.961c2.091-1.586,9.993,1.696,16.261,6.756c5.782,4.669,15.111,4.69,19.441,0.043
		c5.365-5.757,10.235-0.991,20.949-7.116c6.992-3.999,12.622-2.203,7.203,2.296c-3.143,2.608-5.542,8.82-4.228,10.948
		c0.563,0.91,2.273-0.836,3.871-3.952c3.287-6.407,4.332-6.738,8.11-2.563c4.222,4.665-0.465,11.383-6.949,9.96
		c-5.39-1.185-6.198,1.735-1.046,3.783c3.629,1.443,8.527,0.687,11.089-1.716
		C3534.822,4772.143,3532.824,4753.019,3528.647,4753.019z M3494.397,4751.339c-1.511,2.445-2.935,2.064-5.075-1.363
		c-2.484-3.979-2.418-7.669,0.139-7.669C3492.047,4742.307,3495.769,4749.117,3494.397,4751.339z M3520.425,4741.629
		c-1.129,4.495-3.261,4.803-5.415,0.778c-2.459-4.595-1.895-7.749,1.386-7.749
		C3520.251,4734.659,3521.593,4736.979,3520.425,4741.629z"/>
	<path d="M8.646,4773.663c-1.176,3.061,2.083,3.058,2.083,0C10.73,4770.813,9.864,4770.493,8.646,4773.663z"/>
	<path d="M1042.418,4754.362c-74.872,0.075-215.114-0.274-311.648-0.774c-128.954-0.668-170.187-0.705-177.425,1.205
		c0.185,0.589,0.254,1.004-0.333,1.605c0.818,0.435,2.141,0.921,3.783,1.464c4.347,1.435,665.062,1.438,665.951,0
		C1225.043,4754.145,1226.859,4754.18,1042.418,4754.362z"/>
	<path d="M3926.632,4703.303c-4.093,4.36-6.001,7.299-10.34,6.211c-5.483-1.378-3.979,3.73-1.355,3.73
		c2.964,0,2.908,2.232-0.176,6.937c-3.601,5.495,1.155,5.225,5.175-0.292c5.344-7.337,16.677-1.342,10.387-5.984
		c-4.383-3.232-6.051-1.073-4.734-6.396L3926.632,4703.303z"/>
	<path d="M3808.442,4692.967c-5.146-2.952-6.701,1.166-1.935,5.123c13.105,10.875,28.996-11.816,16.81-24.002
		c-15.94-15.939-45.2,8.491-30.744,25.669c2.103,2.501,3.824,5.754,3.824,7.232s0.434,3.122,0.969,3.654
		c1.401,1.405,13.596-8.105,8.278-8.105c-2.373,0-9.233-7.567-9.422-10.393c-1.101-16.287,21.741-25.431,25.556-10.231
		C3823.903,4690.384,3815.735,4697.154,3808.442,4692.967z"/>
	<path d="M8.755,4629.501c0.366-1.894,0.366-4.991,0-6.883C7.871,4618.021,7.87,4634.099,8.755,4629.501z"/>
	<path d="M3856.055,4495.329c0-4.199,5.898-7.521,10.02-5.643c8.547,3.895,15.982,1.426,15.982-5.308
		c0-7.299-9.668-10.872-16.15-5.97c-1.634,1.236-4.887,2.268-7.229,2.294c-3.703,0.043-4.058,0.429-2.709,2.948
		c2.502,4.677-2.347,7.854-5.38,3.524c-6.699-9.562-27.593-2.631-16.684,8.277
		C3840.55,4502.095,3856.055,4498.098,3856.055,4495.329z M3867.443,4482.352c2.642-2.193,8.78-1.573,9.616,0.973
		c0.783,2.378-4.04,4.623-8.385,3.903C3864.702,4486.57,3864.296,4484.962,3867.443,4482.352z M3848.407,4493.753
		c-2.481,2.988-10.521,3.034-11.684,0C3832.557,4482.886,3854.472,4486.445,3848.407,4493.753z"/>
	<path d="M160.35,4471.146c-0.659-6.738-7.788-8.869-16.513-4.935c-7.47,3.37-10.727,1.458-10.727-6.295
		c0-4.704,0.405-5.167,4.517-5.167c9.624,0,17.937-7.797,14.378-13.483c-2.562-4.095-8.87-3.916-15.779,0.447
		c-10.943,6.908-13.867-4.357-3.881-14.945c13.14-13.929-2.269-20.528,3.402-31.899c5.418-10.856,1.069-21.304-1.891-284.271
		c-3.247-288.001-3.098-399.104-4.684-522.345c-1.393-108.274-0.86-408.214-4.607-1127.286
		C120.847,1747.76,124.404,889,124.512,887.05c2.371-42.868,0.245-276.507,4.664-285.047c7.999-15.473-9.85-14.12,2.128-28.077
		c17.119-19.952-0.947-22.488,0.05-34.08c0.309-3.601-0.762-6.976-3.487-10.987c-6.597-9.708-4.406-12.912,3.994-5.844
		c10.109,8.507,24.632-2.005,14.916-10.797c-5.617-5.085-22.843-4.219-22.844,1.147c0,5.644-1.944,6.398-10.936,4.241
		c-7.371-1.768-7.908-1.681-11.467,1.88c-8.292,8.292,2.816,16.975,13.436,10.5c6.58-4.012,6.718-3.991,8.908,1.295
		c3.177,7.671,1.678,11.18-4.946,11.573c-9.442,0.56-16.489,9.294-11.513,14.269c3.018,3.018,8.041,2.105,14.612-2.655
		c11.138-8.069,15.058,3.559,4.867,14.433c-15.637,16.683,2.461,19.027-5.175,33.748c-3.635,7.005,1.177-6.503-1.645,125.326
		c-3.222,150.786-3.482,1440.202-3.752,1469.908c0,0,2.745,239.023,3.784,657.711c1.46,587.738,3.617,817.971,4.353,913.148
		c2.367,305.677,3.002,276.604,4.945,444.337c1.995,171.658,5.316,172.136-2.709,184.983c-1.503,2.408-1.187,4.174,1.779,9.941
		c3.538,6.88,2.632,14.625-1.708,14.625c-5.864,0-8.662,17.192-3.835,23.564c1.973,2.602,3.969,7.634,4.437,11.18
		c0.466,3.547,2.294,8.286,4.061,10.531c1.767,2.245,3.212,5.023,3.212,6.171c0,2.819-4.463,2.665-5.56-0.192
		c-2.03-5.286-12.851-6.374-16.876-1.696c-7.06,8.209-0.125,17.137,12.178,15.681c5.647-0.67,7.503-0.355,8.035,1.359
		c1.068,3.447,1.71,6.82,3.751,6.82c2.973,0,3.313-4.25,0.739-9.229C126.965,4467.609,162.344,4491.525,160.35,4471.146z
		 M152.35,4469.115c2.919,1.119,2.766,4.965-0.245,6.12c-3.085,1.184-2.648,1.27-5.976-1.164
		C142.796,4471.633,148.036,4467.458,152.35,4469.115z M143.345,4442.562c2.464-0.065,4.194,2.983,2.557,4.501
		c-2.484,2.304-7.94,3.23-8.992,1.528C135.806,4446.805,140.246,4442.644,143.345,4442.562z M134.301,513.328
		c5.687-2.694,9.973-0.381,9.208,4.97c-0.646,4.517-6.389,4.908-10.575,0.723l-3.423-3.424L134.301,513.328z M109.773,527.678
		c-2.886,1.108-5.91-2.645-4.271-5.298c1.669-2.701,9.254-0.9,9.254,2.199C114.756,527.5,113.145,526.384,109.773,527.678z
		 M120.218,552.19c-3.321,3.321-8.521,2.787-8.521-0.873c0-3.878,2.127-2.649,7.265-4.023
		C122.924,546.231,123.588,548.821,120.218,552.19z M125.587,4482.282c-0.773,0-2.405,0.384-3.627,0.852
		c-1.222,0.47-3.393-0.316-4.823-1.747c-3.99-3.991,0.41-8.063,5.974-5.528C126.779,4477.531,128.611,4482.282,125.587,4482.282z"/>
	<path d="M3843.809,548.595c-10.422,1-16.905,8.131-11.921,13.113c3.197,3.197,15.764-0.098,17.793-4.665
		c0.938-2.108,6.034-1.178,6.975,1.273c6.145,16.01-15.888,16.104-8.992,36.416c2.242,6.605,2.261,7.911,0.184,13.102
		c-1.724,4.307-1.868,6.207-0.568,7.505c1.298,1.298,1.217,1.739-0.32,1.739c-1.721,0-1.899,30.304-1.077,183.93
		c3.188,596.742,3.504,879.689,6.349,1100.901c8.213,638.866-1.482,2516.804-1.482,2516.804c3.795,5.017,2.727,11.02-3.108,17.479
		c-6.88,7.616-7.576,17.464-1.629,23.054c6.219,5.841,2.137,12.78,4.599,16.771c2.033,3.289,4.15,1.649,3.272-2.535
		c-1.218-5.796,0.337-7.432,8.024-8.435c19.912-2.601,12.089-20.01,1.946-13.854c-12.654,7.674-12.443,7.611-14.797,4.407
		c-3.494-4.758-2.556-9.609,3.065-15.83c15.347-16.987-2.235-20.533,4.731-33.468c2.355-4.373,2.529-5.841,0.979-8.322
		c-1.035-1.657-1.542-3.561-1.127-4.232c1.682-2.723,5.498-2033.053,0.115-2669.267c-1.063-125.656-2.094-563.198-3.07-662.3
		c-1.082-109.437-1.915-345.105-3.237-404.029c-0.939-41.862-0.915-42.356,2.531-49.256c3.373-6.752,3.402-7.175,0.952-13.592
		c-3.497-9.156-3.292-10.397,3.069-18.56c6.499-8.344,7.247-16.079,2.085-21.573c-4.712-5.018-1.011-9.202-7.222-20.704
		c-5.296-9.803-3.243-13.304,4.151-7.082c10.637,8.951,24.765-0.234,15.15-9.849c-6.86-6.86-19.969,1.773-21.018-5.615
		c-0.629-4.444-4.104-4.753-2.615,0c2.829,9.061-0.991,15.144-7.617,12.125c-9.174-4.18-19.1,0.161-16.818,7.356
		c1.866,5.878,16.538,6.978,19.927,1.495c2.472-4.002,8.377,3.934,8.377,11.257C3851.466,547.483,3850.689,547.933,3843.809,548.595
		z M3836.33,559.069c-3.347-2.1-0.919-5.704,4.584-6.803C3856.265,549.196,3843.254,563.419,3836.33,559.069z M3865.419,4454.748
		c5.62,0,5.936,4.081,0.479,6.157c-4.656,1.77-3.985,1.765-6.686,0.055C3855.87,4458.844,3859.963,4454.748,3865.419,4454.748z
		 M3858.75,518.235c5.632-3.518,13.546,3.004,9.525,7.849c-2.405,2.899-4.569,2.871-8.821-0.107
		C3855.358,523.108,3855.12,520.501,3858.75,518.235z M3837.688,531.736c-5.233,4.237-9.166,3.405-9.166-1.937
		c0-3.414,7.128-5.306,10.245-2.718C3840.788,528.758,3840.654,529.333,3837.688,531.736z"/>
	<path d="M3713.122,3616.668c1.182,1.913,4.079,0.125,2.897-1.79C3714.836,3612.965,3711.939,3614.753,3713.122,3616.668z"/>
	<path d="M3605.207,1147.82c2.021,0,2.021-3.059,0-3.059S3603.187,1147.82,3605.207,1147.82z"/>
	<path d="M9.493,338.519c-6.496-2.509,0.387-14.829,10.923-19.553c23.324-10.455,8-4.935,6.461,43.366
		c-0.534,16.772-0.953,17.391-9.379,13.869c-7.628-3.186-8.787-1.528-5.849,8.367c4.342,14.646-3.418,25.735,9.136,19.187
		c7.019-3.66,7.268-3.36,12.331,14.85c2.631,9.463,5.728,19.497,6.883,22.3c2.012,4.884,1.923,5.22-2.155,8.191
		c-7.559,5.508-10.797,17.752-6.79,25.672c4.999,9.878,21.869,14.182,30.164,7.694c5.369-4.2,7.353-3.831,13.509,2.507
		c31.746,32.692,136.246,22.928,136.369-56.297c0.09-58.068-83.444-69.217-88.26-11.779c-0.806,9.621-1.574,11.834-5.655,16.305
		c-5.725,6.271-8.422,10.88-8.494,14.514c-0.089,4.459-4.335,4.757-9.679,0.681c-10.158-7.747-10.611-0.654-11.946-14.592
		c-1.626-16.995-7.436-10.205-2.359-25.522c3.143-9.484,1.128-16.995-2.686-34.327l5.926-5.121
		c7.203-6.227,9.59-20.496,4.682-27.988c-4.615-7.044,5.936-14.364,20.736-14.387c5.064-0.007,5.635,0.457,7.282,5.961
		c2.606,8.697,6.533,13.017,10.647,11.711c8.203-2.604,7.948-12.472-0.457-17.666c-5.231-3.234-5.292-3.387-3.055-7.712
		c12.373-23.927,50.511-28.231,57.04-6.436c5.429,18.116-17.864,32.859-23.792,15.063c-3.319-9.96,4.657-16.652,12.937-10.854
		c3.449,2.416,5.634,1.043,4.216-2.649c-1.12-2.918-9.876-5.902-14.083-4.8c-9.387,2.46-12.588,19.187-5.106,26.669
		c12.657,12.657,36.061-1.906,32.921-20.487c-5.342-31.617-55.595-30.467-68.985,1.578c-5.017,12.011-11-4.695-31.732,12.289
		c-3.64,2.981-5.493,3.455-10.312,2.642c-12.359-2.088-22.261,9.985-17.512,21.35c3.694,8.844,10.297,6.221,4.613-1.896
		c-7.445-10.625,21.938-26.05,11.755-5.657c-4.107,8.221-4.104,17.097-4.635,24.698c-0.142,2.045-2.54,3.111-13.63,6.055
		c-11.947,3.171-13.036-0.107-9.197-27.688c4.101-29.467,6.256-34.048,14.413-30.64c8.175,3.417,8.715,3.139,12.604-6.478
		c6.071-15.014,6.238-14.122-2.651-14.122c-9.068,0-11.099-2.394-7.146-8.425c2.103-3.209,3.689-3.812,10.035-3.812
		c45.896,0,85.094-47.631,71.12-86.42c-1.213-3.365-2.212-6.525-2.227-7.021c-0.013-0.497,3.934-1.789,8.772-2.874
		c16.496-3.699,22.05-5.799,40.584-7.102c15.603-1.097,17.059-1.664,15.393-6.005c-0.882-2.297-2.761-2.534-14.918-1.884
		c-31.881,1.705-51.828,16.116-56.173,10.878c-14.021-16.894-42.988-3.035-40.455,19.357c1.013,8.948,0.93,9.242-3.012,10.741
		c-5.727,2.176-31.573,29.011-35.168,36.51c-3.679,7.677-7.236,8.079-14.308,1.621c-16.375-14.956-9.745,22.557-19.788,2.794
		c-11.691-22.998,9.037-52.253,26.088-36.821c9.875,8.937-3.09,25.126-13.937,17.402c-6.16-4.386-8.399-1.014-2.626,3.952
		c10.146,8.726,25.398,0.977,25.398-12.903c0-15.56-17.397-24.198-30.691-15.239c-16.218,10.928-18.944,33.066-6.25,50.743
		l4.495,6.261c-2.727,3.748-7.087,10.395-13.014,14.278c-18.411,12.071,23.105,0.716,20.499,13.703
		c-1.99,9.907-3.825,12.501-8.85,12.501c-24.843,0-42.629,41.232-20.212,46.858C22.859,359.642,22.169,343.413,9.493,338.519z
		 M128.403,330.233c2.068,0.656,3.175,2.306,3.175,4.728c0,4.808-2.32,4.743-5.526-0.15
		C123.117,330.331,123.901,328.804,128.403,330.233z M22.971,398.335c-4.893,0-8.547-11.94-4.801-15.685
		C24.439,376.377,35.707,398.335,22.971,398.335z M40.148,383.04c6.091,0,8.835,3.358,8.835,10.806
		c0,4.443-10.996,4.164-15.236-0.387C28.141,387.442,30.845,383.04,40.148,383.04z M55.593,478.493
		c-3.936,1.341-7.206,2.385-7.265,2.317c-0.932-1-11.582-1.982-11.582-14.753c0-12.68,7.282-20.106,11.473-11.701
		c0.884,1.774,4.515,6.995,8.068,11.6C64.212,476.23,64.25,475.543,55.593,478.493z M56.384,457.988
		c-8.593-11.787-7.154-13.725,10.188-13.725c18.23,0,19.317,2.171,8.931,17.818C68.252,473.007,67.164,472.773,56.384,457.988z
		 M85.211,454.649c1.658-8.287,18.128-2.352,20.667,7.448c2.753,10.622,10.962,4.174,7.635-1.154
		c-2.7-4.322-2.239-8.347,1.884-16.486c5.987-11.814,7.801-12.463,11.695-4.18c11.683,24.854,50.371,27.566,50.371,3.53
		c0-17.121-19.991-27.776-43.975-23.436c-7.58,1.372-7.801,0.786-4.004-10.675c10.663-32.185,53.318-33.661,68.919-2.385
		c27.946,56.016-53.467,117.827-117.684,74.672c-10.462-7.03-10.198-5.485-2.59-15.112
		C81.545,462.554,84.731,457.053,85.211,454.649z M144.831,424.338c19.664,0,35.783,20.254,22.42,28.174
		c-11.01,6.527-24.199,1.937-34.368-11.961C124.522,429.124,128.048,424.338,144.831,424.338z M86.993,341.741
		c5.526,0,4.365,16.509-1.612,22.924C74.365,376.489,82.78,341.741,86.993,341.741z M53.412,393.948
		c-2.58-7.403-0.725-12.438,4.584-12.438c10.367,0,26.22-14.595,22.745,21.59c-0.951,9.899-2.561,11.472-8.564,8.367
		c-12.161-6.29-26.562,4.696-17.732,13.527c3.662,3.662,14.226,3.119,18.561-0.953c4.618-4.338,7.873-1.592,9.69,8.177
		c3.146,16.926-10.142,3.022-25.403,7.258c-12.307,3.417-12.501,3.232-18.231-17.432c-2.333-8.413-4.503-15.756-4.823-16.319
		c-1.705-3.007,4.138-5.43,10.351-4.294C54.947,403.325,56.284,402.191,53.412,393.948z M57.474,420.171
		c-1.45-3.778,3.446-6.938,9.049-5.841C84.439,417.834,60.357,427.682,57.474,420.171z M47.835,309.916
		c-7.071-0.512-7.542-1.442-4.765-9.411c2.672-7.663,16.619-4.657,16.619,3.582C59.689,308.5,55.657,310.482,47.835,309.916z
		 M50.199,283.96c2.435-3.163,3.168-3.319,7.997-1.703c7.568,2.533,8.48,3.762,6.097,8.214c-2.099,3.922-8.105,5.324-9.957,2.325
		c-0.52-0.841-2.282-1.53-3.914-1.53C46.755,291.266,46.672,288.543,50.199,283.96z M70.225,301.364
		c7.305,1.295,7.795,2.019,5.321,7.874c-2.151,5.089-3.98,5.667-11.268,3.563C56.023,310.415,61.532,299.822,70.225,301.364z
		 M126.681,183.753c13.711,2.105,13.946,5.41,0.846,11.915c-19.147,9.507-19.161,14.795-21.143,8.549
		C103.693,195.74,117.051,182.274,126.681,183.753z M104.366,216.577l10.929,0.806c12.503,0.922,19.343-2.469,19.343-9.589
		c0-4.682-1.133-4.667-6.091,0.083c-4.465,4.278-11.899,6.212-15.279,3.977c-2.776-1.836-3.539-1.248,12.747-9.817
		c15.412-8.112,17.364-8.486,19.176-3.692c10.75,28.422-12.638,69.133-44.969,78.28c-10.415,2.947-21.021,4.184-23.292,2.715
		c-3.264-2.109,4.099-10.796,10.696-12.616c17.819-4.921,29.892-18.121,20.95-22.905c-5.295-2.834-19.826,5.886-19.826,11.899
		c0,2.134,0.269,2.137,2.677,0.026c4.301-3.772,12.374-7.409,13.26-5.974c1.602,2.589-13.004,11.953-15.877,10.177
		c-0.759-0.468-3.697,0.252-6.53,1.605c-4.543,2.166-6.01,2.204-12.441,0.329l-7.292-2.126
		C88.799,229.816,85.688,233.104,104.366,216.577z M62.51,265.86c1.393,0.39,5.503,1.171,9.133,1.737
		c9.968,1.552,3.8,1.784,1.328,8.755c-1.19,3.354-12.643,3.642-16.892,0.423C52.473,274.046,58.035,264.604,62.51,265.86z
		 M40.031,262.212c2.527-7.25,3.929-7.163,14.853,0.939c0.301,0.223-0.382,2.512-1.52,5.084
		C49.407,277.172,36.801,271.48,40.031,262.212z M33.304,286.22c-5.213-2.06-5.272-3.778-0.317-9.122
		c6.58-7.096,15.921-0.389,11.351,8.151C42.601,288.496,39.71,288.751,33.304,286.22z M48.129,313.726
		c9.392,1.526,3.817,4.841,1.844,18.073c-1.91,12.85-4.042,21.357-4.042,36.237c-0.004,6.47-0.524,11.987-1.155,12.26
		c-3.224,1.392-12.469-0.696-12.906-2.914c-0.797-4.049,1.578-35.893,3.287-44.053C38.989,315.032,36.807,311.89,48.129,313.726z
		 M7.75,343.995c2.236-1.383,6.053,2.137,6.053,5.583c0,3.246-3.058,3.79-5.812,1.035C5.729,348.352,5.619,345.311,7.75,343.995z"/>
	<path d="M3829.586,436.658c40.555-10.211,15.507-67.871-25.619-58.972c-62.181,13.457-50.443,104.198,15.826,122.348
		c23.742,6.504,59.377-1.924,81.435-19.259l9.528-7.487c13.173,6.03,23.601,12.757,40.72-0.676
		c10.826-8.497,4.318-39.097-8.316-39.097c-4.194,0-3.718,1.069,1.728,3.887c11.221,5.803,12.321,22.313,2.163,32.471l-6.894,6.894
		l-8.919-0.809c-14.575-1.322-18.864-5.812-12.263-12.841c2.717-2.893,4.338-3.336,9.56-2.623
		c18.145,2.481,16.852-22.878,10.282-9.729c-4.149,8.305-17.515,7.372-10.768-2.105c4.534-6.36,1.405-4.057,5.799-10.32
		c9.438-13.449,0.629-19.355,19.792-19.355c9.462,0,10.283-0.263,10.735-3.441c0.564-3.969-0.795-4.269-4.987-1.098
		c-6.469,4.892-14.608,2.961-14.719-3.49l-0.098-5.736l-2.55,5.13c-2.459,4.951-2.791,5.098-9.425,4.189
		c-10.357-1.421-11.51-3.264-8.769-14.026c3.362-13.203-0.595-11.749,0.613-19.825c3.032-20.296-19.551-61.991-41.908-77.38
		c-30.824-21.217-79.886-17.313-95.708,7.613c-10.124,15.94-11.752,27.311-11.244,28.638c1.635,4.26,4.665,1.418,5.952-5.583
		c9.188-49.992,82.618-55.292,118.348-8.543c27.621,36.139,22.848,78.631,12.337,59.849c-0.696-1.245-3.841-3.576-6.988-5.182
		c-12.204-6.225-24.638-22.749-21.013-27.923c5.491-7.841,1.499-18.026-6.077-15.501c-5.413,1.803-7.065,7.051-4.354,13.838
		c5.529,13.847-24.872,12.61-36.033-1.467c-9.183-11.585-2.192-30.247,11.331-30.247c5.548,0,11.559,5.524,11.559,10.624
		c0,4.301-5.834,9.26-10.895,9.26c-4.959,0-5.586,3.246-0.763,3.954c13.128,1.927,20.792-14.538,11.033-23.707
		c-12.726-11.956-31.517,1.235-29.505,20.712c1.952,18.922,24.231,30.291,43.482,22.189c4.904-2.065,4.997-2.02,13.001,6.123
		c11.614,11.817,18.362,17.567,21.954,18.706c10.112,3.21,12.851,8.189,10.479,19.049c-0.968,4.433-7.698,3.549-15.839-2.08
		c-5.94-4.108-7.767-3.703-7.767,1.728c0,4.863-3.965,14.392-5.988,14.392c-0.857,0-3.971-1.152-6.921-2.558
		c-6.423-3.064-13.093-1.025-13.093,4c0,4.164,5.479,6.742,13.917,6.55c13.375-0.304,19.863,15.629,9.528,23.393
		c-3.221,2.419-6.213,4.906-6.649,5.526c-9.341,13.284-51.207,18.43-70.745,8.696c-24.141-12.027-31.391-51.676-11.283-61.707
		c6.251-3.118,6.672-2.85,2.493,1.599C3794.584,418.548,3810.927,441.357,3829.586,436.658z M3875.987,349.483
		c-1.924-3.596,0.463-9.864,3.386-8.89C3888.005,343.468,3880.3,357.541,3875.987,349.483z M3873.897,423.318
		c-1.837-1.837-1.068-5.098,1.204-5.098c3.162,0,10.014,3.309,10.014,4.835C3885.115,424.57,3875.38,424.8,3873.897,423.318z
		 M3927.802,443.406c-3.986,7.513-7.115,9.736-8.527,6.057c-1.704-4.44,1.657-12.006,6.013-13.538
		C3931.298,433.812,3931.915,435.652,3927.802,443.406z M3930.205,416.684c11.781,2.446,10.783,12.133-1.487,14.434
		c-8.971,1.683-14.854,12.653-11.505,21.457c1.281,3.374,1.124,5.073-0.738,7.914c-3.5,5.341-6.671,4.425-9.988-2.883
		c-4.006-8.826-4.052-8.587,4.82-25.345C3921.213,413.545,3919.981,414.561,3930.205,416.684z M3895.146,427.47
		c-3.019-2.505-3.061-6.785-0.089-9.251c1.262-1.048,2.294-2.897,2.294-4.111c0-4.734,3.018-8.169,5.782-6.58
		c9.075,5.219,16.015,2.194,8.861,17.053c-4.517,9.379-7.439,12.674-9.885,15.817l-2.29-5.476
		C3898.559,431.912,3896.457,428.557,3895.146,427.47z M3818.293,403.228c8.37-2.169,6.086-5.595-4.081-6.121
		c-19.044-0.985-32.187,24.193-23.979,45.943c14.197,37.626,64.763,44.851,101.28,14.473c13.039-10.846,8.558-1.058,12.673,4.379
		c8.494,11.23-18.711,28.588-52.721,33.637c-7.992,1.187-15.219,2.091-16.061,2.008c-70.655-6.936-92.863-97.15-28.731-116.707
		c10.29-3.137,29.516,5.736,34.626,15.979c9.267,18.575-1.93,39.195-19.468,35.853
		C3804.74,429.414,3802.097,407.425,3818.293,403.228z"/>
	<path d="M3821.639,194.827c11.017,4.928,19.49,0.446,18.032,16.511c-2.589,28.546,35.712,23.94,37.032,21.804
		c2.386-3.862,20.649,7.839,20.649,13.231c0,7.859-9.775,12.263-14.772,6.654c-13.011-14.603-7.01,13.33-24.169,7.669
		c-14.083-4.648-26.798,9.783-13.98,15.865c6.938,3.293,8.68,3.139,15.302-1.355c7.282-4.942,14.676-1.355,14.676,7.122
		c0,4.947,2.634,3.056,7.327-5.26c2.508-4.445,5.672-9.003,7.03-10.129c1.357-1.127,2.469-2.7,2.469-3.493
		c0-2.111,7.764-11.947,9.431-11.947c7.593,0,10.314,11.505,4.353,18.413l-4.569,5.295c-1.4-1.564-7.57-9.04-8.91-7.7
		c-0.585,0.587,0.11,1.927,1.548,2.978c1.438,1.052,3.313,3.749,4.167,5.994c2.14,5.629,3.723,5.159,9.439-2.802
		c6.363-8.859,7.308-8.7,13.327,2.248c5.6,10.185,5.199,13.114-2.455,17.983c-6.495,4.131-6.482,4.642,0.431,17.813
		c11.312,21.543,6.414,27.058,15.3,17.784c8.329-8.694,9.393-7.247,12.501,16.969c4.775,37.211,1.646,50.977-10.823,47.624
		c-3.731-1.002-6.834-1.126-7.669-0.303c-1.586,1.56,0.153,2.311,8.619,3.715c9.415,1.567,9.314,7.081,12.307,4.092
		c1.875-1.875,8.563-2.31,12.472-0.809c1.443,0.554,2.481,2.869,2.571,5.736c0.142,4.56,0.26,4.459,2.276-1.966
		c2.608-8.311,2.519-8.403-7.648-7.932l-8.232,0.382c0.35-36.403,1.105-47.718-4.204-69.284
		c-3.565-14.475,26.824-1.956,26.824,5.127c0.011,2.519,2.652,5.224,3.893,3.984c5.378-5.38-13.305-19.572-25.765-19.572
		c-12.667,0-5.172,1.027-15.908-21.025c-6.932-14.24-5.766-13.827,10.127-28.292l-5.815-7.079
		c-10.756-13.095-8.741-24.361-18.526-10.139c-10.633,15.451-12.264-0.765-15.554-0.765c-2.897,0-0.927-6.129,4.073-12.677
		c5.045-6.606,5.615-6.921,10.195-5.607c9.997,2.866,21.171-4.09,21.171-13.182c0-10.519-11.621-11.681-20.923-2.094
		c-9.372,9.663-10.454,6.62-21.671-6.885l-6.725,7.221c-10.097,10.843-20.625,6.126-19.704-8.829
		c0.75-12.192-10.231-19.004-20.935-12.989c-5.639,3.169-6.227,3.223-9.789,0.889c-16.96-11.112-75.262-23.573-80.54-17.214
		C3748.913,191.827,3789.557,180.47,3821.639,194.827z M3845.122,273.405c-4.275-5.15,5.947-11.736,13.134-8.461
		C3868.397,269.563,3849.972,279.253,3845.122,273.405z M3881.155,271.264c-4.85,5.765-5.659,5.809-9.202,0.5
		c-4.577-6.863-1.876-8.795,6.083-17.205l3.54,3.324C3886.146,262.178,3886.044,265.455,3881.155,271.264z M3931.671,299.447
		c8.278,18.147,8.556,20.819,2.536,24.374c-2.443,1.444-4.783,2.625-5.2,2.625c-0.8,0-11.77-25.533-11.77-27.398
		c0-1.377,12.237-11.459,12.237-6.101C3929.473,293.871,3930.462,296.797,3931.671,299.447z M3917.072,260.997
		c1.675-3.105,9.15-10.301,9.74-9.379c0.567,0.883,9.803,14.168,10.659,15.401l-4.473,5.525c-2.459,3.039-5.213,5.772-6.12,6.075
		C3924.075,279.554,3915.437,264.033,3917.072,260.997z M3921.941,219.053c6.299-5.269,12.627-5.315,13.368-0.096
		c0.353,2.486-0.883,4.234-4.589,6.494C3919.786,232.116,3912.594,226.874,3921.941,219.053z M3896.755,217.846l5.174,3.818
		c7.642,5.638,7.877,6.786,2.877,14.054c-5.493,7.982-4.521,7.964-11.16,0.209C3885.791,226.749,3887.049,227.147,3896.755,217.846z
		 M3859.351,196.456c5.306-0.021,10.469,7.643,10.469,15.545c0,2.042-1.873,1.25-9.754-4.133
		C3847.312,199.16,3847.147,196.508,3859.351,196.456z M3844.576,210.224c1.372-6.245,4.483-5.907,14.424,1.562
		c16.371,12.301,19.075,15.266,15.779,17.304C3863.1,236.307,3841.773,222.985,3844.576,210.224z"/>
	<path d="M3976.889,341.68c0-2.561-0.616-3.076-2.677-2.241c-6.53,2.643-22.723,5.966-15.625,19.228
		c1.663,3.105,10.654,4.312,10.654,1.429c0-0.841-1.292-1.53-2.873-1.53c-3.977,0-6.349-3.325-5.281-7.406
		c1.089-4.168,8.728-8.399,12.82-7.1C3976.239,344.801,3976.889,344.282,3976.889,341.68z"/>
	<path d="M3973.83,354.743c0.841-0.52,1.52-2.109,1.505-3.532C3975.293,346.501,3969.729,357.276,3973.83,354.743z"/>
	<path d="M1610.625,153.851c1.701,1.398,3.093,3.227,3.093,4.067c0,2.421,20.247,22.183,25.675,25.062
		c4.275,2.265,4.916,3.399,4.916,8.694c0,11.59,9.057,24.435,19.603,27.803c7.524,2.403,7.437,2.264,8.622,13.844
		c1.233,12.047,0.792,12.35-14.86,10.253c-18.264-2.446-32.768-10.681-31.039-17.622c3.665-14.705,0.71-21.87-9.017-21.87
		c-9.856,0-12.545,11.983-4.931,21.966c5.038,6.606,4.53,7.928-4.004,10.421c-7.018,2.049-8.872,3.709-7.662,6.86
		c1.442,3.758,13.829-0.353,18.682-6.202c1.733-2.088,2.602-1.851,7.547,2.048c7.839,6.184,18.665,9.462,34.398,10.415
		c10.575,0.641,13.69,1.354,14.312,3.276c8.608,26.534,31.055,48.57,34.343,50.39c3.366,1.863,22.677,17.581,42.948,19.857
		c114.445,12.86,140.822-116.876,60.477-138.265c-63.166-16.814-104.556,68.277-44.322,91.116
		c36.48,13.833,72.633-33.615,38.903-51.058c-18.997-9.823-35.928,4.268-23.968,19.949c4.613,6.05,9.864,6.9,9.864,1.597
		c0-7.72,8.35-9.683,14.6-3.434c18.249,18.249-16.177,40.148-42.132,26.799c-52.93-27.217-0.261-102.947,53.986-77.625
		c77.024,35.953,17.414,142.606-69.615,124.555c-37.696-7.817-88.47-64.897-63.526-71.418c22.326-5.835,36.561-23.607,37.329-46.599
		c0.49-14.717,0.718-12.546,11.999-19.213c10.725-6.334,19.169-13.309,32.885-22.537c5.422-3.647,13.371-11.258,37.079-17.206
		c22.309-5.597,70.15,7.144,74.28,19.782c0.453,1.384,0.032,1.716-1.208,0.95c-1.046-0.647-7.516-1.1-14.378-1.006
		c-11.511,0.156-12.593-0.093-13.974-3.235c-2.57-5.84-6.479-5.128-8.266,1.504c-0.87,3.235-4.006,8.527-6.967,11.761
		c-16.755,18.289,7.246-0.796,30.362,5.624c11.114,3.085,11.21-3.217,0.128-8.475c-7.948-3.77-6.542-5.581,3.512-4.523
		c19.586,2.062,33.433,22.045,56.915,37.34c23.698,15.436,1.508,3.137-6.501,16.692c-1.439,2.438-5.607,6.184-9.26,8.325
		c-22.784,13.352-21.214,43.031,2.38,44.988c18.517,1.536,26.914-21.859,10.314-28.736c-5.901-2.443-12.932,0.445-12.932,5.314
		c0,4.033,3.359,4.709,4.561,0.918c1.231-3.877,6.577-4.145,9.37-0.466c7.187,9.468-3.969,21.344-15.519,16.517
		c-7.816-3.265-10.948-10.693-8.38-19.869c3.27-11.68,16.681-20.853,19.144-13.095c2.05,6.456,13.505,6.088,14.257-0.46
		c1.075-9.334-20.336-7.362-7.424-14.041c13.868-7.17,55.001,8.33,57.66,1.406c1.169-3.045-1.179-4.647-8.54-5.823
		c-12.33-1.972-21.582-17.787-10.406-17.787c22.638,0,5.615-20.176-6.224-9.145c-6.268,5.84-12.555-2.281-12.555-16.216
		c0-13.948,21.151-18.754,26.032-5.915c3.57,9.388-8.437,16.584-12.562,7.529c-1.724-3.784-4.345-4.389-5.395-1.244
		c-2.228,6.687,13.232,11.505,19.3,6.014c13.108-11.863-4.93-30.928-21.698-22.933c-12.761,6.086-13.943,27.538-2.033,36.907
		c2.039,1.603,4.433,5.546,5.321,8.764c0.887,3.217,3.137,7.469,4.999,9.45c13.485,14.355-23.058-2.296-38.542-17.562
		c-17.367-17.119-23.598-45.801-8.208-37.776c11.813,6.16,25.015-2.643,19.667-13.114c-3.223-6.308-16.028-6.993-22.974-1.228
		c-3.535,2.932-6.973-1.153-6.43-7.64c0.45-5.364,0.625-5.502,7.952-6.25c8.408-0.858,11.077-3.539,9.555-9.602
		c-1.369-5.45-5.791-6.449-11.941-2.7c-9.993,6.092-23.711-2.334-19.673-12.082c14.185-34.246-39.917-64.9-57.585-32.627
		c-12.129,22.157,9.737,47.617,25.625,29.837c3.839-4.296,6.614-15.653,3.824-15.653c-0.352,0-1.695-0.406-2.984-0.899
		c-1.933-0.742-2.187,0.075-1.445,4.648c2.203,13.566-16.406,17.344-22.25,4.518c-11.591-25.441,28.508-40.9,45.445-17.52
		c8.252,11.391,7.902,29.75-0.574,30.077c-10.246,0.398-11.391,0.711-12.903,3.538c-3.823,7.143,5.416,12.998,12.383,7.848
		c14.477-10.704,24.198,7.657,22.509,42.511c-0.208,4.298,0.798,10.453,2.391,14.624c4.316,11.3,2.334,10.192-18.549-10.375
		c-24.302-23.936-30.532-28.199-60.106-41.141c-16.735-7.322-27.966-22.192-16.045-21.244c8.263,0.656,8.406,0.001,1.643-7.486
		c-9.487-10.498-10.689-36.107-15.601-16.541c-2.314,9.217-5.832,15.721-10.484,19.379c-7.345,5.777-0.104,8.789,10.198,4.242
		c5.24-2.313,6.682,13.756,18.069,17.919c9.349,3.417-73.538-6.982-58.191-16.469c3.609-2.23-3.739-9.487-5.612-2.319
		c-2.931,11.202-23.382,0.468-23.382-12.273c0-11.912,15.601-16.983,23.473-7.628c4.421,5.253,7.119,5.893,7.119,1.689
		c0-8.146-15.042-14.743-24.991-10.959c-18.624,7.08-10.797,36.422,9.924,37.203c3.975,0.15,8.664,1.608,11.646,3.619
		c2.746,1.851,7.738,3.83,11.095,4.397c7.75,1.309,6.57,3.338-2.739,4.705c-20.707,3.043-40.848,12.831-56.693,27.55
		c-10.842,10.072-12.68,11.216-16.718,10.409c-14.317-2.863-35.582,7.749-40.928,20.426c-2.915,6.911-5.5,6.285-15.799-3.824
		c-23.312-22.885-32.656-53.062-22.495-72.647c2.157-4.156,3.92-8.751,3.92-10.211c0-12.408,22.921-30.266,40.942-31.896
		c44.527-4.029,64.775,51.71,26.036,71.678c-27.729,14.293-59.26-23.876-32.965-39.907c13.361-8.147,30.048,3.868,23.353,16.814
		c-2.574,4.977-2.294,7.255,0.665,5.426c17.444-10.782-4.179-35.615-23.968-27.526c-32.881,13.439-5.666,60.639,29.413,51.011
		c50.909-13.976,27.592-90.315-25.08-82.115C1609.134,58.132,1580.407,129.038,1610.625,153.851z M1614.506,219.961
		c-2.097-5.018-2.12-6.026-0.184-7.963C1624.713,201.607,1621.849,237.541,1614.506,219.961z M1812.838,241.445
		c-2.686-3.264-9.577-6.773-13.298-6.773c-5.95,0-14.511,16.581-14.511,0.928c0-13.463,21.385-12.145,29.54,1.822
		C1817.945,243.201,1816.687,246.121,1812.838,241.445z M1864.788,169.383c2.075,1.58,0.272,1.906-10.322,1.865
		c-13.733-0.055-13.844-0.113-10.924-5.613c4.232-7.972,4.31-7.998,8.881-2.995c2.377,2.603,5.566,4.754,7.085,4.781
		C1861.028,167.446,1863.404,168.331,1864.788,169.383z M1930.337,227.862c0,3.442-2.515,3.829-5.25,0.808
		C1919.61,222.614,1930.337,223.73,1930.337,227.862z M1965.326,184.449c4.688-0.665,7.972,2.349,4.766,4.376
		c-1.254,0.794-3.88,1.455-5.835,1.467C1959.449,190.322,1960.396,185.15,1965.326,184.449z M1919.708,138.31
		c8.006,0,13.22,5.245,8.717,8.769c-4.919,3.85-12.331,3.07-16.302-1.715C1909.034,141.64,1912.613,138.31,1919.708,138.31z
		 M1912.747,114.602c3.322,0,6.307,5.353,0,5.353C1906.434,119.955,1909.408,114.602,1912.747,114.602z M1872.628,107.208
		c0.707-2.154,8.763-3.356,8.763-1.308C1881.391,110.58,1871.468,110.749,1872.628,107.208z M1796.026,92.267
		c-4.991,2.671-5.061,2.109-0.647-5.197c7.935-13.138,5.108-3.71,10.724,2.686c3.146,3.582,1.23,5.191-3.296,2.769
		C1800.095,91.072,1798.38,91.008,1796.026,92.267z M1694.968,237.993c-15.695,7.157-18.473,5.71-18.518-9.658
		c-0.021-7.293,1.395-8.959,7.617-8.959c3.764,0,10.718-8.51,10.718-13.119c0-5.286-2.075-4.581-5.084,1.727
		c-5.073,10.639-14.979,11.967-13.67,1.832c1.623-12.57,1.881-12.806,15.184-13.861c6.591-0.523,15.768-2.304,20.395-3.959
		C1733.801,184.065,1718.109,227.44,1694.968,237.993z M1836.595,126.899c23.61,10.739,31.559,17.893,12.458,11.213
		c-22.836-7.988-54.189-3.044-78.555,12.383c-21.65,13.707-25.252,20.693-41.084,27.939c-7.399,3.39-5.95,4.221-9.332-3.282
		c-3.224-7.15-10.603-14.603-16.756-16.923l-4.46-1.681C1741.641,111.874,1800.328,110.403,1836.595,126.899z M1710.608,169.384
		c10.975,11.577,10.615,15.731-1.656,19.207c-25.804,7.306-30.561,4.299-21.636-13.678
		C1696.224,156.968,1698.359,156.46,1710.608,169.384z M1683.9,158.194c7.643,0,7.623-0.245,1.045,13.001
		c-2.923,5.889-6.12,12.945-7.102,15.678c-2.385,6.64-17.41,4.994-26.989-2.957C1642.988,177.388,1667.647,158.194,1683.9,158.194z
		 M1654.088,190.05c0.43,0.696,5.116,2.542,10.415,4.101c5.298,1.56,9.788,2.924,9.979,3.031c0.189,0.109-0.551,4.59-1.646,9.959
		c-2.307,11.305-2.822,11.643-10.739,7.035c-7.087-4.127-13.176-13.56-13.191-20.42
		C1648.898,189.039,1652.064,186.776,1654.088,190.05z"/>
	<path d="M2043.082,221.703c-6.568,4.131-7.129,11.947-0.91,12.669c3.864,0.448,10.643-5.396,12.411-10.701
		c0.485-1.455,1.682-1.258,4.818,0.798c7.867,5.153,7.251,11.078-2.152,20.768c-14.255,14.69-9.794,35.321,7.64,35.321
		c3.049,0,1.54-4.395-1.863-5.425c-12.386-3.757-13.41-13.118-2.791-25.524c19.698-23.007,1.948-26.338-8.609-36.271
		c-8.589-8.088-25.392-5.616-12.308-10.892c12.004-4.841,30.593-24.778,47.309-36.272c24.7-16.982,33.878,14.962,20.227,14.962
		c-3.723,0-3.905,3.15-0.353,6.111c8.157,6.797,23.668-0.825,20.179-9.916c-0.956-2.492,3.206-3.35,4.681-0.965
		c1.358,2.197,8.706,3.02,13.148,1.47c7.919-2.759,10.211-15.14,3.904-21.065c-3.985-3.744-6.996-3.172-6.996,1.326
		c0,7.252-10.302,9.177-19.641,3.671c-5.436-3.204-9.847-4.397-18.598-5.034l-11.472-0.835
		c36.382-20.864,70.325-28.879,128.904,10.768c27.57,18.659,31.625,21.005,43.721,25.287c11.226,3.974,12.166,5.104,13.619,16.357
		c0.811,6.28,0.604,6.689-5.516,10.912c-11.872,8.189-17.367,20.83-11.256,25.899c6.25,5.188,18.488-5.634,19.828-17.532
		c0.93-8.251,0.818-8.125,8.902-9.942c9.873-2.218,11.051,4.455,5.3,30.025c-6.657,29.6-43.152,62.655-76.925,69.676
		c-40.96,8.514-96.751-20.935-96.751-51.067c0-1.302-0.688-2.793-1.53-3.313c-2.853-1.762-1.753-25.722,1.692-36.876
		c12.305-39.838,72.933-51.872,98.326-19.517c26.139,33.303-7.526,82.839-45.209,66.525c-19.177-8.301-26.468-28.505-14.382-39.859
		c11.363-10.675,30.747,0.222,25.403,14.278c-1.947,5.121,0.3,6.379,5.675,3.171c8.59-5.126,13.402-16.836,9.915-24.134
		c-0.882-1.846-1.988-4.558-2.456-6.025c-1.381-4.324-10.256-8.792-17.477-8.798c-5.969-0.006-6.733-0.444-8.219-4.703
		c-3.015-8.648-15.626-8.402-21.809,0.427c-3.233,4.615-3.041,5.632,1.384,7.313c18.686,7.107-27.283,37.232,19.162,62.458
		c18.343,9.963,51.557-4.883,58.074-25.958c11.719-37.898-10.228-66.323-51.191-66.301c-87.727,0.051-87.06,120.589,0.759,136.973
		c43.007,8.024,95.457-17.849,111.808-55.15c2.266-5.169,10.557-19.755,10.557-38.891c0-10.909,1.5-11.577,16.239-7.241
		c14.508,4.269,15.736,4.168,10.976-0.903c-4.82-5.135-13.887-22.908-12.682-24.86c3.111-5.034,15.349-4.653,16.979,0.528
		c1.587,5.049,30.284,43.997,16.015,49.906c-14.809,6.135-14.363,27.659,0.497,23.93c4.872-1.222,7.177-5.444,8.387-15.363
		l0.947-7.756l6.501-0.47c8.633-0.625,9.234-4.884,0.688-4.884c-15.59,0-0.763-6.136-26.726-43.23
		c-3.394-4.847-5.894-9.02-5.554-9.272c0.341-0.252,5.265-3.72,10.943-7.706c13.58-9.531,7.026-5.779,16.094-15.699
		c16.911-18.501,17.974-65.857,1.967-87.756c-25.856-35.374-74.427-29.496-86.289,10.443c-5.049,17.002,7.524,45.972,20.051,46.2
		c1.47,0.026,4.009,1.059,5.641,2.294c7.418,5.61,27.712,1.023,36.624-8.276c19.98-20.856-0.49-53.198-26.266-41.499
		c-12.972,5.887-14.343,32.136-1.679,32.136c3.874,0,3.642-2.72-0.523-6.092c-13.33-10.794,5.938-30.388,21.812-22.179
		c22.898,11.84,4.355,46.546-23.281,43.572c-44.784-4.816-34.311-74.892,11.201-74.945c53.319-0.064,66.667,88.989,18.191,121.36
		c-6.727,4.491-6.88,2.54-12.018-7.801l6.753-6.628c19.4-19.039-6.038-24.486-9.52-2.72c-0.823,5.151-1.617,6.059-6.482,7.409
		c-9.823,2.729-9.835,2.715-11.821-14.185c-2.735-23.273-9.541,12.04-40.674-13.843c-6.418-5.337-13.793-10.581-16.391-11.658
		c-4.171-1.727-6.708-6.173-3.522-6.173c5.447,0,7.914-18.255,3.23-23.898c-1.086-1.308-0.563-3.81,1.736-8.318
		c7.972-15.626-7.626-35.332-22.943-28.987c-8.674,3.593-12.238,15.175-6.319,20.531c3.237,2.929,6.446,0.467,3.384-2.596
		c-2.665-2.664-2.001-8.44,1.357-11.797c7.938-7.938,21.414,0.105,21.414,12.784c0,9.696-2.359,15.386-5.757,13.892
		c-9.638-4.238-21.821-0.441-19.338,6.029c0.964,2.51,2.36,2.763,11.618,2.099c13.98-0.999,17.637,5.006,10.338,16.978
		c-3.414,5.598-2.779,5.592-17.51,0.174c-45.983-16.908-73.311,3.054-53.184-15.771c4.356-4.075,8.686-9.73,9.623-12.568
		c1.79-5.422,9.381-12.909,13.088-12.909c1.198,0,2.177-1.023,2.177-2.275c0-10.158-22.578-11.6-25.088-1.603
		c-0.804,3.211-1.878,3.878-6.238,3.878c-8.948,0-15.342,9.411-7.697,11.331c16.172,4.058,9.01,18.97-13.983,29.115
		c-17.536,7.738-34.062,16.399-39.198,20.542c-16.571,13.369-36.387,33.845-36.387,33.845c-1.011,0-1.008-0.965,0.015-2.877
		c4.613-8.619,6.384-17.212,4.639-22.501c-4.335-13.138,1.693-34.943,9.211-33.318c7.17,1.549,7.662,2.005,7.662,7.117
		c0,18.531,20.889,8.218,8.966-4.472l-3.488-3.714c0.027-0.048,7.444-13.653,7.5-13.653c0.023,0,2.447,0.698,5.385,1.549
		c28.948,8.396,50.192-33.837,23.207-46.13c-17.772-8.097-34.095,6.836-22.206,20.314c4.977,5.644,17.723,4.299,19.75-2.083
		c1.427-4.5-0.499-5.129-4.422-1.444c-4.405,4.139-7.183,4.188-11.461,0.202c-7.244-6.749-2.201-13.619,10.379-14.139
		c20.64-0.853,22.942,25.402,3.085,35.168c-13.659,6.718-19.897,6.13-23.052-2.169c-2.152-5.663-4.467-4.029-4.467,3.152
		c0,7.002-5.34,17.189-8.856,16.898c-1.019-0.084-4.604-0.255-7.969-0.382c-17.587-0.659,9.822-26.232-6.984-26.232
		c-3,0-6.83-0.736-8.51-1.635c-3.9-2.088-7.906,0.847-6.632,4.859c1.394,4.392-2.051,20.057-5.415,24.629
		c-5.092,6.918-1.505,11.202,5.523,6.597c4.153-2.721,12.033-3.207,10.45-0.645c-0.572,0.927-1.504,5.228-2.071,9.56
		c-0.759,5.802-1.615,7.732-3.255,7.33c-9.555-2.344-13.035-1.952-17.237,1.944c-9.723,9.013,4.128,21.42,14.664,13.133
		c5.581-4.392,8.23-3.943,7.866,1.331c-1.552,22.414-19.344,39.975-56.9,56.158c-9.171,3.952-10.152,2.443-4.154-6.394
		c7.5-11.05-0.127-17.889,11.255-16.361c6.565,0.881,9.925-1.88,9.128-7.5c-0.5-3.53-5.988-4.43-15.58-2.553
		c-8.206,1.606-13.244-19.378-6.384-26.593c6.88-7.235,17.642-4.513,17.642,4.465c0,5.311-2.66,9.223-6.756,9.938
		c-5.025,0.876-4.706,4.335,0.399,4.335c10.058,0,14.956-16.013,7.253-23.716c-17.605-17.604-35.867,10.894-20.602,32.15
		c8.382,11.672,2.082,30.233-11.764,34.651c-7.483,2.389-10.057,4.873-6.453,6.227c2.123,0.797,8.53-0.031,32.569-4.203
		C2042.782,210.288,2054.586,214.465,2043.082,221.703z M2049.354,225.096c-0.534,2.775-4.443,4.335-6.273,2.505
		c-1.45-1.45,1.834-5.165,4.566-5.165C2048.931,222.436,2049.65,223.555,2049.354,225.096z M2124.251,166.431
		c5.216,2.698,16.812,0.996,19.649-2.885c2.417-3.306,5.164-1.675,5.164,3.064c0,9.339-14.376,11.077-22.708,2.747
		c-2.793-2.794-5.718-1.644-5.1,2.004c0.271,1.592,0.806,4.615,1.192,6.718c0.385,2.103,0.157,4.63-0.506,5.615
		c-1.491,2.213-8.536,4.104-9.967,2.674c-0.578-0.578,0.303-2.772,1.958-4.876c3.486-4.431,3.622-6.675,0.87-14.379
		C2112.583,160.892,2113.422,160.831,2124.251,166.431z M2269.815,240.835c-4.619,2.473-8.338-0.671-6.604-5.586
		c1.401-3.974,9.916-12.813,12.342-12.813C2279.713,222.436,2274.809,238.163,2269.815,240.835z M2156.687,206.405
		c4.316-5.202,14.606-0.134,13.326,6.562c-1.214,6.352,0.185,8.31,4.02,5.624c14.566-10.204,31.289,11.296,21.161,23.809
		c-3.071,3.792-3.946,3.14-5.497-4.093c-1.731-8.084-7.206-11.819-18.365-12.529l-9.754-0.621l-1.032-5.568
		C2158.678,209.545,2153.281,210.509,2156.687,206.405z M2355.05,248.954c1.447,1.447-1.185,9.984-4.301,13.944
		c-3.709,4.716-4.596,4.809-7.132,0.746C2340.388,258.475,2350.972,244.876,2355.05,248.954z M2334.433,153.606
		c2.32,0,1.245,5.638-1.56,8.175c-3.044,2.755-3.865,3.007-5.256,1.617C2325.537,161.318,2330.904,153.606,2334.433,153.606z
		 M2228.166,98.365c1.309-1.31,3.273-1.415,6.871-0.369l5.037,1.465C2226.463,104.267,2226.102,100.429,2228.166,98.365z
		 M2165.246,90.711c-2.036-1.961-3.371-4.098-2.969-4.749c1.231-1.993,6.184-1.323,8.202,1.108c3.022,3.642,4.589,2.697,4.589-2.77
		c0-5.799,5.202-12.44,8.694-11.1c1.244,0.479,2.894,0.869,3.667,0.869c4.667,0-2.948,6.587-8.237,17.386
		c-5.805,11.857-10.242,14.554-10.242,6.227C2168.949,95.808,2167.283,92.671,2165.246,90.711z M2271.429,175.628
		c0-1.162,14.632,1.424,16.53,2.923c1.978,1.56,6.414,10.882,6.414,13.48c0,0.739-3.391,1.343-7.536,1.343h-7.536
		C2278.662,191.981,2271.429,176.352,2271.429,175.628z M2282.923,212.52c-4.027-16.841-4.197-16.097,3.672-16.064
		c7.726,0.034,9.529,1.691,10.416,9.562l0.779,6.904C2294.039,213.22,2283.381,214.443,2282.923,212.52z M2323.778,174.714
		c4.864,4.811,5.101,11.661,0.479,13.768c-8.042,3.663-11.212,2.499-12.703-4.667
		C2309.865,175.698,2318.373,169.366,2323.778,174.714z M2319.18,212.91c1.104,6.519-16.43,2.086-17.744-4.485
		c-2.111-10.554-1.499-11.992,5.101-11.992C2312.606,196.433,2317.461,202.761,2319.18,212.91z M2309.356,190.082
		c-1.198,6.328-11.39,4.02-13.809-3.126c-2.882-8.518-2.086-10.407,4.384-10.407
		C2305.488,176.549,2310.543,183.808,2309.356,190.082z M2296.07,154.505l5.52-1.159c0.47,3.042,2.496,15.911,2.623,17.85
		c0.408,6.256-12.581,2.925-17.616-4.52C2276.926,152.38,2282.283,157.393,2296.07,154.505z M2247.993,134.483
		c9.86,5.668,17.318,11.302,17.318,13.082c0,2.802-17.677,1.658-21.59-1.397c-2.007-1.568-6.598-4.347-10.204-6.178
		c-7.489-3.803-7.25-5.446,1.156-7.966C2240.105,130.397,2241.255,130.61,2247.993,134.483z M2126.367,133.362
		c25.611-13.122,47.984-17.931,69.768-14.995c32.382,4.364,49.087,15.354,23.338,15.354c-5.638,0-3.244,2.583,5.491,5.926
		c20.971,8.024,11.962,13.091,33.089,13.33c13.763,0.156,18.053,2.377,23.635,12.232c4.313,7.616,3.082,8.664-7.813,6.651
		c-16.429-3.039-8.34,0.527-2.594,11.955l3.269,6.501c-11.913-0.21-28.315-11.605-42.17-20.904
		c-32.196-21.607-54.974-40.022-103.498-32.069C2115.389,139.553,2115.118,139.125,2126.367,133.362z M2099.402,124.699
		c1.447,4.561-1.601,7.15-3.732,3.169C2091.318,119.737,2097.918,120.021,2099.402,124.699z M2064.022,107.336
		c2.296-14.85,5.333-18.931,11.281-15.157c2.167,1.375-0.129,16.073-3.084,19.745
		C2068.104,117.04,2062.967,114.164,2064.022,107.336z M2064.129,146.944c-4.546,3.324-12.957,2.719-12.957-0.933
		c0-3.513,4.26-6.172,9.888-6.172C2066.13,139.84,2067.982,144.127,2064.129,146.944z M2023.73,178.079
		c3.561,0,3.971,3.877,0.549,5.19c-3.174,1.217-3.354,1.193-4.463-0.601C2018.403,180.382,2020.368,178.079,2023.73,178.079z"/>
	<path d="M454.613,269.546c7.464,7.464,18.453-4.965,12.047-13.628c-4.181-5.655-4.006-8.139,0.72-10.292
		c8.284-3.775,11.4-2.481,11.4,4.74c0,11.142,8.754,18.222,14.574,11.79c2.914-3.22,1.161-8.91-5.771-18.731
		c-5.262-7.457,9.777-7.741,17.858-0.339c6.496,5.95,15.017,7.15,22.269,3.137c3.258-1.803,4.584-1.782,9.177,0.147
		c11.748,4.93,419.195-0.185,846.621-1.843c286.571-1.114,237.69-6.098,114.127-4.737c-139.775,1.539-349.656,0.984-538.572,2.611
		c-294.993,2.54-419.159,2.006-421.519-1.81c-1.34-2.17-9.321-1.516-15.094,1.238l-5.381,2.565
		c-4.165-2.843-15.421-10.931-19.169-11.299c-15.712-1.556-9.194,6.168-21.065,6.168c-6.146,0-14.88,3.614-14.88,6.158
		c0,2.427-4.607,1.696-5.598-0.89c-0.526-1.369,0.411-3.614,2.205-5.286c5.052-4.706,5.869-11.802,1.768-15.36
		c-8.226-7.134-16.033-1.453-14.853,10.808c0.652,6.779,0.297,8.104-2.822,10.557l-3.568,2.807l6.523-0.736
		C465.63,245.062,447.104,262.038,454.613,269.546z M483.523,247.577c1.615-0.997,4.928,1.991,6.34,5.721
		c1.286,3.397-2.44,6.64-4.541,3.954C483.023,254.315,481.95,248.55,483.523,247.577z M463.478,264.506
		c-3.458,4.165-6.112,2.431-6.112-3.997C457.365,248.658,466.662,260.669,463.478,264.506z M450.591,227.899
		c4.948-4.949,10.201,1.135,6.672,7.729c-2.356,4.4-5.353,4.67-7.492,0.674C447.619,232.283,447.772,230.717,450.591,227.899z"/>
	<path d="M241.945,188.785c0.866,0,3.423,1.317,5.682,2.926c6.355,4.526,35.772,13.909,46.846,14.944
		c11.626,1.084,12.562,3.019,5.243,10.829c-17.59,18.768-52.968,8.882-58.109-16.238c-2.489-12.162-2.739-12.784-4.678-11.586
		c-2.5,1.546-0.634,14.477,3.163,21.923c13.998,27.44,55.472,29.306,67.622,3.044c2.423-5.239,2.984-5.54,12.079-6.49
		c20.615-2.155,22.26-1.49,26.793,10.829c3.821,10.38,3.689,10.346,15.82,4.087c12.778-6.591,13.229-6.416,18.118,7.03
		c3.005,8.269,3.009,8.504,0.18,13.741c-6.728,12.463,0.266,24.993,9.269,16.605c3.232-3.012,3.463-4.183,2.615-13.266
		c-1.266-13.552,2.689-17.985,9.746-10.927c3.74,3.741,9.142,1.783,9.142-3.315c0-6.495,15.488,1.632,17.527,9.196
		c1.167,4.333,0.872,4.708-4.477,5.678c-9.919,1.799-14.654,8.462-11.644,16.38c4.509,11.859,19.924,2.158,21.21-13.349
		c1.722-20.769-17.617-32.012-38.325-22.278c-7.335,3.447-11.807,2.655-11.833-2.094c-0.006-0.95-1.034-3.689-2.287-6.091
		c-3.093-5.929-2.407-6.531,10.744-9.457c12.937-2.878,14.387-3.987,9.511-7.268c-33.404-22.481,2.52-13.834,22.327-58.766
		c14.257-32.344,13.421-64.977-2.461-96.043C381.16-30.599,250.199,1.333,255.897,89.278c4.645,71.684,99.362,96.076,129.363,22.575
		c8.917-21.847-10.551-54.968-34.412-58.545c-7.441-1.117-8.416-3.547-4.476-11.164c4.376-8.464,6.501-8.934,12.787-2.825
		c9.206,8.943,18.985,11.256,24.028,5.682c6.103-6.743-5.308-17.855-19.135-18.639l-8.377-0.474l-1.087-7.643
		c-3.781-26.593,48.805,3.92,64.064,37.171c6.337,13.812,6.446,14.156,8.742,27.83c5.959,35.504-7.573,71.501-35.402,94.169
		c-9.173,7.472-10.756,7.36-14.221-1.006c-1.816-4.379-1.612-4.939,3.775-10.457c11.068-11.334,9.33-28.315-2.305-22.515
		c-7.209,3.595-11.672,17.708-1.386,7.851c13.946-13.364,4.968,16.201-5.762,13.753c-2.713-0.618-3.441-0.115-3.441,2.381
		c0,3.521-7.798,7.599-14.531,7.599c-5.909,0-6.199,3.767-0.927,11.984c6.929,10.799,6.761,11.126-6.765,13.219
		c-9.532,1.477-11.701-4.026-20.59-21.792l-10.332,0.791c-12.642,0.968-11.66-0.164-9.477,10.933
		c1.991,10.123,0.414,14.75-4.514,13.244c-1-0.307-46.763-7.925-56.461-19.606c-4.616-5.563,13.084-19.481,24.774-19.481
		c6.802,0,14.696,6.738,14.696,12.544c0,11.117-12.269,14.17-17.203,4.281c-3.296-6.606-6.631-7.071-6.179-0.863
		c1.072,14.728,29.644,14.566,29.467-0.167c-0.286-23.802-33.99-28.289-47.56-6.333c-4.436,7.177-6.429,7.239-14.951,0.463
		c-7.008-5.57-10.873-6.752-10.873-3.319C217.224,174.183,237.43,188.785,241.945,188.785z M425.627,260.075
		c-4.009,3.044-8.03,2.622-8.03-0.843c0-3.061,5.289-7.735,8.752-7.735C429.243,251.497,428.719,257.727,425.627,260.075z
		 M388.536,249.751c0,5.104-2.574,7.85-3.965,4.228C382.167,247.714,388.536,241.253,388.536,249.751z M321.617,64.839
		c1.051-0.029,4.665-1.381,8.03-3.007c8.503-4.107,9.205-3.9,11.38,3.36c2.264,7.549,6.939,12.995,9.632,16.524h-4.557
		c-11.212,0-18.749,3.359-18.749-0.343C327.353,76.546,315.432,65.008,321.617,64.839z M325.824,99.323
		c0,9.115-5.151,19.785-11.426,23.662c-15.017,9.281-15.224-7.007-0.271-21.547C325.257,90.612,325.824,90.511,325.824,99.323z
		 M338.958,48.436c-1.523,8.444-3.247,4.452-15.192,10.444c-7.585,3.809-8.155,3.749-16.146-1.664
		c-7.749-5.251-14.988-5.896-20.062-1.789c-8.094,6.556,2.618,14.685,18.164,13.783l8.521-0.494l5.024,7.631
		c6.473,9.827,6.433,10.061-2.681,15.967c-23.176,15.017-24.615,43.487-1.889,37.395c6.502-1.744,14.401-16.317,15.499-28.603
		c1.213-13.538,3.614-15.201,21.844-15.121c13.951,0.061,14.369-0.494,5.213-6.949c-10.484-7.389-16.83-21.792-9.604-21.792
		c42.855,0,43.94,68.974,1.39,88.346c-12.489,5.685-35.734,6.412-47.033,1.468c-54.315-23.766-54.295-103.158,0.032-127.753
		c18.216-8.248,44.53-13.578,45.752-9.269c0.324,1.147,1.457,5.814,2.519,10.37l1.927,8.283
		C343.742,35.927,340.926,37.532,338.958,48.436z M305.939,63.415c0,1.652-11.152,2.051-12.747,0.456
		c-2.353-2.353-0.788-5.098,2.905-5.098C300.641,58.773,305.939,61.272,305.939,63.415z M363.275,31.241
		c9.18,0,17.842,5.98,14.497,10.009c-3.195,3.85-10.207,1.023-15.693-6.326C359.356,31.274,359.367,31.241,363.275,31.241z
		 M381.57,191.845c2.804,0,12.039,11.744,10.806,13.738c-1.429,2.313-7.787,0.81-9.194,3.087c-2.882,4.66-9.618,0.789-15.042-8.642
		C367.102,198.221,377.569,191.845,381.57,191.845z M361.034,177.48c9.228-3.692,11.291-3.198,14.205,3.406
		c3.396,7.697,3.454,7.496-2.95,10.173c-8.263,3.451-10.392,2.902-14.063-3.629C353.969,179.857,353.827,180.364,361.034,177.48z
		 M346.798,204.043c2.926-2.599,14.854-4.387,17.059-2.557c2.1,1.742,7.025,11.829,6.029,12.351
		c-0.258,0.136-3.76,1.783-7.778,3.659c-4.018,1.876-7.535,3.411-7.813,3.411C352.863,220.906,345.77,204.954,346.798,204.043z
		 M310.459,192.213c1.137-9.896,10.135-11.747,15.241-3.136c4.617,7.787,11.754,13.457-0.259,13.495
		c-3.576,0.011-7.981,0.417-9.789,0.903C311.121,204.691,309.442,201.053,310.459,192.213z"/>
	<path d="M3526.628,241.765c-8.252,1.132-9.701-0.699-7.007-8.859c3.584-10.862-4.086-19.724-11.643-13.453
		c-2.903,2.411-2.84,12.784,0.093,15.219c5.826,4.835,0.847,10.707-9.076,10.707c-5.392,0-5.454-0.075-5.488-6.501
		c-0.112-21.874-25.718-14.141-8.977,5.162c7.079,8.162-8.13,10.716-16.351,2.747c-6.075-5.889-14.847-7.429-21.81-3.828
		c-9.468,4.895-15.037-5.813-20.127-1.534c-7.109,5.977-1053.775-5.426-1044.46,3.118c0.231,0.213,1007.98,3.17,1008.386,3.18
		c43.352,1.058,34.469-4.914,45.379,0.007c14.993,6.76,12.249-10.24,29.802,3.159c17.309,13.211,21.364-0.922,30.602-0.922
		c2.233,0,7.441-1.84,11.574-4.089c9.15-4.98,12.629-3.376,7.717,3.556c-4.921,6.946-5.291,10.299-1.641,14.938
		c6.86,8.72,15.715,1.843,14.26-11.074c-0.827-7.357-0.61-8.221,2.267-8.974C3536.022,242.783,3533.368,240.841,3526.628,241.765z
		 M3484.431,230.807c2.626-1.623,6.051,2.402,6.051,7.113C3490.482,248.925,3478.889,234.234,3484.431,230.807z M3510.394,230.9
		c-2.015-3.763-0.285-8.464,3.115-8.464C3517.764,222.436,3516.511,242.332,3510.394,230.9z M3523.259,261.331
		c-6.692,6.69-11.505-1.126-5.246-8.517c3.001-3.544,3.102-3.556,5.354-0.642C3526.294,255.959,3526.268,258.322,3523.259,261.331z"
		/>
	<path d="M3551.509,217.656c-15.704,14.237-18.379,30.366-7.071,42.636c3.436,3.729,10.097,4.549,13.04,1.606
		c5.433-5.433-1.088-19.578-9.025-19.578c-8.53,0-6.764-8.128,3.992-18.355c3.096-2.944,7.662-8.278,10.146-11.854
		c3.608-5.193,5.438-6.501,9.093-6.501c6.299,0,15.632-5.051,20.259-10.961c4.397-5.619,4.083-4.873,15.551-2.04v10.54
		c0,11.438,0.489,10.757-11.219,15.597c-15.5,6.409-22.798,25.64-13.324,35.116c12.612,12.613,35.123-6.62,31.425-26.847
		c-1.502-8.211,0.491-9.017,11.895-4.817c9.841,3.625,12.616,2.599,9.784-3.617c-5.105-11.203-1.517-19.389,7.597-17.341
		c3.354,0.754,6.784,0.949,7.619,0.431c3.163-1.955,8.651,0.953,10.578,5.606c15.201,36.698,73.033,22.235,77.002-19.257
		c0.404-4.206,0.78-7.761,0.84-7.899c0.556-1.283,15.404-7.839,15.404-12.737c0-4.566-2.36-3.773-9.234,3.102
		c-6.696,6.697-8.391,6.745-9.811,0.285c-3.392-15.444-32.925-27.653-43.574-18.015c-13.655,12.357-3.639,36.448,12.393,29.807
		c8.313-3.445,13.927-15.061,8.313-17.217c-2.874-1.103-3.974,0.236-3.974,4.837c0,10.575-12.646,12.867-17.647,3.198
		c-10.808-20.9,21.916-26.559,36.74-6.354c9.957,13.57-5.081,22.751-47.049,28.72c-21.151,3.011-23.367,1.346-16.401-12.316
		c1.683-3.3,3.059-6.421,3.059-6.937c0-8.205-30.357,1.069-32.974,10.074c-2.632,9.054-3.438,9.462-13.295,6.725
		c-6.5-1.806-7.287-4.722-3.331-12.371c3.168-6.126,2.238-7.951-5.323-10.447c-7.738-2.553-8.691-3.714-9.722-11.828
		c-1.035-8.165-6.215-15.476-12.958-18.293c-13.945-5.826-11.874,11.883,2.714,23.193c6.606,5.122,6.681,5.347,4.449,13.384
		c-1.855,6.681-2.918,6.933-9.708,2.294c-9.589-6.551-29.979-27.424-29.979-30.688c0-0.503-1.673-3.379-3.717-6.392
		c-26.95-39.71-9.864-108.467,31.859-128.223c25.816-12.223,29.265-11.649,29.051,4.83c-0.198,15.088-1.109,16.434-9.434,13.939
		c-21.986-6.587-47.791,12.368-41.482,30.47c6.209,17.809,36.685,9.003,47.305-13.668c4.06-8.668,5.02-8.905,15.19-3.752
		c12.697,6.433,8.763,22.527-6.751,27.63c-51.252,16.851-20.068,79.917,37.125,75.083c94.397-7.979,67.804-148.857-28.021-148.454
		c-69.795,0.294-122.672,88.909-82.529,138.309c3.081,3.787,2.404,7.135,6.514,11.585c5.72,6.187,11.415,18.872,33.439,33.974
		c7.539,5.17,5.003,9.456-9.187,15.525c-8.555,3.66-9.361,3.408-11.689-3.645c-2.983-9.037-15.322-9-15.322,0.047
		c0,3.365,5.214,9.814,7.935,9.814C3561.576,205.611,3558.433,211.379,3551.509,217.656z M3544.754,245.943
		c2.675-1.028,9.97,4.772,9.97,7.928c0,3.853-3.711,5.101-7.068,2.38C3543.113,252.57,3541.59,247.156,3544.754,245.943z
		 M3724.315,187.933c9.662-5.395,11.472-5.021,10.508,2.164c-1.652,12.307-9.765,23.447-21.472,29.478
		c-14.395,7.416-35.85,3.234-45.347-8.839C3655.107,194.339,3688.877,207.72,3724.315,187.933z M3641.377,182.41
		c3.441-3.804,20-3.581,19.132,0.257c-2.741,12.155,0.189,17.257-19.162,14.217C3636.256,196.084,3636.272,188.05,3641.377,182.41z
		 M3599.26,250.384c-13.573,8.018-21.529-7.187-10.857-20.755c3.798-4.829,15.528-10.643,18.878-9.358
		C3613.927,222.821,3607.953,245.249,3599.26,250.384z M3630.237,214.406c-1.496,5.587-7.063,2.601-13.184,1.252
		c-4.029-0.889-4.206-1.323-4.206-10.277v-9.349C3628.068,198.576,3634.236,199.488,3630.237,214.406z M3605.147,171.96
		c7.275,0,10.594,5.39,7.816,12.694c-2.143,5.635-13.883,5.366-13.883-0.32C3599.081,181.563,3603.788,171.96,3605.147,171.96z
		 M3586.063,148.963c-1.614-5.084,1.574-7.206,5.497-3.657c3.341,3.022,9.051,13.043,9.051,15.886
		C3600.611,166.636,3588.419,156.388,3586.063,148.963z M3593.927,62.979c-16.839,11.268-31.758,1.747-23.199-14.805
		c5.069-9.801,38.566-17.535,40.21-9.283C3611.824,43.342,3601.568,57.866,3593.927,62.979z M3641.166,78.501
		c11.397,6.047,15.505,14.713,12.508,26.388c-4.099,15.975-24.002,1.771-24.002-17.13
		C3629.672,74.884,3631.528,73.389,3641.166,78.501z M3620.457,14.221c0.131-24.953,62.762-2.325,80.407,29.049
		c12.52,22.263,13.208,53.099,1.542,69.133c-4.876,6.697-8.398,17.812-28.372,27.171c-43.985,20.617-97.396-23.687-65.509-54.339
		c12.054-11.588,18.074-11.31,17.041,0.788c-1.416,16.536,8.271,29.343,22.191,29.343c8.917,0,13.924-17.045,8.416-28.655
		c-2.684-5.656-14.219-14.173-19.196-14.173c-4.648,0-4.651-3.744-0.015-11.64l4.393-7.479l9.499-0.236
		c14.833-0.367,26.125-10.029,18.725-16.022c-9.825-7.956-20.624,2.113-30.626,9.667l-6.652-2.54
		C3611.142,36.208,3620.355,32.492,3620.457,14.221z M3644.968,48.28c0-2.518,11.596-9.391,15.842-9.391
		c6.19,0,8.026,3.913,3.293,7.013C3659.302,49.048,3644.968,50.828,3644.968,48.28z M3557.157,200.178
		c-1.413-1.413-2.31-3.35-1.993-4.305c0.866-2.594,4.354-2.091,6.241,0.901C3563.949,200.806,3560.527,203.549,3557.157,200.178z"/>
</g>
</svg>
