<?xml version="1.0" encoding="UTF-8"?>
<!-- Generator: visioncortex VTracer 0.6.3 -->
<svg version="1.1" xmlns="http://www.w3.org/2000/svg" width="1276" height="1280">
<path d="M0 0 C421.08 0 842.16 0 1276 0 C1276 422.4 1276 844.8 1276 1280 C854.92 1280 433.84 1280 0 1280 C0 857.6 0 435.2 0 0 Z " fill="#FBFCFE" transform="translate(0,0)"/>
<path d="M0 0 C0.99 0.66 1.98 1.32 3 2 C1.45 7.79 -0.48 13.33 -2.75 18.88 C-24.02 71.23 -35.58 127.81 -40 184 C-40.09 185.16 -40.09 185.16 -40.19 186.34 C-42.84 219.8 -42.65 253.61 -39 287 C-38.88 288.14 -38.76 289.28 -38.63 290.45 C-30.94 360.04 -12.62 430.79 20 493 C20.97 494.94 21.93 496.88 22.89 498.82 C33.24 519.75 44.57 539.8 57.72 559.12 C59.06 561.08 60.39 563.06 61.72 565.03 C66.77 572.49 71.99 579.77 77.54 586.86 C79.19 588.96 80.82 591.07 82.43 593.2 C87.23 599.56 92.21 605.71 97.45 611.72 C100.42 615.12 103.28 618.59 106.1 622.12 C110.63 627.66 115.48 632.76 120.57 637.8 C121.44 638.67 122.32 639.55 123.23 640.46 C125.07 642.29 126.91 644.13 128.76 645.96 C131.56 648.75 134.36 651.55 137.16 654.35 C138.96 656.14 140.76 657.94 142.57 659.73 C143.39 660.56 144.22 661.39 145.07 662.24 C149.89 667.02 154.83 671.59 160 676 C161.18 677.02 162.35 678.04 163.53 679.06 C169.89 684.55 176.3 689.92 183 695 C184.5 696.16 185.99 697.32 187.49 698.48 C199.99 708.16 212.73 717.41 226 726 C226.7 726.45 227.4 726.91 228.12 727.38 C240.6 735.45 253.35 743.02 266.24 750.41 C268.63 751.79 271 753.18 273.37 754.58 C316.44 779.74 366.38 797.39 414.81 808.56 C415.84 808.8 416.87 809.04 417.93 809.29 C434.87 813.21 451.76 816.61 469 819 C470.28 819.18 471.56 819.36 472.87 819.55 C517.91 825.88 563.68 827.26 609 823 C610.06 822.91 611.11 822.82 612.2 822.72 C641.49 820.16 671 815.16 699.43 807.67 C701.86 807.04 704.28 806.43 706.71 805.83 C752.13 794.5 797.55 777.66 838.09 754.07 C841.06 752.4 844.12 750.97 847.19 749.5 C854.83 745.75 861.79 741.08 868.87 736.39 C871.56 734.63 874.29 732.95 877.02 731.27 C886.31 725.58 895.18 719.38 904 713 C905 712.28 905 712.28 906.03 711.54 C913.21 706.37 920.26 701.1 927.07 695.43 C929.29 693.59 931.52 691.77 933.78 689.97 C941.92 683.46 949.75 676.74 957.33 669.57 C960.41 666.67 963.52 663.81 966.62 660.94 C970.69 657.23 970.69 657.23 974.56 653.33 C976 652 976 652 978 652 C978.22 651.45 978.44 650.9 978.67 650.34 C980.42 647.26 982.79 645 985.31 642.56 C985.79 642.1 986.26 641.63 986.75 641.15 C988.16 639.77 989.58 638.38 991 637 C991.9 636.06 992.8 635.12 993.73 634.15 C996 632 996 632 998 632 C997.32 636.81 995.47 640.92 993.5 645.31 C993.14 646.11 992.79 646.9 992.42 647.72 C989.08 655.05 985.22 662.01 981.17 668.96 C979.57 671.76 978.02 674.58 976.47 677.4 C974.34 681.28 972.17 685.14 970 689 C969.54 689.82 969.07 690.64 968.6 691.49 C961.97 703.17 954.84 714.45 947.31 725.56 C946.92 726.14 946.53 726.72 946.13 727.31 C940.39 735.79 934.31 743.93 928 752 C926.81 753.54 925.62 755.08 924.44 756.62 C914.23 769.7 903.5 782.39 892.17 794.5 C888.81 798.1 885.59 801.78 882.5 805.61 C880.72 807.26 879.36 807.61 877 808 C877 808.99 877 809.98 877 811 C875.09 813.23 875.09 813.23 872.5 815.75 C871.58 816.64 870.66 817.54 869.71 818.46 C866.94 821.05 864.13 823.57 861.25 826.03 C858.91 828.08 856.64 830.18 854.37 832.31 C848.99 837.32 843.53 842.13 837.79 846.74 C835.31 848.75 832.89 850.8 830.47 852.88 C817.91 863.66 804.66 873.48 790.93 882.7 C789.05 883.97 787.17 885.24 785.3 886.52 C764.53 900.6 742.8 913.81 719.94 924.19 C716.72 925.65 713.56 927.22 710.41 928.84 C632.02 969 540.46 987.93 447 987 C445.92 986.98 444.83 986.96 443.71 986.95 C382.29 985.77 321.76 975.98 263.55 956.2 C260.18 955.06 256.8 953.96 253.42 952.86 C211.13 938.96 170.33 918.09 133 894 C132.1 893.42 131.2 892.85 130.28 892.26 C119.24 885.17 108.36 878.05 98 870 C96 868.5 94 867.01 91.99 865.51 C77.06 854.39 62.7 842.61 49 830 C48.43 829.48 47.87 828.96 47.29 828.42 C39.36 821.11 31.58 813.67 23.94 806.06 C23.25 805.38 22.56 804.69 21.85 803.99 C17.93 800.06 14.2 796.02 10.57 791.82 C8.52 789.45 6.39 787.17 4.25 784.88 C-0.1 780.11 -4.09 775.15 -8.04 770.05 C-10.56 766.79 -13.14 763.66 -15.94 760.62 C-31.79 743.07 -44.71 722.31 -56.78 702.05 C-57.96 700.07 -59.15 698.11 -60.36 696.15 C-65.58 687.62 -70.32 678.9 -74.93 670.03 C-75.92 668.15 -76.93 666.29 -77.96 664.43 C-102.49 619.71 -118.32 570.47 -130 521 C-130.26 519.92 -130.52 518.84 -130.79 517.72 C-134.4 502.55 -137.01 487.3 -139.25 471.88 C-139.37 471.03 -139.5 470.18 -139.63 469.31 C-143.11 445.49 -144.34 421.78 -144.26 397.72 C-144.25 394.37 -144.26 391.02 -144.27 387.67 C-144.34 364.06 -143.23 340.51 -140.31 317.06 C-140.23 316.4 -140.15 315.74 -140.06 315.06 C-132.43 254.13 -115.09 194.57 -89 139 C-88.56 138.06 -88.13 137.12 -87.67 136.15 C-76.01 111.14 -63 87.17 -48 64 C-47.52 63.25 -47.03 62.49 -46.53 61.71 C-41.89 54.52 -37.03 47.57 -31.74 40.84 C-28.73 37 -25.91 33.06 -23.12 29.06 C-19.13 23.37 -14.78 18.09 -10.21 12.86 C-6.59 8.72 -3.22 4.47 0 0 Z " fill="#0D2653" transform="translate(192,241)"/>
<path d="M0 0 C1.58 2.37 2.78 4.52 4 7.06 C5.98 11.08 8.1 14.97 10.31 18.86 C20.35 36.55 28.74 54.89 36.31 73.75 C36.74 74.81 36.74 74.81 37.17 75.89 C44.73 94.68 50.78 113.77 55.62 133.44 C55.86 134.39 56.1 135.34 56.34 136.32 C65.37 172.91 69.58 209.62 69.39 247.28 C69.37 250.8 69.38 254.31 69.4 257.83 C69.82 357.97 35.26 455.09 -48.87 567.96 C-49.99 569.06 -51.11 570.15 -52.23 571.23 C-53.92 572.92 -55.46 574.66 -57 576.48 C-61.41 581.56 -66.15 586.3 -70.92 591.05 C-72.43 592.56 -73.95 594.08 -75.46 595.6 C-80.29 600.43 -85.16 605.15 -90.35 609.58 C-92.46 611.39 -94.47 613.29 -96.5 615.19 C-102.05 620.2 -108 624.61 -114.02 629.04 C-117.41 631.54 -120.71 634.13 -124 636.75 C-138.5 647.94 -154.12 657.89 -170 667 C-170.63 667.37 -171.27 667.73 -171.92 668.11 C-198.01 683.2 -225.53 695.13 -254 705 C-254.63 705.22 -255.27 705.44 -255.92 705.67 C-291.82 718.26 -329.14 725.52 -367 729 C-367.87 729.08 -368.75 729.17 -369.65 729.26 C-377.03 729.93 -384.36 730.17 -391.77 730.2 C-392.96 730.21 -394.14 730.22 -395.37 730.22 C-444.02 730.45 -444.02 730.45 -468 727 C-469.45 726.8 -470.91 726.61 -472.36 726.41 C-514.85 720.69 -556.47 709.76 -595.94 692.88 C-597.98 692.01 -600.03 691.16 -602.08 690.31 C-611.92 686.18 -621.29 681.29 -630.68 676.24 C-632.87 675.07 -635.07 673.92 -637.28 672.78 C-653.98 664.15 -669.86 654.46 -685.06 643.4 C-686.9 642.07 -688.75 640.77 -690.61 639.48 C-699.12 633.54 -707.17 627.12 -715.17 620.51 C-716.84 619.13 -718.52 617.77 -720.21 616.42 C-724.8 612.73 -729.16 609.01 -733.23 604.77 C-734.93 603.07 -736.69 601.52 -738.52 599.96 C-743.38 595.73 -747.95 591.23 -752.51 586.68 C-753.93 585.26 -755.35 583.85 -756.78 582.45 C-762.21 577.02 -767.24 571.45 -772.03 565.46 C-774.07 562.91 -776.19 560.46 -778.35 558.02 C-785.58 549.82 -792.01 541.08 -798.4 532.22 C-799.82 530.25 -801.25 528.3 -802.69 526.34 C-815.04 509.48 -825.34 491.51 -835 473 C-835.55 471.95 -836.1 470.91 -836.66 469.83 C-848.19 447.72 -857.48 425.06 -865.38 401.44 C-865.62 400.7 -865.87 399.96 -866.12 399.2 C-868.89 390.89 -871.48 382.53 -873.85 374.1 C-874.07 373.33 -874.29 372.57 -874.51 371.78 C-875.34 368.76 -876 366.14 -876 363 C-873 364 -873 364 -871.89 365.84 C-871.29 367.09 -871.29 367.09 -870.69 368.38 C-865.86 377.62 -859.29 385.72 -853 394 C-852.27 394.97 -852.27 394.97 -851.53 395.95 C-843.62 406.41 -835.45 416.57 -826.55 426.2 C-825.23 427.66 -823.9 429.12 -822.62 430.62 C-817.11 437.09 -811.12 443.07 -805.11 449.07 C-803.26 450.92 -801.42 452.79 -799.58 454.65 C-792.69 461.57 -785.67 467.95 -778 474 C-776.87 474.95 -775.76 475.9 -774.64 476.86 C-752.09 496.37 -726.97 512.43 -701 527 C-699.99 527.57 -698.98 528.14 -697.94 528.72 C-674.77 541.69 -650.84 551.76 -626 561 C-625.05 561.35 -624.1 561.71 -623.12 562.07 C-592.97 573.11 -561.24 579.46 -529.5 583.69 C-528.68 583.8 -527.86 583.91 -527.02 584.02 C-524.63 584.33 -522.24 584.64 -519.84 584.95 C-519.15 585.04 -518.45 585.13 -517.73 585.23 C-506.43 586.65 -495.17 587.16 -483.79 587.2 C-482.8 587.21 -482.8 587.21 -481.8 587.21 C-478.3 587.23 -474.81 587.24 -471.32 587.24 C-468.51 587.24 -465.7 587.26 -462.89 587.28 C-436.95 587.49 -411.48 585.7 -385.88 581.25 C-385.13 581.12 -384.39 581 -383.62 580.87 C-368.88 578.34 -354.41 575.03 -340 571 C-338.71 570.65 -337.43 570.29 -336.14 569.94 C-297.89 559.36 -261.77 543.35 -227.47 523.42 C-225.08 522.05 -222.68 520.71 -220.26 519.38 C-184.03 499.34 -151.63 470.61 -122.44 441.56 C-121.8 440.92 -121.15 440.29 -120.49 439.63 C-116.13 435.25 -112.03 430.69 -108 426 C-106.98 424.82 -105.96 423.65 -104.94 422.47 C-99.45 416.11 -94.05 409.72 -89 403 C-88.28 402.06 -87.56 401.11 -86.82 400.14 C-74.42 383.73 -63.5 366.5 -53.17 348.72 C-51.45 345.76 -49.68 342.84 -47.88 339.94 C-43.82 333.18 -40.41 326.1 -37 319 C-36.37 317.7 -36.37 317.7 -35.73 316.37 C-28.16 300.59 -21.74 284.53 -16 268 C-15.64 266.97 -15.29 265.95 -14.92 264.89 C-4.24 233.78 2.97 201.52 7.25 168.94 C7.41 167.7 7.58 166.47 7.75 165.19 C10 147.17 10.24 129.2 10.25 111.06 C10.25 109.87 10.25 108.68 10.25 107.46 C10.23 74.29 7.24 41.67 0.52 9.14 C0 6.03 -0.1 3.14 0 0 Z " fill="#B40F0A" transform="translate(1147,302)"/>
<path d="M0 0 C0.96 0 1.92 0 2.9 0 C88.9 0.15 181.11 28.33 246.56 85.74 C249.15 87.99 251.8 90.13 254.5 92.25 C259.12 95.91 263.47 99.84 267.8 103.84 C269.89 105.74 272.01 107.57 274.19 109.38 C284.43 118.3 293.33 129 301.95 139.47 C303.48 141.32 305.02 143.15 306.56 144.99 C313.5 153.35 319.95 161.9 325.92 170.98 C326.92 172.49 327.92 174 328.94 175.5 C351.19 208.48 368.59 245.73 379.44 284 C379.65 284.75 379.87 285.51 380.09 286.29 C384.1 300.45 387.17 314.63 389.38 329.19 C389.56 330.43 389.75 331.67 389.94 332.95 C392.82 352.29 394.56 371.12 394.56 390.67 C394.56 393.65 394.58 396.64 394.6 399.62 C394.65 417.07 393.2 434.19 390.56 451.44 C390.3 453.13 390.3 453.13 390.04 454.86 C380.21 517.83 355.87 578.81 316.38 629.19 C315.7 630.07 315.02 630.95 314.32 631.86 C313.19 633.31 312.07 634.75 310.93 636.2 C309.87 637.55 308.82 638.92 307.79 640.3 C303.51 645.96 298.81 651.17 293.99 656.36 C291.96 658.56 289.99 660.78 288.06 663.06 C280.16 672.14 271.51 680.55 262.06 688 C259.17 690.35 256.51 692.87 253.81 695.44 C246.89 701.95 239.15 707.31 231.39 712.76 C228.85 714.56 226.36 716.44 223.88 718.31 C217.02 723.31 209.71 727.61 202.43 731.95 C200.73 732.97 199.04 734.01 197.36 735.06 C139.61 770.26 70.11 786.44 3 786.38 C2.18 786.38 1.36 786.38 0.51 786.38 C-12.98 786.37 -26.31 785.77 -39.74 784.45 C-44.09 784.05 -48.44 783.76 -52.79 783.47 C-55.18 783.23 -57.32 782.85 -59.62 782.19 C-58.63 782.19 -57.64 782.19 -56.62 782.19 C-56.62 781.53 -56.62 780.87 -56.62 780.19 C-55.15 779.87 -55.15 779.87 -53.64 779.55 C-26.86 773.91 -26.86 773.91 -0.62 766.19 C0.24 765.89 1.1 765.6 1.98 765.3 C20.62 758.88 38.8 751.36 56.29 742.27 C58.59 741.08 60.89 739.89 63.2 738.71 C75.75 732.23 87.39 725 98.83 716.72 C101.1 715.09 103.38 713.49 105.7 711.93 C113.19 706.88 120.03 701.4 126.84 695.5 C129.15 693.53 131.51 691.64 133.88 689.75 C142.42 682.78 150.75 675.45 157.84 666.98 C159.43 665.12 161.12 663.41 162.88 661.69 C166.59 658.02 169.99 654.15 173.38 650.19 C174.18 649.27 174.98 648.36 175.8 647.42 C193.02 627.67 208.1 605.32 220.38 582.19 C221.1 580.84 221.1 580.84 221.84 579.46 C227.49 568.88 233.06 558.39 237.38 547.19 C238.16 545.33 238.96 543.48 239.75 541.62 C259.2 494.65 267.86 445.39 267.69 394.69 C267.68 393.5 267.68 392.32 267.68 391.1 C267.53 350.61 262.3 310.72 249.38 272.19 C249.04 271.19 248.71 270.19 248.37 269.16 C243.08 253.34 236.62 238.21 229.38 223.19 C229 222.4 228.62 221.62 228.24 220.82 C223.69 211.37 218.72 202.21 213.38 193.19 C212.97 192.5 212.57 191.82 212.16 191.12 C205.21 179.31 197.58 168.16 189.38 157.19 C188.93 156.59 188.49 155.99 188.04 155.38 C177.19 140.77 164.94 127.33 152.38 114.19 C151.87 113.66 151.37 113.13 150.85 112.59 C145.54 107.07 140.1 101.97 134.04 97.28 C130.93 94.83 127.94 92.27 124.94 89.69 C119.3 84.87 113.45 80.45 107.38 76.19 C106.59 75.63 105.8 75.07 105 74.49 C102.47 72.7 99.93 70.94 97.38 69.19 C96.32 68.46 95.27 67.73 94.19 66.98 C55.95 40.84 14.32 23.66 -30.44 12.31 C-32.13 11.88 -32.13 11.88 -33.85 11.44 C-41.39 9.59 -48.93 8.25 -56.62 7.19 C-55.63 6.86 -54.64 6.53 -53.62 6.19 C-53.62 5.53 -53.62 4.87 -53.62 4.19 C-50.19 3.7 -46.75 3.23 -43.31 2.75 C-42.36 2.62 -41.4 2.48 -40.41 2.34 C-37.49 1.94 -34.56 1.56 -31.62 1.19 C-30.41 1.03 -30.41 1.03 -29.17 0.87 C-19.48 -0.19 -9.73 -0.01 0 0 Z " fill="#0D2653" transform="translate(729.625,31.8125)"/>
<path d="M0 0 C3.25 0.02 6.5 0.02 9.75 0.01 C27.9 0.04 45.73 1.35 63.62 4.52 C65.44 4.85 65.44 4.85 67.29 5.17 C126.67 16.01 183.3 40.94 229.67 79.76 C231.46 81.26 233.26 82.74 235.07 84.23 C246.86 94.02 257.89 104.82 267.9 116.42 C269.45 118.21 271.01 119.97 272.59 121.73 C299.31 151.76 318.97 186.44 334.55 223.34 C334.91 224.18 335.27 225.03 335.64 225.9 C370 307.47 365.31 399.92 337.55 482.34 C335.28 478.7 335.27 475.58 335.21 471.35 C335.18 469.94 335.15 468.53 335.12 467.12 C335.11 466.01 335.11 466.01 335.09 464.88 C335.03 460.99 334.92 457.11 334.82 453.23 C334.79 452.45 334.77 451.68 334.75 450.88 C333.42 403.32 321.34 357.52 301.37 314.46 C301.07 313.83 300.78 313.19 300.47 312.54 C296.91 304.87 293.04 297.51 288.55 290.34 C287.56 288.69 286.57 287.05 285.58 285.4 C278.85 274.32 271.74 263.66 263.99 253.27 C262.71 251.54 261.44 249.8 260.19 248.04 C254.67 240.41 248.42 233.65 241.95 226.83 C240.28 225.05 238.69 223.2 237.12 221.34 C229.21 212.22 220.51 203.8 211.04 196.33 C208.75 194.5 206.63 192.58 204.49 190.59 C154.01 145.33 82.15 119.61 15.55 113.34 C14.76 113.25 13.96 113.17 13.15 113.09 C6.57 112.44 0.06 112.16 -6.54 112.13 C-8.08 112.12 -8.08 112.12 -9.65 112.11 C-40.68 111.84 -40.68 111.84 -71.45 115.34 C-72.61 115.53 -73.77 115.73 -74.97 115.94 C-93.2 119.12 -110.84 123.64 -128.45 129.34 C-129.44 129.65 -130.44 129.97 -131.46 130.3 C-152.06 136.91 -171.54 145.85 -190.45 156.34 C-191.91 157.12 -191.91 157.12 -193.41 157.91 C-199.97 161.41 -206.23 165.26 -212.45 169.34 C-213.01 169.7 -213.58 170.07 -214.17 170.45 C-227.28 178.91 -239.4 188.19 -250.79 198.86 C-252.92 200.84 -255.06 202.76 -257.26 204.65 C-268 214.03 -278.04 223.65 -287.09 234.69 C-288.38 236.26 -289.7 237.81 -291.02 239.36 C-299.65 249.48 -307.66 260.12 -314.66 271.44 C-315.97 273.57 -317.31 275.67 -318.67 277.76 C-330.24 295.63 -339.44 314.64 -347.45 334.34 C-357.09 317.33 -343.36 280.94 -338.49 262.76 C-336.36 255.21 -333.98 247.76 -331.45 240.34 C-331.1 239.33 -330.76 238.33 -330.41 237.29 C-324.9 221.41 -318.02 206.33 -310.45 191.34 C-310.03 190.5 -309.61 189.67 -309.18 188.81 C-304.17 178.91 -298.6 169.56 -292.45 160.34 C-291.79 159.32 -291.13 158.3 -290.45 157.26 C-285.49 149.64 -280.06 142.48 -274.45 135.34 C-273.81 134.51 -273.18 133.68 -272.52 132.82 C-258 114.07 -240.3 95.68 -221.45 81.34 C-219.95 80.11 -218.45 78.88 -216.95 77.65 C-204.01 67.36 -190.67 57.76 -176.45 49.34 C-175.85 48.98 -175.26 48.62 -174.65 48.25 C-136.78 25.39 -92.22 9.95 -48.59 3.65 C-47.03 3.42 -45.47 3.19 -43.92 2.96 C-29.23 0.78 -14.84 -0.12 0 0 Z " fill="#B40F0A" transform="translate(566.446533203125,59.663818359375)"/>
</svg>
